<svg width="16" height="16" viewBox="0 0 16 16" fill="none" xmlns="http://www.w3.org/2000/svg">
<path d="M16 8C16 12.4183 12.4183 16 8 16C3.58172 16 0 12.4183 0 8C0 3.58172 3.58172 0 8 0C12.4183 0 16 3.58172 16 8Z" fill="#F428EC"/>
<path fill-rule="evenodd" clip-rule="evenodd" d="M9 10.4142V13H7V10.4142L5.17163 12.2427L3.75732 10.8284L5.58582 9H3V7H5.58582L3.75732 5.17163L5.17163 3.75732L7 5.58582V3H9V5.58582L10.8285 3.75732L12.2427 5.17163L10.4142 7H13V9H10.4142L12.2427 10.8284L10.8285 12.2427L9 10.4142Z" fill="#08090D"/>
</svg>
