<svg width="26" height="26" viewBox="0 0 26 26" fill="none" xmlns="http://www.w3.org/2000/svg">
<path fill-rule="evenodd" clip-rule="evenodd" d="M11.5674 1.0563C12.3379 0.211212 13.66 0.211212 14.4305 1.0563L15.2372 1.94083C15.7245 2.47537 16.4646 2.69461 17.1611 2.51077L18.3138 2.20645C19.415 1.91568 20.5272 2.63663 20.7224 3.76773L20.9269 4.95181C21.0504 5.66714 21.5555 6.25528 22.2401 6.4805L23.3729 6.85306C24.4551 7.20889 25.0043 8.42203 24.5624 9.48001L24.0996 10.5876C23.82 11.2567 23.9298 12.027 24.385 12.5896L25.1383 13.5209C25.8578 14.4104 25.6698 15.7304 24.7308 16.3794L23.7479 17.0589C23.1541 17.4693 22.8335 18.1772 22.9149 18.8987L23.0494 20.0928C23.1781 21.2337 22.3123 22.2415 21.1746 22.2754L19.9835 22.3109C19.2639 22.3324 18.6149 22.7532 18.2966 23.4046L17.7698 24.4825C17.2665 25.5122 15.9979 25.888 15.0226 25.2961L14.0016 24.6765C13.3846 24.3022 12.6133 24.3022 11.9963 24.6765L10.9753 25.2961C10 25.888 8.73145 25.5122 8.22815 24.4825L7.7013 23.4046C7.38306 22.7532 6.73401 22.3324 6.01441 22.3109L4.82337 22.2754C3.68567 22.2415 2.81983 21.2337 2.94849 20.0928L3.08301 18.8987C3.16443 18.1772 2.84388 17.4693 2.25 17.0589L1.26709 16.3794C0.328129 15.7304 0.14014 14.4104 0.859623 13.5209L1.61292 12.5896C2.068 12.027 2.17798 11.2567 1.89832 10.5876L1.43555 9.48001C0.993656 8.42203 1.54285 7.20889 2.625 6.85306L3.75782 6.4805C4.44239 6.25528 4.94751 5.66714 5.07105 4.95181L5.27552 3.76773C5.47071 2.63663 6.58289 1.91568 7.68409 2.20645L8.8368 2.51077C9.53333 2.69461 10.2734 2.47537 10.7607 1.94083L11.5674 1.0563ZM7 14L8.41004 12.59L11 15.1701L17.59 8.58011L19 10L11 18L7 14Z" fill="#08090D"/>
</svg>
