<svg width="26" height="26" viewBox="0 0 26 26" fill="none" xmlns="http://www.w3.org/2000/svg">
<path fill-rule="evenodd" clip-rule="evenodd" d="M11.945 1.0563C12.7155 0.211212 14.0376 0.211212 14.8081 1.0563L15.6147 1.94083C16.1021 2.47537 16.8422 2.69461 17.5387 2.51077L18.6914 2.20645C19.7926 1.91568 20.9048 2.63663 21.1 3.76773L21.3044 4.95181C21.428 5.66714 21.9331 6.25528 22.6177 6.4805L23.7505 6.85306C24.8326 7.20889 25.3818 8.42203 24.9399 9.48001L24.4772 10.5876C24.1975 11.2567 24.3074 12.027 24.7626 12.5896L25.5159 13.5209C26.2354 14.4104 26.0474 15.7304 25.1084 16.3794L24.1255 17.0589C23.5316 17.4693 23.2111 18.1772 23.2925 18.8987L23.427 20.0928C23.5557 21.2337 22.6898 22.2415 21.5521 22.2754L20.3611 22.3109C19.6415 22.3324 18.9924 22.7532 18.6742 23.4046L18.1473 24.4825C17.644 25.5122 16.3755 25.888 15.4002 25.2961L14.3792 24.6765C13.7622 24.3022 12.9908 24.3022 12.3739 24.6765L11.3529 25.2961C10.3776 25.888 9.10901 25.5122 8.60572 24.4825L8.07886 23.4046C7.76062 22.7532 7.11158 22.3324 6.39197 22.3109L5.20093 22.2754C4.06324 22.2415 3.19739 21.2337 3.32605 20.0928L3.46058 18.8987C3.542 18.1772 3.22144 17.4693 2.62757 17.0589L1.64466 16.3794C0.705692 15.7304 0.517704 14.4104 1.23719 13.5209L1.99048 12.5896C2.44556 12.027 2.55555 11.2567 2.27588 10.5876L1.81311 9.48001C1.37122 8.42203 1.92041 7.20889 3.00257 6.85306L4.13538 6.4805C4.81995 6.25528 5.32508 5.66714 5.44861 4.95181L5.65308 3.76773C5.84827 2.63663 6.96045 1.91568 8.06165 2.20645L9.21436 2.51077C9.91089 2.69461 10.651 2.47537 11.1383 1.94083L11.945 1.0563ZM7.37757 14L8.7876 12.59L11.3776 15.1701L17.9675 8.58011L19.3776 10L11.3776 18L7.37757 14Z" fill="#00C140"/>
</svg>
