<svg width="26" height="26" viewBox="0 0 26 26" fill="none" xmlns="http://www.w3.org/2000/svg">
<path fill-rule="evenodd" clip-rule="evenodd" d="M11.3229 1.0563C12.0934 0.211212 13.4155 0.211212 14.186 1.0563L14.9927 1.94083C15.48 2.47537 16.2201 2.69461 16.9166 2.51077L18.0693 2.20645C19.1705 1.91568 20.2827 2.63663 20.4779 3.76773L20.6824 4.95181C20.8059 5.66714 21.311 6.25528 21.9956 6.4805L23.1284 6.85306C24.2106 7.20889 24.7598 8.42203 24.3179 9.48001L23.8551 10.5876C23.5754 11.2567 23.6853 12.027 24.1405 12.5896L24.8938 13.5209C25.6133 14.4104 25.4253 15.7304 24.4863 16.3794L23.5034 17.0589C22.9095 17.4693 22.589 18.1772 22.6704 18.8987L22.8049 20.0928C22.9336 21.2337 22.0678 22.2415 20.9301 22.2754L19.739 22.3109C19.0194 22.3324 18.3704 22.7532 18.0521 23.4046L17.5253 24.4825C17.022 25.5122 15.7534 25.888 14.7781 25.2961L13.7571 24.6765C13.1401 24.3022 12.3688 24.3022 11.7518 24.6765L10.7308 25.2961C9.7555 25.888 8.48694 25.5122 7.98365 24.4825L7.45679 23.4046C7.13855 22.7532 6.48951 22.3324 5.7699 22.3109L4.57886 22.2754C3.44117 22.2415 2.57532 21.2337 2.70398 20.0928L2.8385 18.8987C2.91993 18.1772 2.59937 17.4693 2.0055 17.0589L1.02259 16.3794C0.0836219 15.7304 -0.104366 14.4104 0.615116 13.5209L1.36841 12.5896C1.82349 12.027 1.93348 11.2567 1.65381 10.5876L1.19104 9.48001C0.749149 8.42203 1.29834 7.20889 2.3805 6.85306L3.51331 6.4805C4.19788 6.25528 4.70301 5.66714 4.82654 4.95181L5.03101 3.76773C5.2262 2.63663 6.33838 1.91568 7.43958 2.20645L8.59229 2.51077C9.28882 2.69461 10.0289 2.47537 10.5162 1.94083L11.3229 1.0563ZM6.7555 14L8.16553 12.59L10.7555 15.1701L17.3455 8.58011L18.7555 10L10.7555 18L6.7555 14Z" fill="#F8C9FE"/>
</svg>
