<svg width="191" height="191" viewBox="0 0 191 191" fill="none" xmlns="http://www.w3.org/2000/svg">
<path fill-rule="evenodd" clip-rule="evenodd" d="M29.8295 56.9182H89.5122V98.8386H71.6663V110.583H89.5122V134.615H65.5226V116.727H53.8192V134.615H29.8295V116.727H11.9832V92.6948H29.8295V56.9182ZM65.5226 110.583V98.8386H47.6754V74.8065H71.6663V92.6948H83.3685V63.062H35.9733V98.8386H18.127V110.583H35.9733V128.471H47.6754V110.583H65.5226ZM65.5226 92.6948V80.9503H53.8192V92.6948H65.5226ZM71.6663 116.727V128.471H83.3685V116.727H71.6663ZM101.214 56.9182H125.204V92.6948H136.907V56.9182H160.896V98.8386H143.05V110.583H178.743V134.615H136.907V116.727H125.204V134.615H101.214V56.9182ZM136.907 110.583V98.8386H119.061V63.062H107.358V128.471H119.061V110.583H136.907ZM143.05 116.727V128.471H172.599V116.727H143.05ZM143.05 92.6948H154.752V63.062H143.05V92.6948Z" fill="#161616"/>
</svg>
