<svg width="29" height="19" viewBox="0 0 29 19" fill="none" xmlns="http://www.w3.org/2000/svg">
<path d="M14.25 17.4167C14.25 18.2911 13.5411 19 12.6667 19H1.58333C0.708883 19 0 18.2911 0 17.4167C0 16.5422 0.708882 15.8333 1.58333 15.8333H12.6667C13.5411 15.8333 14.25 16.5422 14.25 17.4167ZM28.5 9.5C28.5 10.3745 27.7911 11.0833 26.9167 11.0833H1.58333C0.708882 11.0833 0 10.3745 0 9.5C0 8.62555 0.708882 7.91667 1.58333 7.91667H26.9167C27.7911 7.91667 28.5 8.62555 28.5 9.5ZM28.5 1.58333C28.5 2.45778 27.7911 3.16667 26.9167 3.16667H15.8333C14.9589 3.16667 14.25 2.45778 14.25 1.58333C14.25 0.708883 14.9589 0 15.8333 0H26.9167C27.7911 0 28.5 0.708883 28.5 1.58333Z" fill="#F8C9FE"/>
</svg>
