<svg width="31" height="32" viewBox="0 0 31 32" fill="none" xmlns="http://www.w3.org/2000/svg">
<path fill-rule="evenodd" clip-rule="evenodd" d="M13.9045 24.5807V31.403H16.9045V24.5807C20.4751 23.9558 23.2918 21.1391 23.9167 17.5685H30.739V14.5685H23.9167C23.9167 14.5685 23.9167 14.5685 23.9167 14.5685C23.2918 10.9978 20.4751 8.18113 16.9045 7.55623V0.733948H13.9045V7.55622C10.3338 8.18109 7.51709 10.9978 6.89222 14.5685H0.0700073V17.5685H6.89223C7.51713 21.1391 10.3338 23.9558 13.9045 24.5807ZM21.0464 16.0684C21.0464 19.1844 18.5204 21.7104 15.4044 21.7104C12.2885 21.7104 9.76251 19.1844 9.76251 16.0684C9.76251 12.9525 12.2885 10.4265 15.4044 10.4265C18.5204 10.4265 21.0464 12.9525 21.0464 16.0684ZM15.4044 18.8487C16.9399 18.8487 18.1847 17.6039 18.1847 16.0684C18.1847 14.533 16.9399 13.2882 15.4044 13.2882C13.869 13.2882 12.6242 14.533 12.6242 16.0684C12.6242 17.6039 13.869 18.8487 15.4044 18.8487Z" fill="black"/>
</svg>
