<svg width="18" height="18" viewBox="0 0 18 18" fill="none" xmlns="http://www.w3.org/2000/svg">
<path d="M10 18H2C0.89543 18 0 17.1046 0 16V2C0 0.89543 0.89543 0 2 0H16C17.1046 0 18 0.89543 18 2V10C17.9996 10.0116 17.9975 10.023 17.994 10.034C17.9911 10.0431 17.9891 10.0525 17.988 10.062C17.9823 10.1502 17.9652 10.2373 17.937 10.321L17.928 10.348C17.9213 10.3706 17.9129 10.3926 17.903 10.414C17.8546 10.5229 17.7868 10.6222 17.703 10.707L10.703 17.707C10.5165 17.8936 10.2638 17.9989 10 18ZM2 2V16H9V10C9 9.44772 9.44772 9 10 9H16V2H2ZM11 11V14.587L14.586 11H11Z" fill="#F8C9FE"/>
</svg>
