<svg width="26" height="26" viewBox="0 0 26 26" fill="none" xmlns="http://www.w3.org/2000/svg">
<path fill-rule="evenodd" clip-rule="evenodd" d="M26 13C26 20.1797 20.1797 26 13 26C5.8203 26 0 20.1797 0 13C0 5.8203 5.8203 0 13 0C20.1797 0 26 5.8203 26 13ZM9.75 13C9.30127 13 8.9375 12.6362 8.9375 12.1875V7.3125C8.9375 6.86377 9.30127 6.5 9.75 6.5C10.1987 6.5 10.5625 6.86377 10.5625 7.3125V12.1875C10.5625 12.6362 10.1987 13 9.75 13ZM16.25 13C15.8013 13 15.4375 12.6362 15.4375 12.1875V7.3125C15.4375 6.86377 15.8013 6.5 16.25 6.5C16.6987 6.5 17.0625 6.86377 17.0625 7.3125V12.1875C17.0625 12.6362 16.6987 13 16.25 13ZM20.2674 13.8109C20.0844 15.4519 19.3496 16.9919 18.1707 18.1707C16.7994 19.5421 14.9394 20.3125 13 20.3125C11.0606 20.3125 9.20064 19.5421 7.82928 18.1707C6.65042 16.9919 5.91563 15.4519 5.73257 13.8109C5.68283 13.3649 5.32373 13 4.875 13C4.42627 13 4.05866 13.3646 4.09939 13.8115C4.28829 15.8843 5.19647 17.836 6.68023 19.3198C8.35634 20.9959 10.6296 21.9375 13 21.9375C15.3704 21.9375 17.6437 20.9959 19.3198 19.3198C20.8035 17.836 21.7117 15.8843 21.9006 13.8114C21.9413 13.3646 21.5737 13 21.125 13C20.6763 13 20.3172 13.3649 20.2674 13.8109Z" fill="#08090D"/>
</svg>
