<svg width="25" height="24" viewBox="0 0 25 24" fill="none" xmlns="http://www.w3.org/2000/svg">
<path fill-rule="evenodd" clip-rule="evenodd" d="M12.8149 0.532979C12.7216 0.225744 12.4488 0.00219727 12.1277 0.00219727V0.00219727V0.00219727C11.8062 0.00219727 11.533 0.226083 11.4396 0.533762C9.89323 5.62675 5.87553 9.64445 0.782543 11.1908C0.474864 11.2842 0.250977 11.5574 0.250977 11.879V11.879V11.879C0.250977 12.2 0.474523 12.4728 0.781757 12.5661C5.87544 14.1124 9.89366 18.1306 11.4399 23.2243C11.5332 23.5319 11.8063 23.7557 12.1277 23.7557V23.7557V23.7557C12.4487 23.7557 12.7214 23.5322 12.8146 23.2251C14.3607 18.1307 18.3795 14.1119 23.4739 12.5658C23.781 12.4726 24.0045 12.1999 24.0045 11.879V11.879V11.879C24.0045 11.5575 23.7807 11.2845 23.4731 11.1911C18.3794 9.64488 14.3611 5.62666 12.8149 0.532979Z" fill="#08090D"/>
</svg>
