<svg width="24" height="24" viewBox="0 0 24 24" fill="none" xmlns="http://www.w3.org/2000/svg">
<path fill-rule="evenodd" clip-rule="evenodd" d="M12.6862 0.53188C12.5929 0.224645 12.3201 0.00109863 11.9991 0.00109863V0.00109863V0.00109863C11.6775 0.00109863 11.4043 0.224984 11.3109 0.532664C9.76457 5.62565 5.74687 9.64335 0.653881 11.1897C0.346201 11.2831 0.122314 11.5563 0.122314 11.8779V11.8779V11.8779C0.122314 12.1989 0.345861 12.4717 0.653095 12.565C5.74678 14.1113 9.765 18.1295 11.3112 23.2232C11.4046 23.5308 11.6776 23.7546 11.9991 23.7546V23.7546V23.7546C12.32 23.7546 12.5927 23.5311 12.6859 23.224C14.2321 18.1296 18.2508 14.1108 23.3452 12.5647C23.6524 12.4715 23.8758 12.1988 23.8758 11.8779V11.8779V11.8779C23.8758 11.5564 23.652 11.2834 23.3445 11.19C18.2507 9.64378 14.2325 5.62556 12.6862 0.53188Z" fill="#F428EC"/>
</svg>
