<svg width="309" height="153" viewBox="0 0 309 153" fill="none" xmlns="http://www.w3.org/2000/svg">
<path fill-rule="evenodd" clip-rule="evenodd" d="M172.481 12.1732C165.285 -3.40603 142.998 -3.40602 135.802 12.1732L135.35 13.1512C129.938 24.8686 114.957 28.5363 104.682 20.6595L103.825 20.002C90.1639 9.52914 70.4302 19.8168 71.3471 36.9333L71.4047 38.0078C72.0943 50.8815 60.5454 61.0444 47.7625 58.8126L46.6955 58.6263C29.6996 55.659 17.0394 73.8774 25.8595 88.6101L26.4132 89.535C33.0469 100.616 27.5756 114.946 15.2128 118.87L14.1808 119.198C3.7069 122.523 -1.18374 132.652 0.450081 141.885C1.80871 149.564 10.4432 152.489 18.2918 152.489H289.991C297.839 152.489 306.474 149.564 307.833 141.885C309.466 132.652 304.576 122.523 294.102 119.198L293.07 118.87C280.707 114.946 275.236 100.616 281.87 89.535L282.423 88.6101C291.243 73.8774 278.583 55.659 261.587 58.6263L260.52 58.8126C247.737 61.0444 236.188 50.8815 236.878 38.0078L236.936 36.9333C237.853 19.8168 218.119 9.52914 204.458 20.002L203.6 20.6595C193.326 28.5363 178.345 24.8686 172.933 13.1512L172.481 12.1732Z" fill="#F0DAF3"/>
</svg>
