<svg width="191" height="89" viewBox="0 0 191 89" fill="none" xmlns="http://www.w3.org/2000/svg">
<path fill-rule="evenodd" clip-rule="evenodd" d="M20.4929 0.241699H88.4931V48.0042H68.1602V61.3854H88.4931V88.7667H61.1602V68.3854H47.8258V88.7667H20.4929V68.3854H0.159485V41.0043H20.4929V0.241699ZM61.1602 61.3854V48.0042H40.8259V20.623H68.1602V41.0043H81.4931V7.24169H27.4929V48.0042H7.15947V61.3854H27.4929V81.7667H40.8259V61.3854H61.1602ZM61.1602 41.0043V27.623H47.8258V41.0043H61.1602ZM68.1602 68.3854V81.7667H81.4931V68.3854H68.1602ZM101.826 0.241699H129.159V41.0043H142.492V0.241699H169.825V48.0042H149.492V61.3854H190.159V88.7667H142.492V68.3854H129.159V88.7667H101.826V0.241699ZM142.492 61.3854V48.0042H122.16V7.24169H108.826V81.7667H122.16V61.3854H142.492ZM149.492 68.3854V81.7667H183.159V68.3854H149.492ZM149.492 41.0043H162.825V7.24169H149.492V41.0043Z" fill="#161616"/>
</svg>
