<svg width="41" height="24" viewBox="0 0 41 24" fill="none" xmlns="http://www.w3.org/2000/svg">
<path d="M33.3107 23.092L27.5095 14.7516C27.4402 14.6518 27.3477 14.5704 27.2401 14.5141C27.1324 14.4578 27.0127 14.4284 26.8912 14.4284H26.6199C26.5155 14.4284 26.4153 14.4699 26.3415 14.5437C26.2677 14.6175 26.2263 14.7176 26.2263 14.822V22.9511C26.2263 23.1598 26.1433 23.3601 25.9957 23.5077C25.8481 23.6553 25.6479 23.7382 25.4391 23.7382H21.0591C20.8504 23.7382 20.6501 23.6553 20.5025 23.5077C20.3549 23.3601 20.272 23.1598 20.272 22.9511V3.71465C20.272 3.50588 20.3549 3.30565 20.5025 3.15803C20.6501 3.01041 20.8504 2.92749 21.0591 2.92749H25.4391C25.6479 2.92749 25.8481 3.01041 25.9957 3.15803C26.1433 3.30565 26.2263 3.50588 26.2263 3.71465V10.6107C26.2263 10.6661 26.2437 10.7202 26.2761 10.7652C26.3084 10.8102 26.3541 10.844 26.4066 10.8616C26.4592 10.8793 26.5159 10.88 26.5689 10.8637C26.6219 10.8474 26.6685 10.8148 26.702 10.7707L32.1748 3.55469C32.3226 3.35978 32.5135 3.20172 32.7326 3.09291C32.9517 2.9841 33.193 2.92749 33.4376 2.92749H38.8042C38.877 2.92749 38.9483 2.94781 39.0102 2.98615C39.072 3.0245 39.1219 3.07935 39.1543 3.14453C39.1867 3.20971 39.2002 3.28263 39.1934 3.35509C39.1865 3.42754 39.1596 3.49664 39.1156 3.55462L33.22 11.3267C33.0817 11.509 33.0047 11.7304 33 11.9591C32.9953 12.1878 33.0631 12.4122 33.1938 12.6L40.4936 23.0921C40.5365 23.1538 40.5617 23.226 40.5664 23.301C40.5712 23.376 40.5553 23.4508 40.5205 23.5174C40.4857 23.584 40.4334 23.6398 40.3691 23.6787C40.3048 23.7177 40.2311 23.7382 40.156 23.7382H34.5474C34.3044 23.7382 34.0651 23.6795 33.8497 23.567C33.6344 23.4544 33.4495 23.2915 33.3107 23.092V23.092Z" fill="#F8C9FE"/>
<path d="M6.02568 6.81982H3.54351C3.33474 6.81982 3.13449 6.90276 2.98687 7.05039C2.83924 7.19801 2.75635 7.39821 2.75635 7.60698V22.9493C2.75635 23.1581 2.83924 23.3583 2.98687 23.506C3.13449 23.6536 3.33474 23.7365 3.54351 23.7365H7.10457C7.31334 23.7365 7.51355 23.6536 7.66117 23.506C7.80879 23.3583 7.89173 23.1581 7.89173 22.9493V18.3978C7.89173 18.189 7.97463 17.9888 8.12225 17.8412C8.26987 17.6936 8.47013 17.6106 8.6789 17.6106H10.1452C10.3872 17.6106 10.6254 17.6706 10.8385 17.7852C11.0515 17.8999 11.2329 18.0655 11.3663 18.2674L14.5457 23.0797C14.6791 23.2816 14.8604 23.4473 15.0735 23.5619C15.2866 23.6765 15.5248 23.7365 15.7668 23.7365H21.1105C21.1855 23.7365 21.2591 23.7159 21.3232 23.677C21.3873 23.6381 21.4395 23.5824 21.4741 23.5159C21.5088 23.4494 21.5245 23.3747 21.5196 23.2998C21.5147 23.225 21.4894 23.1529 21.4464 23.0915L17.2173 17.0464C16.9681 16.6902 17.0813 16.2412 17.4437 16.0015C19.3047 14.7705 20.1364 13.0059 20.2763 11.0272C20.3069 10.5937 20.2938 9.88766 20.257 9.45456C20.0386 6.88369 18.9483 5.05614 16.8332 3.92062C16.4503 3.71505 15.7986 3.4421 15.3851 3.30834C14.4445 3.00404 13.402 2.82522 12.2588 2.76988C11.8246 2.74886 11.1195 2.75313 10.6848 2.7553C9.23753 2.76219 8.2255 2.76415 7.59996 2.76455C7.16523 2.76455 6.8128 3.1165 6.8128 3.55123V6.03268C6.8128 6.24145 6.72985 6.44166 6.58223 6.58928C6.43461 6.7369 6.2344 6.81984 6.02564 6.81984L6.02568 6.81982ZM10.9839 12.8362H8.67894C8.47018 12.8362 8.26997 12.7533 8.12235 12.6057C7.97473 12.4581 7.89178 12.2579 7.89178 12.0491V8.68558C7.89178 8.47681 7.97473 8.27658 8.12235 8.12896C8.26997 7.98134 8.47018 7.89842 8.67894 7.89842H11.0514C11.4861 7.89842 12.2019 7.88621 12.6121 8.02442C13.376 8.28172 13.9508 8.90313 14.1773 9.60758C14.3096 10.0191 14.2722 10.7419 14.1511 11.1585C13.9041 12.0084 13.3344 12.5352 12.5502 12.7394C12.1306 12.8487 11.4187 12.8362 10.9839 12.8362V12.8362Z" fill="#F8C9FE"/>
<path d="M0 4.45844C0 4.89318 0.352424 5.24561 0.787162 5.24561H4.45839C4.89313 5.24561 5.24555 4.89318 5.24555 4.45844V0.787214C5.24555 0.352476 4.89313 5.16496e-05 4.45839 5.16496e-05H0.787162C0.352425 5.16496e-05 0 0.352476 0 0.787214V4.45844Z" fill="#F8C9FE"/>
</svg>
