<svg width="861" height="311" viewBox="0 0 861 311" fill="none" xmlns="http://www.w3.org/2000/svg">
<path fill-rule="evenodd" clip-rule="evenodd" d="M22.1853 27.5962H5.34157C3.9249 27.5962 2.56633 28.1591 1.56459 29.1609C0.562849 30.1627 0 31.5214 0 32.9382V137.057C0 138.474 0.562849 139.833 1.56459 140.835C2.56633 141.837 3.9249 142.399 5.34157 142.399H29.5065C30.9231 142.399 32.282 141.837 33.2838 140.835C34.2855 139.833 34.848 138.474 34.848 137.057V106.169C34.848 104.752 35.4109 103.393 36.4126 102.391C37.4144 101.39 38.7729 100.827 40.1896 100.827H50.1399C51.7818 100.827 53.3983 101.234 54.8444 102.012C56.2904 102.79 57.521 103.914 58.4261 105.284L80.0014 137.942C80.9064 139.312 82.137 140.437 83.583 141.214C85.0291 141.992 86.6453 142.399 88.2872 142.399H124.549C125.058 142.399 125.557 142.26 125.992 141.996C126.427 141.732 126.782 141.354 127.017 140.902C127.252 140.451 127.358 139.944 127.325 139.436C127.292 138.928 127.121 138.439 126.829 138.022L98.1306 96.998C96.4395 94.5805 97.2074 91.5333 99.6668 89.9064C112.295 81.5527 117.939 69.5773 118.888 56.1494C119.096 53.2075 119.007 48.4157 118.757 45.4765C117.275 28.0296 109.877 15.6272 95.5237 7.92108C92.9254 6.52602 88.5032 4.67365 85.6973 3.76591C79.3144 1.70083 72.2401 0.487258 64.4826 0.111716C61.6253 -0.0266006 57.0395 -0.00352615 54.0744 0.0113936L53.8018 0.0127606C43.9807 0.059503 37.1129 0.0730171 32.8681 0.0756881C29.9181 0.0756881 27.5268 2.46401 27.5268 5.41425V22.2544C27.5268 23.6711 26.964 25.0298 25.9623 26.0316C24.9605 27.0335 23.6019 27.5962 22.1853 27.5962ZM55.8316 68.426H40.1903C38.7736 68.426 37.4147 67.8631 36.4129 66.8613C35.4112 65.8595 34.8487 64.5008 34.8487 63.084V40.258C34.8487 38.8412 35.4112 37.4823 36.4129 36.4805C37.4147 35.4787 38.7736 34.916 40.1903 34.916H56.2893C56.5024 34.916 56.7254 34.9155 56.9569 34.9151C59.9301 34.9093 64.2971 34.9009 66.8795 35.771C72.0638 37.5172 75.9642 41.7343 77.5014 46.515C78.3993 49.3077 78.1451 54.2131 77.3234 57.0404C75.6475 62.8077 71.7813 66.383 66.4603 67.7687C63.8649 68.4446 59.6219 68.4344 56.6571 68.4273C56.369 68.4267 56.0928 68.426 55.8316 68.426ZM312.583 23.3586V6.51862C312.583 5.10184 313.145 3.74316 314.147 2.74134C315.149 1.73953 316.508 1.17664 317.924 1.17664H371.298C372.715 1.17664 374.074 1.73953 375.075 2.74134C376.077 3.74316 376.639 5.10184 376.639 6.51862V29.9498C376.639 31.3666 376.077 32.7254 375.075 33.7272C374.074 34.7291 372.715 35.2918 371.298 35.2918H326.223C324.807 35.2918 323.448 35.8547 322.446 36.8565C321.444 37.8583 320.882 39.217 320.882 40.6338V48.3C320.882 49.7168 321.444 51.0755 322.446 52.0773C323.448 53.0791 324.807 53.642 326.223 53.642H368.526C369.942 53.642 371.301 54.2047 372.303 55.2065C373.304 56.2084 373.867 57.5672 373.867 58.984V82.402C373.867 83.8187 373.304 85.1776 372.303 86.1794C371.301 87.1812 369.942 87.7439 368.526 87.7439H325.243C323.826 87.7439 322.467 88.3068 321.466 89.3086C320.464 90.3105 319.901 91.6691 319.901 93.0859V102.964C319.901 104.381 320.464 105.74 321.466 106.741C322.467 107.743 323.826 108.306 325.243 108.306H372.412C373.828 108.306 375.187 108.869 376.189 109.871C377.191 110.872 377.753 112.231 377.753 113.648V137.079C377.753 138.496 377.191 139.855 376.189 140.857C375.187 141.858 373.828 142.421 372.412 142.421H290.395C288.978 142.421 287.619 141.858 286.617 140.857C285.616 139.855 285.053 138.496 285.053 137.079V34.0425C285.053 32.6257 285.616 31.2669 286.617 30.2651C287.619 29.2633 288.978 28.7005 290.395 28.7005H307.241C308.658 28.7005 310.016 28.1377 311.018 27.1358C312.02 26.134 312.583 24.7753 312.583 23.3586ZM174.038 6.26426L132.003 137.406C131.815 137.99 131.769 138.611 131.867 139.217C131.965 139.823 132.204 140.397 132.566 140.893C132.927 141.388 133.401 141.792 133.948 142.07C134.495 142.348 135.1 142.493 135.714 142.493H165.775C167.32 142.493 168.825 141.996 170.067 141.076C171.309 140.156 172.222 138.861 172.672 137.383L179.111 116.233C179.561 114.755 180.474 113.46 181.716 112.54C182.958 111.619 184.463 111.123 186.008 111.123H225.013C226.562 111.123 228.07 111.617 229.319 112.534C230.567 113.45 231.491 114.741 231.955 116.219L238.579 137.309C239.043 138.787 239.967 140.078 241.215 140.995C242.464 141.911 243.972 142.406 245.521 142.406H276.709C277.32 142.406 277.921 142.261 278.465 141.983C279.009 141.705 279.478 141.301 279.836 140.806C280.193 140.311 280.427 139.739 280.52 139.135C280.613 138.532 280.561 137.915 280.369 137.335L236.891 6.24747C236.402 4.77153 235.459 3.48747 234.199 2.5773C232.938 1.66714 231.423 1.17725 229.868 1.17725H181.011C179.46 1.17726 177.948 1.66988 176.695 2.58415C175.442 3.49842 174.512 4.78708 174.038 6.26426ZM204.917 34.9163H205.486C206.253 34.9163 206.999 35.1683 207.609 35.6338C208.219 36.0992 208.659 36.7523 208.862 37.4924L218.268 71.8554C218.434 72.4602 218.457 73.0951 218.337 73.7106C218.218 74.3261 217.957 74.9057 217.577 75.4043C217.196 75.9028 216.706 76.3068 216.144 76.5849C215.582 76.863 214.964 77.0078 214.337 77.0078H196.412C195.783 77.0078 195.162 76.8631 194.597 76.585C194.032 76.307 193.539 75.9028 193.156 75.4039C192.772 74.905 192.508 74.3246 192.384 73.7075C192.26 73.0904 192.28 72.4531 192.441 71.8448L201.561 37.4978C201.757 36.7576 202.193 36.1031 202.8 35.6362C203.407 35.1693 204.152 34.9163 204.917 34.9163ZM752.847 24.2185C747.163 11.8287 729.559 11.8287 723.875 24.2185L723.518 24.9963C719.243 34.315 707.41 37.2318 699.294 30.9675L698.617 30.4446C687.826 22.1158 672.239 30.2973 672.963 43.9098L673.008 44.7643C673.553 55.0025 664.431 63.0849 654.334 61.31L653.491 61.1618C640.066 58.802 630.066 73.2908 637.033 85.0074L637.47 85.7429C642.71 94.5552 638.388 105.951 628.623 109.073L627.808 109.333C616.364 112.991 613.359 127.001 620.758 135.16C621.145 135.586 621.704 135.809 622.28 135.809H854.442C855.018 135.809 855.577 135.586 855.964 135.16C863.364 127.001 860.358 112.991 848.914 109.333L848.099 109.073C838.334 105.951 834.012 94.5552 839.252 85.7429L839.69 85.0074C846.656 73.2908 836.656 58.802 823.231 61.1618L822.389 61.31C812.292 63.0849 803.169 55.0025 803.714 44.7643L803.759 43.9098C804.484 30.2973 788.896 22.1158 778.106 30.4446L777.428 30.9675C769.312 37.2318 757.479 34.315 753.204 24.9963L752.847 24.2185ZM617.341 274.45V171.426C617.341 170.009 617.904 168.651 618.906 167.649C619.908 166.647 621.266 166.084 622.683 166.084H703.586C705.003 166.084 706.362 166.647 707.363 167.649C708.365 168.651 708.928 170.009 708.928 171.426V194.857C708.928 196.274 708.365 197.633 707.363 198.635C706.362 199.637 705.003 200.199 703.586 200.199H657.531C656.114 200.199 654.756 200.762 653.754 201.764C652.752 202.766 652.189 204.125 652.189 205.541V213.194C652.189 214.611 652.752 215.97 653.754 216.972C654.756 217.974 656.114 218.536 657.531 218.536H700.814C702.23 218.536 703.589 219.099 704.591 220.101C705.593 221.103 706.155 222.462 706.155 223.878V247.31C706.155 248.726 705.593 250.085 704.591 251.087C703.589 252.089 702.23 252.652 700.814 252.652H657.531C656.114 252.652 654.756 253.214 653.754 254.216C652.752 255.218 652.189 256.577 652.189 257.993V267.871C652.189 269.288 652.752 270.647 653.754 271.649C654.756 272.651 656.114 273.213 657.531 273.213H704.7C706.117 273.213 707.475 273.776 708.477 274.778C709.479 275.78 710.042 277.139 710.042 278.555V301.971C710.042 303.388 709.479 304.747 708.477 305.748C707.475 306.75 706.117 307.313 704.7 307.313H650.212C648.796 307.313 647.437 306.75 646.435 305.748C645.434 304.747 644.871 303.388 644.871 301.971V285.134C644.871 283.717 644.308 282.358 643.306 281.357C642.304 280.355 640.946 279.792 639.529 279.792H622.683C621.266 279.792 619.908 279.229 618.906 278.227C617.904 277.225 617.341 275.867 617.341 274.45ZM483.751 171.432V301.977C483.751 303.394 484.314 304.752 485.316 305.754C486.318 306.756 487.676 307.319 489.093 307.319H518.816C520.233 307.319 521.591 306.756 522.593 305.754C523.595 304.752 524.158 303.394 524.158 301.977V259.47C524.158 258.054 524.72 256.695 525.722 255.693C526.724 254.691 528.082 254.129 529.499 254.129H564.428C565.845 254.129 567.203 254.691 568.205 255.693C569.207 256.695 569.77 258.054 569.77 259.47V301.977C569.77 303.394 570.332 304.752 571.334 305.754C572.336 306.756 573.695 307.319 575.111 307.319H604.842C606.259 307.319 607.617 306.756 608.619 305.754C609.621 304.752 610.183 303.394 610.183 301.977V171.432C610.183 170.015 609.621 168.656 608.619 167.655C607.617 166.653 606.259 166.09 604.842 166.09H575.111C573.695 166.09 572.336 166.653 571.334 167.655C570.332 168.656 569.77 170.015 569.77 171.432V212.83C569.77 214.247 569.207 215.605 568.205 216.607C567.203 217.609 565.845 218.172 564.428 218.172H529.499C528.082 218.172 526.724 217.609 525.722 216.607C524.72 215.605 524.158 214.247 524.158 212.83V171.432C524.158 170.015 523.595 168.656 522.593 167.655C521.591 166.653 520.233 166.09 518.816 166.09H489.093C487.676 166.09 486.318 166.653 485.316 167.655C484.314 168.656 483.751 170.015 483.751 171.432ZM177.281 166.089H147.552C146.135 166.089 144.776 166.652 143.775 167.654C142.773 168.656 142.21 170.015 142.21 171.431V301.977C142.21 303.394 142.773 304.753 143.775 305.755C144.776 306.756 146.135 307.319 147.552 307.319H177.281C178.698 307.319 180.057 306.756 181.058 305.755C182.06 304.753 182.623 303.394 182.623 301.977V171.431C182.623 170.015 182.06 168.656 181.058 167.654C180.057 166.652 178.698 166.089 177.281 166.089ZM245.662 166.086H222.392C220.975 166.086 219.617 166.649 218.615 167.651C217.613 168.653 217.05 170.012 217.05 171.429V188.266C217.05 189.683 216.487 191.042 215.486 192.043C214.484 193.045 213.125 193.608 211.709 193.608H194.865C193.448 193.608 192.09 194.171 191.088 195.173C190.086 196.175 189.523 197.533 189.523 198.95V301.974C189.523 303.39 190.086 304.749 191.088 305.751C192.09 306.753 193.448 307.316 194.865 307.316H222.011C223.428 307.316 224.786 306.753 225.788 305.751C226.79 304.749 227.353 303.39 227.353 301.974V209.897C227.353 209.65 227.438 209.41 227.595 209.219C227.752 209.028 227.97 208.896 228.213 208.848C228.455 208.799 228.707 208.836 228.925 208.952C229.144 209.068 229.315 209.257 229.41 209.485L268.194 302.386C268.804 303.846 269.831 305.093 271.148 305.97C272.465 306.848 274.012 307.316 275.594 307.316H299.232C300.648 307.316 302.007 306.753 303.009 305.751C304.01 304.749 304.573 303.39 304.573 301.974V285.134C304.573 283.717 305.136 282.358 306.138 281.357C307.14 280.355 308.498 279.792 309.915 279.792H326.761C328.178 279.792 329.536 279.229 330.538 278.227C331.54 277.225 332.103 275.867 332.103 274.45V171.426C332.103 170.009 331.54 168.651 330.538 167.649C329.536 166.647 328.178 166.084 326.761 166.084H299.258C297.841 166.084 296.483 166.647 295.481 167.649C294.479 168.651 293.916 170.009 293.916 171.426V263.502C293.916 263.75 293.831 263.99 293.674 264.181C293.517 264.373 293.299 264.504 293.056 264.552C292.814 264.601 292.562 264.564 292.343 264.448C292.125 264.332 291.953 264.143 291.858 263.915L253.062 171.014C252.452 169.554 251.425 168.307 250.108 167.43C248.791 166.552 247.244 166.085 245.662 166.085V166.086ZM748.809 166.086H772.08V166.085C773.662 166.085 775.208 166.552 776.525 167.43C777.842 168.307 778.87 169.554 779.48 171.014L818.275 263.915C818.371 264.143 818.542 264.332 818.761 264.448C818.979 264.564 819.231 264.601 819.474 264.552C819.716 264.504 819.934 264.373 820.091 264.181C820.248 263.99 820.334 263.75 820.334 263.502V171.426C820.334 170.009 820.897 168.651 821.898 167.649C822.9 166.647 824.259 166.084 825.675 166.084H853.179C854.595 166.084 855.954 166.647 856.956 167.649C857.957 168.651 858.52 170.009 858.52 171.426V274.45C858.52 275.867 857.957 277.225 856.956 278.227C855.954 279.229 854.595 279.792 853.179 279.792H836.332C834.916 279.792 833.557 280.355 832.555 281.357C831.554 282.358 830.991 283.717 830.991 285.134V301.974C830.991 303.39 830.428 304.749 829.426 305.751C828.424 306.753 827.066 307.316 825.649 307.316H802.011C800.429 307.316 798.882 306.848 797.565 305.97C796.249 305.093 795.221 303.846 794.612 302.386L755.828 209.485C755.733 209.257 755.561 209.068 755.343 208.952C755.124 208.836 754.873 208.799 754.63 208.848C754.388 208.896 754.169 209.028 754.013 209.219C753.856 209.41 753.77 209.65 753.77 209.897V301.974C753.77 303.39 753.207 304.749 752.206 305.751C751.204 306.753 749.845 307.316 748.429 307.316H721.282C719.866 307.316 718.507 306.753 717.505 305.751C716.504 304.749 715.941 303.39 715.941 301.974V198.95C715.941 197.533 716.504 196.175 717.505 195.173C718.507 194.171 719.866 193.608 721.282 193.608H738.126C739.543 193.608 740.901 193.045 741.903 192.043C742.905 191.042 743.468 189.683 743.468 188.266V171.429C743.468 170.012 744.031 168.653 745.032 167.651C746.034 166.649 747.393 166.086 748.809 166.086ZM88.4806 302.934L49.1142 246.332C48.6435 245.655 48.0161 245.102 47.2855 244.721C46.5549 244.339 45.7429 244.139 44.9186 244.139H43.0769C42.3685 244.139 41.6894 244.421 41.1885 244.922C40.6877 245.423 40.4061 246.102 40.4061 246.81V301.977C40.4061 303.394 39.8436 304.753 38.8418 305.755C37.8401 306.756 36.4812 307.319 35.0645 307.319H5.34255C3.92588 307.319 2.5673 306.756 1.56556 305.755C0.563825 304.753 0.000976562 303.394 0.000976562 301.977V171.431C0.000976562 170.015 0.563825 168.656 1.56556 167.654C2.5673 166.652 3.92588 166.089 5.34255 166.089H35.0645C36.4812 166.089 37.8401 166.652 38.8418 167.654C39.8436 168.656 40.4061 170.015 40.4061 171.431V218.231C40.4061 218.607 40.5243 218.974 40.7438 219.279C40.9634 219.585 41.2734 219.813 41.63 219.933C41.9866 220.053 42.372 220.058 42.7316 219.948C43.0912 219.837 43.4067 219.616 43.634 219.316L80.7721 170.346C81.7751 169.023 83.0708 167.95 84.5575 167.212C86.0442 166.474 87.6816 166.089 89.3416 166.089H125.758C126.252 166.089 126.736 166.227 127.156 166.487C127.576 166.748 127.915 167.12 128.134 167.562C128.354 168.005 128.446 168.499 128.399 168.991C128.353 169.483 128.17 169.952 127.872 170.345L87.8644 223.09C86.9261 224.327 86.4034 225.829 86.3715 227.381C86.3396 228.934 86.8 230.456 87.6867 231.731L137.222 302.934C137.513 303.353 137.684 303.843 137.717 304.352C137.749 304.861 137.641 305.369 137.405 305.821C137.169 306.272 136.813 306.651 136.377 306.915C135.941 307.179 135.441 307.319 134.931 307.319H96.8721C95.2234 307.319 93.5991 306.92 92.1379 306.157C90.6767 305.393 89.422 304.287 88.4806 302.934ZM336.722 230.554C337.577 216.492 341.884 201.617 350.865 189.096L350.871 189.1C352.59 186.703 355.678 183.036 357.785 180.973C361.941 176.904 366.73 173.457 372.055 170.557C374.645 169.146 378.999 167.144 381.779 166.159C388.205 163.882 395.31 162.564 403.049 162.14C405.994 161.979 410.782 161.964 413.727 162.125C422.341 162.596 430.295 164.284 437.596 167.14C440.342 168.215 444.656 170.299 447.219 171.758C453.611 175.396 459.248 179.863 463.718 185.424C465.565 187.723 468.119 191.78 469.572 194.348C474.009 202.188 476.34 209.026 477.376 218.035C477.714 220.965 475.437 223.357 472.487 223.357H442.973C440.022 223.357 437.495 220.924 436.539 218.141C436.117 216.913 435.608 215.812 435.05 214.788C433.641 212.198 430.735 208.333 428.443 206.486C424.232 203.093 419.006 201.26 413.774 200.55C410.853 200.154 406.04 200.156 403.126 200.6C398.014 201.378 393.268 203.282 389.379 206.241C387.036 208.024 383.887 211.697 382.419 214.251C379.537 219.264 378.073 225.145 377.538 231.191C377.278 234.129 377.251 238.924 377.502 241.862C377.995 247.649 379.436 253.639 382.529 258.893C384.024 261.432 387.177 265.1 389.531 266.869C393.84 270.106 398.952 271.802 404.046 272.484C406.968 272.876 411.778 272.917 414.696 272.497C425.922 270.884 434.039 263.915 437.994 254.681C439.155 251.972 442.08 249.621 445.03 249.621H474.625C477.575 249.621 479.709 252.001 479.185 254.904C477.722 262.999 475.077 270.996 471.641 277.506C470.265 280.114 467.601 284.102 465.751 286.399C461.277 291.955 455.836 296.719 449.494 300.628C446.983 302.176 442.726 304.378 440 305.503C432.437 308.625 423.991 310.401 414.726 310.887C411.78 311.037 406.993 311.037 404.047 310.887C395.759 310.465 388.219 309.034 381.498 306.53C378.735 305.5 374.42 303.415 371.864 301.942C366.415 298.803 361.592 295.064 357.45 290.762C355.405 288.637 352.404 284.9 350.728 282.473C342.655 270.785 337.691 256.434 336.735 241.231C336.545 238.287 336.543 233.498 336.722 230.554Z" fill="white" fill-opacity="0.03"/>
</svg>
