<svg width="321" height="322" viewBox="0 0 321 322" fill="none" xmlns="http://www.w3.org/2000/svg">
<path fill-rule="evenodd" clip-rule="evenodd" d="M155.451 27.875L155.976 0.692627L160.408 0.778213L161.152 0.792598L172.436 1.01052L172.349 5.47886L161.066 5.26092L160.937 11.9261L171.551 12.1312L171.464 16.5995L160.851 16.3945L160.713 23.5066L172.294 23.7303L172.207 28.1986L160.627 27.9749L159.882 27.9605L155.451 27.875ZM145.145 17.4028L146.842 28.559L152.071 27.7636L147.981 0.885498L142.753 1.68094L144.445 12.8004L132.037 14.6881L130.345 3.56873L125.117 4.36418L129.206 31.2423L134.434 30.4468L132.737 19.2906L145.145 17.4028ZM116.025 36.477C113.718 37.3248 111.587 37.645 109.633 37.4374C107.679 37.2298 105.937 36.6661 104.409 35.7464C102.904 34.8182 101.624 33.675 100.569 32.3167C99.5147 30.9584 98.7261 29.5685 98.2038 28.1469L97.921 27.3778C97.3386 25.7931 97.0098 24.1418 96.934 22.4238C96.8814 20.6973 97.1482 19.0121 97.7343 17.3682C98.3207 15.7244 99.2808 14.2341 100.615 12.8974C101.964 11.5288 103.745 10.4377 105.959 9.62412C108.266 8.77624 110.424 8.45919 112.434 8.67297C114.458 8.85487 116.261 9.51482 117.843 10.6528C119.417 11.7675 120.677 13.2884 121.623 15.2155L116.624 17.0526C116.01 15.9558 115.23 15.1312 114.286 14.5786C113.358 13.9942 112.331 13.6838 111.207 13.6473C110.074 13.5875 108.89 13.7846 107.655 14.2385C106.396 14.7009 105.359 15.3334 104.542 16.1359C103.718 16.9151 103.125 17.8208 102.764 18.853C102.402 19.8851 102.244 21.0015 102.288 22.2019C102.356 23.3939 102.629 24.6424 103.109 25.9474C103.572 27.2059 104.163 28.3112 104.883 29.2633C105.627 30.2069 106.486 30.9623 107.462 31.5296C108.429 32.0736 109.483 32.3871 110.625 32.4702C111.79 32.5447 113.025 32.3422 114.33 31.8626C116.241 31.1603 117.677 30.1033 118.64 28.6915C119.617 27.2478 119.933 25.624 119.587 23.8199L124.586 21.9829C125.021 23.8863 125.012 25.7796 124.558 27.6626C124.113 29.5457 123.183 31.2629 121.77 32.8141C120.356 34.3653 118.437 35.5863 116.013 36.477H116.025ZM65.0309 32.0591L79.5187 55.0647L83.6786 52.4449L71.5327 33.1581L71.9738 32.8802L93.7948 46.0742L101.169 41.4302L86.6815 18.4246L82.4583 21.084L94.6043 40.371L94.1948 40.6289L72.3738 27.4349L65.0309 32.0591ZM73.1571 61.0922L72.7228 60.5806L68.4837 65.1749L52.4069 63.8711L50.7905 65.6229L60.1243 74.2349L56.5379 78.1217L36.5565 59.6854L40.1429 55.7986L49.4804 64.4141L47.1637 48.1893L51.2804 43.7277L53.4234 58.8815L72.5848 60.418L55.562 40.3661L59.5938 36.9435L77.1885 57.6696L73.1571 61.0922ZM38.0259 110.009L13.5427 98.1875L15.47 94.1965L15.4699 94.1965L20.7003 83.3636L24.7248 85.3068L19.8183 95.4688L25.8219 98.3675L30.4367 88.809L34.4612 90.7522L29.8464 100.311L36.2521 103.404L41.2882 92.9731L45.3128 94.9163L39.9528 106.017L38.0259 110.009ZM28.3786 135.939L6.1322 120.336L8.54431 112.039L37.3126 110.474L35.7947 115.695L28.1653 116.056L24.8581 127.433L31.1279 131.752L30.0749 135.372L29.5061 141.073L19.828 146.541L19.8212 146.611L19.8168 146.656L19.34 151.437L28.3823 152.339L27.8572 157.601L0.618896 154.884L0.988668 151.178L1.144 149.622L1.62099 144.841C1.83776 142.667 2.34604 140.821 3.14613 139.304C3.94884 137.762 5.04789 136.624 6.44349 135.89C7.83908 135.156 9.52542 134.888 11.5021 135.085L12.0949 135.144C14.0959 135.344 15.6945 135.952 16.8906 136.97C18.0891 137.963 18.9308 139.282 19.4154 140.927C19.4362 140.998 19.4564 141.069 19.4759 141.141L28.3786 135.939ZM5.62794 150.069L15.0781 151.012L15.6105 145.675C15.7062 144.712 15.5911 143.864 15.2651 143.133C14.9413 142.377 14.441 141.766 13.764 141.299C13.0868 140.832 12.2913 140.553 11.3773 140.462C10.4384 140.368 9.59111 140.484 8.83532 140.807C8.07934 141.131 7.46765 141.632 7.00089 142.309C6.53657 142.961 6.25641 143.769 6.16031 144.732L5.62794 150.069ZM20.9803 124.762L23.4461 116.28L11.7661 116.834L11.3832 118.15L20.9803 124.762ZM179.734 1.43231L174.345 28.0802L179.163 29.0547L183.682 6.7143L184.193 6.81764L190.881 31.4245L199.423 33.152L204.813 6.50416L199.921 5.51489L195.403 27.8553L194.928 27.7593L188.24 3.15246L179.734 1.43231ZM219.301 41.3708L223.186 43.7278L223.822 44.1142L227.706 46.4711C229.807 47.7462 231.843 48.5313 233.813 48.8263C235.783 49.1213 237.623 49.0325 239.333 48.5598C241.043 48.0871 242.564 47.3261 243.898 46.2766C245.253 45.2401 246.356 44.0214 247.206 42.6204L247.631 41.9199C248.519 40.4552 249.11 38.8827 249.404 37.2022C249.733 35.5133 249.699 33.8227 249.303 32.1302C248.919 30.4165 248.129 28.7754 246.932 27.2067C245.735 25.638 244.085 24.2162 241.984 22.9411L238.099 20.5842L237.462 20.1978L233.578 17.8408L219.301 41.3708ZM230.544 42.4421L226.373 39.9112L235.549 24.7872L239.72 27.3179C240.93 28.052 241.899 28.8723 242.627 29.7786C243.376 30.6978 243.88 31.6861 244.139 32.7434C244.398 33.8007 244.414 34.8993 244.187 36.0394C243.994 37.1711 243.543 38.3207 242.835 39.4882C242.152 40.6132 241.347 41.5332 240.419 42.2483C239.526 42.9549 238.544 43.4483 237.474 43.7283C236.404 44.0083 235.275 44.0495 234.088 43.852C232.935 43.6462 231.754 43.1762 230.544 42.4421ZM258.958 34.5892L241.18 55.1587L244.533 58.0567L245.097 58.5438L253.86 66.1176L256.782 62.7364L248.019 55.1625L252.67 49.7808L260.701 56.7213L263.623 53.34L255.593 46.3993L259.952 41.3555L268.49 48.7346L271.412 45.3534L262.874 37.9743L262.311 37.4873L258.958 34.5892ZM260.665 74.9471C259.1 73.1161 258.07 71.3182 257.575 69.5535C257.095 67.8076 257.083 66.1689 257.538 64.6373C258.012 63.0895 258.9 61.7592 260.202 60.6463L263.565 64.5821C263.018 65.0499 262.609 65.6605 262.339 66.4142C262.087 67.1517 262.087 67.9878 262.339 68.9227C262.598 69.8765 263.196 70.9008 264.131 71.9956C264.97 72.9772 265.813 73.6774 266.661 74.0962C267.508 74.5149 268.296 74.6912 269.023 74.625C269.769 74.5427 270.435 74.2516 271.02 73.7516C271.756 73.1226 272.075 72.3111 271.977 71.3172C271.898 70.3072 271.359 69.1026 270.359 67.7033L268.952 65.7702C267.428 63.6429 266.687 61.5331 266.728 59.4407C266.805 57.351 267.721 55.5562 269.476 54.0562C270.797 52.9272 272.195 52.271 273.672 52.0875C275.167 51.8879 276.645 52.1272 278.106 52.8055C279.602 53.4865 280.996 54.582 282.286 56.0922C283.624 57.659 284.504 59.2425 284.924 60.8429C285.344 62.4432 285.32 63.9822 284.851 65.46C284.402 66.9216 283.507 68.225 282.167 69.3701L278.804 65.4343C279.37 64.9504 279.768 64.3653 279.999 63.679C280.264 62.9953 280.304 62.2589 280.12 61.4695C279.969 60.6829 279.54 59.8743 278.831 59.0437C278.153 58.2509 277.457 57.7031 276.741 57.4003C276.025 57.0976 275.327 57.0076 274.649 57.1304C273.97 57.2532 273.366 57.5404 272.838 57.992C272.196 58.5404 271.831 59.2602 271.744 60.1515C271.674 61.0266 272.038 62.0061 272.834 63.09L274.212 65.0473C275.357 66.6165 276.15 68.1757 276.592 69.7249C277.034 71.2741 277.079 72.7216 276.727 74.0676C276.391 75.4324 275.609 76.6391 274.383 77.6874C273.08 78.8003 271.638 79.4443 270.057 79.6196C268.495 79.7787 266.9 79.4597 265.272 78.6627C263.66 77.8846 262.128 76.646 260.677 74.9471L260.665 74.9471ZM291.442 69.1735L268.894 84.3639L271.849 88.7499L294.397 73.5596L291.442 69.1735ZM279.065 103.062C278.038 100.966 277.476 98.9467 277.379 97.0028C277.315 95.0702 277.607 93.268 278.253 91.5962C278.932 89.9357 279.881 88.4605 281.102 87.1706C282.355 85.892 283.795 84.8536 285.422 84.0553L286.158 83.6945C287.696 82.9399 289.332 82.4693 291.065 82.2826C292.799 82.0958 294.508 82.2254 296.193 82.6712C297.888 83.1393 299.453 83.9618 300.887 85.1386C302.355 86.3267 303.576 87.9127 304.549 89.8966C305.599 92.0366 306.127 94.1281 306.134 96.1713C306.162 98.2036 305.709 100.071 304.776 101.774C303.863 103.466 302.515 104.861 300.73 105.957L298.384 101.176C299.355 100.506 300.056 99.6786 300.485 98.6935C300.937 97.6976 301.128 96.622 301.059 95.4666C301.001 94.3336 300.693 93.1986 300.135 92.0618C299.578 90.9249 298.869 89.9868 298.008 89.2475C297.159 88.5304 296.207 88.029 295.155 87.7434C294.102 87.4579 292.976 87.3883 291.775 87.5346C290.586 87.7033 289.367 88.0938 288.119 88.7061C286.759 89.3732 285.637 90.1586 284.753 91.0625C283.869 91.9663 283.217 92.9496 282.798 94.0124C282.402 95.0643 282.244 96.1791 282.324 97.3567C282.425 98.5234 282.777 99.7197 283.379 100.946C284.177 102.573 285.211 103.836 286.481 104.734C287.253 105.263 288.038 105.639 288.837 105.86L291.563 104.522L288.184 97.6343L291.729 95.8956L298.257 109.203L294.712 110.942L293.712 108.902L289.231 111.1C287.135 110.829 285.198 110.009 283.421 108.641C281.665 107.262 280.214 105.402 279.065 103.062ZM312.441 109.824L286.051 116.362L287.234 121.134L309.358 115.653L309.483 116.159L290.109 132.738L292.204 141.197L318.594 134.659L317.394 129.815L295.27 135.296L295.154 134.826L314.528 118.247L312.441 109.824ZM293.403 162.681L320.673 165.058L320.35 168.768L320.214 170.326L319.797 175.112C319.607 177.289 319.122 179.141 318.341 180.668C317.557 182.22 316.473 183.371 315.087 184.123C313.7 184.874 312.017 185.164 310.038 184.991L309.445 184.939C307.441 184.765 305.835 184.176 304.627 183.173C303.416 182.196 302.558 180.887 302.053 179.248C302.031 179.178 302.01 179.107 301.99 179.035L293.153 184.348L315.595 199.667L313.288 207.994L284.542 209.924L285.993 204.684L293.618 204.226L296.781 192.807L290.459 188.569L291.463 184.943L291.961 179.228L301.57 173.64C301.573 173.602 301.577 173.563 301.58 173.524L301.997 168.738L292.944 167.949L293.403 162.681ZM300.692 195.429L298.334 203.942L310.006 203.241L310.372 201.919L300.692 195.429ZM306.264 169.11L315.725 169.935L315.259 175.278C315.175 176.242 314.905 177.054 314.449 177.712C313.99 178.395 313.386 178.903 312.634 179.236C311.882 179.569 311.036 179.695 310.096 179.613C309.181 179.533 308.382 179.264 307.699 178.806C307.016 178.347 306.508 177.742 306.175 176.991C305.84 176.263 305.714 175.418 305.798 174.453L306.264 169.11ZM283.836 210.398L308.466 221.909L306.589 225.924L306.274 226.599L301.496 236.822L297.448 234.93L302.225 224.706L296.186 221.884L291.692 231.5L287.643 229.608L292.137 219.992L285.692 216.98L280.788 227.473L276.74 225.581L281.643 215.088L281.959 214.413L283.836 210.398ZM270.036 256.713L253.944 255.611L249.763 260.258L249.322 259.752L245.334 263.225L263.189 283.728L267.177 280.255L249.903 260.419L269.082 261.715L271.415 276.841L275.475 272.328L272.955 256.133L282.4 264.631L285.938 260.699L265.726 242.515L262.189 246.447L271.63 254.941L270.036 256.713ZM257.815 288.679L243.037 265.859L238.911 268.531L251.3 287.663L250.863 287.946L228.877 275.029L221.562 279.766L236.34 302.587L240.529 299.874L228.139 280.742L228.545 280.479L250.531 293.396L257.815 288.679ZM206.77 284.909C209.066 284.032 211.192 283.685 213.149 283.867C215.106 284.05 216.854 284.591 218.394 285.491C219.911 286.4 221.206 287.527 222.278 288.872C223.349 290.216 224.155 291.596 224.696 293.011L224.989 293.776C225.591 295.353 225.941 297 226.039 298.717C226.114 300.443 225.869 302.131 225.303 303.783C224.738 305.434 223.797 306.936 222.48 308.29C221.149 309.676 219.382 310.789 217.178 311.631C214.882 312.508 212.728 312.853 210.716 312.665C208.69 312.509 206.878 311.872 205.281 310.754C203.694 309.66 202.415 308.155 201.444 306.24L206.419 304.34C207.048 305.428 207.837 306.243 208.788 306.783C209.724 307.356 210.755 307.653 211.88 307.675C213.013 307.721 214.194 307.508 215.424 307.039C216.676 306.56 217.705 305.915 218.511 305.102C219.326 304.312 219.907 303.399 220.255 302.362C220.603 301.326 220.748 300.207 220.688 299.007C220.605 297.816 220.316 296.572 219.819 295.273C219.34 294.02 218.735 292.923 218.003 291.98C217.247 291.046 216.378 290.301 215.396 289.747C214.422 289.215 213.363 288.915 212.221 288.847C211.055 288.787 209.823 289.005 208.524 289.501C206.622 290.228 205.199 291.303 204.255 292.727C203.296 294.183 203.001 295.811 203.37 297.611L198.395 299.511C197.935 297.614 197.917 295.721 198.338 293.832C198.759 291.943 199.667 290.214 201.061 288.645C202.455 287.076 204.358 285.831 206.77 284.909H206.77ZM177.895 304.354L176.056 293.22L170.838 294.082L175.269 320.906L180.487 320.044L178.654 308.947L191.037 306.901L192.87 317.998L198.088 317.137L193.657 290.313L188.439 291.174L190.278 302.308L177.895 304.354ZM167.456 294.012L167.273 321.199L162.839 321.169L162.097 321.164L150.809 321.088L150.84 316.618L162.127 316.695L162.172 310.028L151.556 309.957L151.587 305.488L162.202 305.559L162.25 298.446L150.666 298.368L150.697 293.899L162.28 293.977L163.025 293.982L167.456 294.012ZM143.512 320.758L148.562 294.044L143.731 293.131L139.498 315.527L138.986 315.43L131.984 290.911L123.421 289.292L118.372 316.007L123.275 316.934L127.509 294.537L127.984 294.627L134.986 319.147L143.512 320.758ZM103.439 281.329L99.525 279.021L98.8837 278.643L94.9705 276.336C92.8531 275.087 90.8079 274.328 88.8343 274.058C86.8606 273.788 85.0217 273.9 83.3179 274.394C81.6143 274.889 80.1024 275.669 78.782 276.735C77.4403 277.789 76.3533 279.022 75.5211 280.433L75.1053 281.139C74.2352 282.615 73.6638 284.195 73.3915 285.879C73.0846 287.572 73.1399 289.262 73.5575 290.949C73.9623 292.658 74.7734 294.289 75.9905 295.842C77.2076 297.396 78.875 298.796 80.9924 300.045L84.9059 302.352L85.5482 302.73L89.4618 305.038L103.439 281.329ZM96.3869 282.878L92.1839 280.4C90.9647 279.682 89.7776 279.227 88.6222 279.035C87.4327 278.853 86.3045 278.908 85.2379 279.202C84.1715 279.496 83.1959 280.001 82.3114 280.719C81.393 281.446 80.5999 282.376 79.9316 283.51C79.2381 284.686 78.8019 285.841 78.6233 286.975C78.4106 288.118 78.4406 289.217 78.7133 290.271C78.9854 291.324 79.5018 292.306 80.2625 293.216C81.0018 294.113 81.9812 294.921 83.2004 295.64L87.4027 298.117L96.3869 282.878ZM63.87 288.611L81.3877 267.819L77.9983 264.964L77.4288 264.484L68.5712 257.021L65.6913 260.438L74.5492 267.901L69.9658 273.341L61.8486 266.502L58.9691 269.92L67.0862 276.759L62.7907 281.857L54.1607 274.586L51.2812 278.004L59.9111 285.275L60.4809 285.755L63.87 288.611ZM61.6559 248.277C63.2431 250.088 64.2954 251.873 64.813 253.631C65.3141 255.371 65.3471 257.01 64.9117 258.547C64.4573 260.1 63.5859 261.442 62.2975 262.571L58.8857 258.678C59.4272 258.203 59.8284 257.587 60.0895 256.83C60.3318 256.09 60.3224 255.253 60.0613 254.322C59.7898 253.371 59.1794 252.355 58.2303 251.272C57.3794 250.301 56.5274 249.611 55.6746 249.203C54.8218 248.795 54.032 248.628 53.3054 248.704C52.5605 248.795 51.899 249.095 51.3202 249.602C50.5918 250.24 50.2828 251.056 50.3933 252.048C50.4853 253.057 51.0399 254.255 52.0569 255.642L53.4879 257.557C55.0382 259.665 55.8056 261.765 55.7907 263.858C55.742 265.949 54.8488 267.755 53.1113 269.277C51.8043 270.422 50.414 271.096 48.9404 271.298C47.4479 271.516 45.9668 271.296 44.4973 270.636C42.9924 269.974 41.5856 268.895 40.2765 267.402C38.9183 265.852 38.0191 264.279 37.5788 262.685C37.1385 261.09 37.1479 259.55 37.607 258.067C38.0379 256.6 38.916 255.285 40.2418 254.123L43.6536 258.017C43.0935 258.508 42.7028 259.098 42.4814 259.787C42.225 260.474 42.1942 261.211 42.3886 261.998C42.5481 262.782 42.9879 263.585 43.7079 264.407C44.3952 265.191 45.0985 265.73 45.8183 266.024C46.5378 266.318 47.2364 266.399 47.9135 266.268C48.5909 266.136 49.1907 265.841 49.7136 265.383C50.3483 264.827 50.7039 264.103 50.7803 263.21C50.8385 262.334 50.4629 261.359 49.6534 260.286L48.2506 258.346C47.0863 256.791 46.2734 255.242 45.8121 253.698C45.3508 252.155 45.2878 250.708 45.6234 249.358C45.9423 247.989 46.7087 246.773 47.9225 245.709C49.2109 244.58 50.6445 243.918 52.2233 243.723C53.7835 243.544 55.3825 243.843 57.0203 244.619C58.6419 245.377 60.189 246.596 61.6617 248.277L61.6559 248.277ZM30.9535 254.437L53.3085 238.965L50.2988 234.616L27.9438 250.089L30.9535 254.437ZM42.9032 220.396C43.9574 222.478 44.545 224.491 44.6658 226.433C44.754 228.365 44.4855 230.171 43.8603 231.85C43.2025 233.519 42.2716 235.006 41.0678 236.312C39.8308 237.606 38.4039 238.662 36.7869 239.481L36.0559 239.851C34.5275 240.625 32.8976 241.116 31.1664 241.325C29.4353 241.534 27.7249 241.426 26.035 241.001C24.3338 240.555 22.7585 239.752 21.3091 238.593C19.8264 237.424 18.5859 235.853 17.5876 233.882C16.5109 231.755 15.9561 229.671 15.9237 227.628C15.8692 225.596 16.2986 223.723 17.2113 222.008C18.1023 220.305 19.4329 218.893 21.2039 217.774L23.6095 222.526C22.6469 223.208 21.9572 224.044 21.5403 225.034C21.1012 226.036 20.9236 227.114 21.0073 228.268C21.0805 229.401 21.4026 230.532 21.9737 231.661C22.5455 232.791 23.2664 233.72 24.1363 234.448C24.9948 235.155 25.9523 235.644 27.0086 235.916C28.0648 236.189 29.1921 236.244 30.3905 236.082C31.5777 235.899 32.7914 235.493 34.0318 234.865C35.3831 234.181 36.4951 233.381 37.3677 232.466C38.2404 231.551 38.8792 230.56 39.2846 229.492C39.6678 228.435 39.8123 227.318 39.7176 226.142C39.6012 224.976 39.234 223.785 38.6165 222.566C37.7978 220.949 36.7481 219.7 35.4666 218.818C34.688 218.298 33.8983 217.932 33.0974 217.722L30.3879 219.094L33.8535 225.938L30.3313 227.722L23.6359 214.497L27.1577 212.714L28.1839 214.741L32.6362 212.486C34.7362 212.731 36.6836 213.526 38.478 214.872C40.2505 216.229 41.7255 218.07 42.9032 220.396ZM9.44365 214.056L35.7483 207.185L34.5056 202.429L12.4531 208.189L12.3214 207.685L31.4846 190.862L29.2817 182.43L2.97711 189.301L4.23832 194.129L26.291 188.369L26.4133 188.837L7.2501 205.66L9.44365 214.056Z" fill="black"/>
<path fill-rule="evenodd" clip-rule="evenodd" d="M152.444 86.1614C153.477 86.6392 154.741 86.8781 156.235 86.8781C157.623 86.8781 158.825 86.6546 159.842 86.2076C160.875 85.7606 161.668 85.1364 162.223 84.3349C162.778 83.5181 163.056 82.5779 163.056 81.5144C163.056 80.5126 162.801 79.6572 162.293 78.9482C161.799 78.2392 161.098 77.6766 160.189 77.2605C159.28 76.8444 158.224 76.59 157.022 76.4975L155.542 76.3587C154.71 76.2971 154.101 76.0736 153.715 75.6883C153.33 75.2875 153.137 74.8251 153.137 74.3011C153.137 73.8696 153.245 73.4688 153.461 73.0989C153.677 72.729 154.001 72.4361 154.432 72.2204C154.864 72.0046 155.403 71.8967 156.05 71.8967C156.728 71.8967 157.283 72.02 157.715 72.2666C158.162 72.4978 158.494 72.8138 158.709 73.2145C158.94 73.5998 159.056 74.0237 159.056 74.4861H162.269C162.269 73.3918 162.015 72.4438 161.506 71.6423C160.998 70.8255 160.281 70.1936 159.356 69.7467C158.432 69.2997 157.33 69.0761 156.05 69.0761C154.817 69.0761 153.739 69.2919 152.814 69.7235C151.904 70.1396 151.195 70.7407 150.687 71.5268C150.178 72.2974 149.924 73.2222 149.924 74.3011C149.924 75.7345 150.402 76.8905 151.357 77.769C152.328 78.6322 153.623 79.133 155.241 79.2717L156.721 79.3874C157.784 79.4799 158.57 79.7111 159.079 80.081C159.588 80.4355 159.842 80.9133 159.842 81.5144C159.842 81.9922 159.711 82.4237 159.449 82.809C159.187 83.179 158.786 83.4795 158.247 83.7107C157.707 83.9419 157.037 84.0575 156.235 84.0575C155.342 84.0575 154.617 83.9265 154.062 83.6645C153.523 83.4025 153.13 83.0634 152.883 82.6473C152.636 82.2157 152.513 81.7764 152.513 81.3294H149.3C149.3 82.3929 149.569 83.3486 150.109 84.1963C150.648 85.0286 151.427 85.6836 152.444 86.1614ZM136.838 69.5617V86.4387H139.589H140.052H147.242V83.6644H140.052V79.2486H146.64V76.4743H140.052V72.336H147.057V69.5617H140.052H139.589H136.838ZM168.928 86.4387V72.4516H164.05V69.5617H177.089V72.4516H172.211V86.4387H168.928ZM177.135 82.7397V86.4388H180.742V82.7397H177.135Z" fill="black"/>
<path fill-rule="evenodd" clip-rule="evenodd" d="M151.022 253.132C151.947 253.564 153.072 253.78 154.397 253.78C155.708 253.78 156.825 253.564 157.75 253.132C158.675 252.685 159.422 252.084 159.992 251.329C160.578 250.558 161.002 249.68 161.264 248.693C161.541 247.691 161.68 246.643 161.68 245.549V244.254C161.68 242.698 161.418 241.295 160.894 240.047C160.386 238.798 159.592 237.812 158.513 237.087C157.434 236.348 156.062 235.978 154.397 235.978C152.717 235.978 151.338 236.348 150.259 237.087C149.18 237.812 148.379 238.798 147.855 240.047C147.331 241.295 147.069 242.698 147.069 244.254V245.549C147.069 246.643 147.2 247.691 147.462 248.693C147.739 249.68 148.171 250.558 148.757 251.329C149.342 252.084 150.097 252.685 151.022 253.132ZM157.426 249.364C156.779 250.304 155.769 250.774 154.397 250.774C153.026 250.774 152.009 250.296 151.346 249.341C150.683 248.385 150.352 246.898 150.352 244.879C150.352 242.782 150.683 241.28 151.346 240.37C152.024 239.446 153.041 238.983 154.397 238.983C155.738 238.983 156.74 239.446 157.403 240.37C158.066 241.28 158.397 242.798 158.397 244.925C158.397 246.928 158.074 248.408 157.426 249.364ZM132.642 250.104V253.34H144.433V250.543H135.856V249.919C135.856 249.487 135.964 249.148 136.18 248.901C136.395 248.639 136.773 248.393 137.312 248.162L140.179 246.89C141.551 246.273 142.591 245.549 143.3 244.717C144.009 243.869 144.364 242.813 144.364 241.55V241.249C144.364 240.278 144.14 239.399 143.693 238.613C143.246 237.812 142.583 237.172 141.705 236.694C140.826 236.217 139.725 235.978 138.399 235.978C137.074 235.978 135.971 236.224 135.093 236.718C134.214 237.195 133.552 237.858 133.105 238.706C132.658 239.538 132.434 240.478 132.434 241.526H135.602C135.602 240.648 135.841 239.962 136.318 239.469C136.812 238.976 137.505 238.729 138.399 238.729C139.293 238.729 139.979 238.976 140.457 239.469C140.95 239.947 141.197 240.594 141.197 241.411C141.197 242.151 141.004 242.759 140.618 243.237C140.248 243.7 139.709 244.093 139 244.416L136.134 245.688C135.286 246.058 134.6 246.451 134.076 246.867C133.567 247.268 133.197 247.73 132.966 248.254C132.75 248.778 132.642 249.395 132.642 250.104ZM164.616 253.34V250.104C164.616 249.395 164.724 248.778 164.94 248.254C165.171 247.73 165.541 247.268 166.05 246.867C166.574 246.451 167.259 246.058 168.107 245.688L170.974 244.416C171.683 244.093 172.223 243.7 172.593 243.237C172.978 242.759 173.171 242.151 173.171 241.411C173.171 240.594 172.924 239.947 172.431 239.469C171.953 238.976 171.267 238.729 170.373 238.729C169.479 238.729 168.785 238.976 168.292 239.469C167.814 239.962 167.576 240.648 167.576 241.526H164.408C164.408 240.478 164.632 239.538 165.079 238.706C165.526 237.858 166.188 237.195 167.067 236.718C167.945 236.224 169.048 235.978 170.373 235.978C171.698 235.978 172.801 236.217 173.679 236.694C174.558 237.172 175.22 237.812 175.667 238.613C176.114 239.399 176.338 240.278 176.338 241.249V241.549C176.338 242.813 175.983 243.869 175.274 244.717C174.565 245.549 173.525 246.273 172.153 246.89L169.286 248.162C168.747 248.393 168.369 248.639 168.154 248.901C167.938 249.148 167.83 249.487 167.83 249.919V250.543H176.407V253.34H164.616ZM181.886 239.284V253.34H185.146V236.463H178.441V239.284H181.886Z" fill="black"/>
<path fill-rule="evenodd" clip-rule="evenodd" d="M85.9523 116.693H153.953V164.455H133.62V177.836H153.953V205.218H126.62V184.836H113.285V205.218H85.9523V184.836H65.6189V157.455H85.9523V116.693ZM126.62 177.836V164.455H106.285V137.074H133.62V157.455H146.953V123.693H92.9523V164.455H72.6189V177.836H92.9523V198.218H106.285V177.836H126.62ZM126.62 157.455V144.074H113.285V157.455H126.62ZM133.62 184.836V198.218H146.953V184.836H133.62ZM167.285 116.693H194.619V157.455H207.952V116.693H235.284V164.455H214.952V177.836H255.619V205.218H207.952V184.836H194.619V205.218H167.285V116.693ZM207.952 177.836V164.455H187.619V123.693H174.285V198.218H187.619V177.836H207.952ZM214.952 184.836V198.218H248.619V184.836H214.952ZM214.952 157.455H228.284V123.693H214.952V157.455Z" fill="black"/>
</svg>
