<svg width="331" height="300" viewBox="0 0 331 300" fill="none" xmlns="http://www.w3.org/2000/svg">
<path fill-rule="evenodd" clip-rule="evenodd" d="M86.2518 33.8381C82.6804 26.054 71.6196 26.054 68.0482 33.8381L67.824 34.3267C65.1378 40.1813 57.7028 42.0139 52.6036 38.0782L52.178 37.7497C45.3982 32.517 35.6044 37.6572 36.0595 46.2094L36.088 46.7463C36.4303 53.1786 30.6986 58.2564 24.3545 57.1413L23.8249 57.0482C15.3899 55.5656 9.10672 64.6684 13.4841 72.0295L13.7589 72.4916C17.0512 78.0281 14.3358 85.188 8.20015 87.1488L7.688 87.3125C3.27117 88.7241 0.854899 92.5901 0.72572 96.5506C0.554725 101.793 6.5896 103.946 11.8349 103.946H142.465C147.71 103.946 153.745 101.793 153.574 96.5505C153.445 92.5901 151.029 88.7241 146.612 87.3125L146.1 87.1488C139.964 85.188 137.249 78.0281 140.541 72.4916L140.816 72.0295C145.193 64.6684 138.91 55.5656 130.475 57.0482L129.946 57.1413C123.601 58.2564 117.87 53.1786 118.212 46.7463L118.241 46.2094C118.696 37.6572 108.902 32.517 102.122 37.7497L101.696 38.0782C96.5972 42.0139 89.1622 40.1813 86.476 34.3267L86.2518 33.8381Z" fill="#F0DAF3"/>
<path fill-rule="evenodd" clip-rule="evenodd" d="M240.239 166.862C235.429 156.379 220.535 156.379 215.726 166.862L215.424 167.52C211.807 175.403 201.795 177.871 194.928 172.571L194.355 172.129C185.225 165.083 172.037 172.004 172.65 183.521L172.688 184.244C173.149 192.905 165.431 199.743 156.888 198.242L156.175 198.116C144.816 196.12 136.355 208.378 142.25 218.29L142.62 218.912C147.053 226.368 143.397 236.009 135.134 238.65L134.445 238.87C127.445 241.107 124.176 247.922 125.268 254.135C126.176 259.301 131.947 261.269 137.192 261.269H318.772C324.017 261.269 329.788 259.301 330.696 254.135C331.788 247.922 328.519 241.107 321.52 238.87L320.83 238.65C312.568 236.009 308.911 226.368 313.344 218.912L313.715 218.29C319.609 208.378 311.148 196.12 299.79 198.116L299.077 198.242C290.534 199.743 282.815 192.905 283.276 184.244L283.315 183.521C283.927 172.004 270.739 165.083 261.609 172.129L261.036 172.571C254.17 177.871 244.158 175.403 240.541 167.52L240.239 166.862Z" fill="#F0DAF3"/>
<path fill-rule="evenodd" clip-rule="evenodd" d="M306.246 194.638L304.337 194.043C308.667 180.133 311 165.341 311 150C311 134.659 308.667 119.867 304.337 105.957L306.246 105.362C310.635 119.462 313 134.455 313 150C313 165.545 310.635 180.538 306.246 194.638ZM295.845 80.2777L294.075 81.2086C280.117 54.6677 258.332 32.8831 231.791 18.9246L232.722 17.1545C259.621 31.3013 281.699 53.3786 295.845 80.2777ZM207.638 6.75381L207.043 8.66343C193.133 4.33347 178.341 2 163 2C147.659 2 132.867 4.33347 118.957 8.66343L118.362 6.75381C132.462 2.36463 147.455 0 163 0C178.545 0 193.538 2.36463 207.638 6.75381ZM93.2777 17.1545L94.2086 18.9246C67.6677 32.883 45.8831 54.6677 31.9246 81.2086L30.1545 80.2777C44.3013 53.3786 66.3786 31.3013 93.2777 17.1545ZM19.7538 105.362C15.3646 119.462 13 134.455 13 150C13 165.545 15.3646 180.538 19.7538 194.638L21.6634 194.043C17.3335 180.133 15 165.341 15 150C15 134.659 17.3335 119.867 21.6634 105.957L19.7538 105.362ZM30.1545 219.722L31.9246 218.791C45.883 245.332 67.6677 267.117 94.2086 281.075L93.2777 282.845C66.3786 268.699 44.3013 246.621 30.1545 219.722ZM118.362 293.246L118.957 291.337C132.867 295.667 147.659 298 163 298C178.341 298 193.133 295.667 207.043 291.337L207.638 293.246C193.538 297.635 178.545 300 163 300C147.455 300 132.462 297.635 118.362 293.246ZM232.722 282.845L231.791 281.075C258.332 267.117 280.117 245.332 294.075 218.791L295.845 219.722C281.699 246.621 259.621 268.699 232.722 282.845Z" fill="#12151F"/>
<path fill-rule="evenodd" clip-rule="evenodd" d="M267.704 158.93L265.712 158.759C267.448 138.615 263.29 117.756 252.499 98.8686C241.708 79.9807 225.852 65.8058 207.617 57.0711L208.481 55.2674C227.071 64.172 243.237 78.6245 254.235 97.8765C265.234 117.128 269.474 138.394 267.704 158.93ZM171.931 45.2954L171.759 47.288C151.615 45.5518 130.757 49.7102 111.869 60.5009C92.9809 71.2916 78.8059 87.1479 70.0713 105.383L68.2675 104.519C77.1721 85.9291 91.6247 69.7631 110.877 58.7643C130.129 47.7656 151.394 43.5255 171.931 45.2954ZM58.2955 141.069C56.5256 161.605 60.7657 182.871 71.7645 202.123C82.7632 221.375 98.9293 235.828 117.519 244.732L118.383 242.929C100.148 234.194 84.2918 220.019 73.5011 201.131C62.7103 182.243 58.552 161.385 60.2881 141.241L58.2955 141.069ZM154.069 254.704L154.241 252.712C174.385 254.448 195.243 250.289 214.131 239.499C233.019 228.708 247.194 212.852 255.929 194.617L257.732 195.481C248.828 214.071 234.375 230.237 215.123 241.235C195.871 252.234 174.606 256.474 154.069 254.704Z" fill="#12151F"/>
<path fill-rule="evenodd" clip-rule="evenodd" d="M157.355 17.0383L157.467 28.7978L159.739 28.7751L159.702 24.8731L161.764 24.8561L161.818 24.8554L164.603 28.7297L167.259 28.706L164.106 24.4518C164.135 24.4404 164.164 24.4288 164.192 24.4169C164.872 24.1331 165.396 23.7121 165.764 23.1539C166.142 22.5956 166.327 21.8845 166.32 21.0205L166.317 20.7646C166.309 19.9113 166.116 19.2038 165.737 18.6421C165.359 18.0803 164.821 17.6641 164.125 17.3934C163.44 17.1214 162.628 16.9905 161.689 17.0005L159.627 17.0205L159.627 17.0156L157.355 17.0383ZM159.646 18.9561L159.684 23.0327L161.987 23.0122C162.403 23.0072 162.759 22.9185 163.056 22.7462C163.364 22.5726 163.602 22.3303 163.77 22.0193C163.937 21.7084 164.019 21.3556 164.016 20.9609C164.01 20.5556 163.922 20.1991 163.749 19.8914C163.576 19.5837 163.334 19.346 163.023 19.1783C162.722 19.0105 162.364 18.9287 161.948 18.9327L159.646 18.9561ZM149.655 29.7773C148.658 29.8882 147.76 29.8217 146.96 29.5778C146.17 29.3222 145.483 28.9424 144.902 28.4382C144.329 27.9224 143.871 27.324 143.527 26.6432C143.192 25.9506 142.982 25.2174 142.896 24.4435L142.857 24.0935C142.775 23.362 142.823 22.6323 143 21.9043C143.176 21.1763 143.477 20.5043 143.902 19.8882C144.338 19.2709 144.898 18.7579 145.583 18.349C146.276 17.9285 147.095 17.6657 148.039 17.5608C149.056 17.4477 149.979 17.5382 150.805 17.8325C151.631 18.1164 152.32 18.571 152.873 19.1964C153.424 19.8112 153.792 20.5592 153.976 21.4403L151.702 21.6931C151.572 21.2031 151.339 20.7997 151.004 20.4829C150.667 20.1554 150.26 19.9217 149.783 19.7815C149.316 19.6402 148.813 19.5996 148.272 19.6598C147.731 19.72 147.249 19.8702 146.825 20.1105C146.411 20.3496 146.07 20.6612 145.802 21.0453C145.533 21.4293 145.341 21.8746 145.226 22.3812C145.121 22.8865 145.102 23.436 145.168 24.0296C145.24 24.6763 145.394 25.2441 145.631 25.7329C145.868 26.2217 146.17 26.6281 146.539 26.952C146.907 27.2653 147.334 27.4914 147.822 27.6304C148.309 27.7586 148.843 27.7904 149.426 27.7256C150.2 27.6394 150.861 27.405 151.409 27.0222C151.735 26.7872 152.001 26.5245 152.206 26.2341L152.062 24.9375L148.787 25.3018L148.599 23.6162L154.928 22.9124L155.116 24.598L154.145 24.7059L154.382 26.8364C153.968 27.6445 153.355 28.3083 152.543 28.8279C151.73 29.3368 150.767 29.6532 149.654 29.777L149.655 29.7773ZM126.431 31.6547L127.159 34.1088L129.552 33.3985L128.823 30.9443L126.431 31.6547ZM123.07 35.449L122.254 33.0224L124.62 32.2271L125.436 34.6536L123.07 35.449ZM95.8897 48.7908L89.8833 38.7737L93.0805 36.8565L102.329 42.7285L102.507 42.6215L97.4717 34.2236L99.3104 33.1211L105.317 43.1383L102.106 45.0637L92.8577 39.1917L92.6655 39.3069L97.7011 47.7048L95.8897 48.7908ZM81.2528 45.0417L88.1941 54.4354L89.7254 53.3038L89.9827 53.1136L93.9847 50.1564L92.8436 48.6123L88.8417 51.5695L87.0256 49.1117L90.693 46.4017L89.5519 44.8576L85.8845 47.5675L84.1825 45.2642L88.0815 42.383L86.9404 40.8389L83.0414 43.72L82.7841 43.9101L81.2528 45.0417ZM84.2117 57.7077L80.986 54.0885L76.9607 57.6762L80.1864 61.2953L78.4903 62.807L70.7189 54.0877L72.415 52.576L75.63 56.1832L79.6553 52.5955L76.4403 48.9883L78.1363 47.4766L85.9078 56.1959L84.2117 57.7077ZM71.2972 70.112C72.083 69.8029 72.831 69.2578 73.5415 68.4766L73.5417 68.4765C74.2881 67.6558 74.7766 66.8095 75.0072 65.9378C75.2377 65.0661 75.2507 64.2273 75.0464 63.4215C74.8421 62.6157 74.4681 61.8934 73.9243 61.2547L72.3849 62.9473C72.8747 63.5659 73.0769 64.2474 72.9914 64.9914C72.9052 65.7204 72.5678 66.4083 71.9793 67.0554C71.5774 67.4971 71.1472 67.8196 70.6886 68.0227C70.2373 68.2177 69.7733 68.3076 69.2969 68.2925C68.8126 68.2701 68.3351 68.1531 67.8645 67.9414C67.401 67.7217 66.9562 67.4182 66.5301 67.0307C66.0882 66.6288 65.736 66.2075 65.4735 65.7669C65.2181 65.3184 65.0568 64.8616 64.9895 64.3966C64.922 63.9316 64.9679 63.4688 65.1274 63.0082C65.2789 62.5404 65.5485 62.0935 65.9361 61.6674C66.3165 61.2492 66.7284 60.939 67.1719 60.7367C67.6074 60.5273 68.0602 60.4417 68.5301 60.4797C68.9994 60.5028 69.46 60.6622 69.9119 60.9579L71.4514 59.2653C70.7082 58.7191 69.9262 58.3898 69.1053 58.2777C68.2766 58.1584 67.4587 58.2651 66.6514 58.5979C65.8434 58.9156 65.0842 59.465 64.3737 60.2463C63.6918 60.9959 63.2298 61.7653 62.9879 62.5545C62.7453 63.3286 62.6754 64.0871 62.7785 64.8297C62.8816 65.5724 63.1148 66.2674 63.4777 66.9146C63.8478 67.554 64.3011 68.1177 64.8377 68.6058L65.0981 68.8427C65.5795 69.2805 66.1559 69.6534 66.8275 69.9614C67.499 70.2694 68.2135 70.4507 68.9712 70.5053C69.7361 70.5522 70.5115 70.4211 71.2972 70.112ZM61.4619 83.277L52.0159 76.4072L54.2086 73.3922L65.0169 75.1791L65.1392 75.0108L57.2201 69.2515L58.4811 67.5176L67.9271 74.3873L65.725 77.4153L54.9167 75.6284L54.7852 75.8094L62.7045 81.569L61.4619 83.277ZM48.8395 81.623L58.7949 87.7314L59.983 85.7949L50.0277 79.6865L48.8395 81.623ZM56.7049 91.2743L49.8917 92.5387L49.4181 93.4465L54.2555 95.9699L53.2048 97.9843L42.849 92.5825L43.8998 90.568L48.7392 93.0924L45.9569 86.6243L47.1631 84.312L49.7531 90.3554L57.985 88.8202L56.7049 91.2743ZM34.3687 115.528L45.5681 118.844L46.1086 117.018L46.1995 116.711L47.612 111.94L45.7709 111.395L44.3585 116.166L41.4281 115.299L42.7225 110.926L40.8816 110.381L39.5871 114.754L36.841 113.941L38.2172 109.292L36.3761 108.747L34.9999 113.396L34.909 113.702L34.3687 115.528ZM42.7306 132.063L32.0564 125.87L32.7831 122.23L45.0389 120.5L44.5816 122.79L41.3295 123.226L40.333 128.218L43.1755 129.835L42.7306 132.063ZM34.3388 124.163L39.3177 123.496L38.5748 127.217L34.2234 124.741L34.3388 124.163ZM30 141.233L41.7029 142.39L41.9266 140.129L38.0415 139.745L38.2444 137.692L38.2493 137.641L42.4052 135.289L42.6664 132.646L38.0955 135.322C38.0872 135.291 38.0786 135.261 38.0698 135.231C37.861 134.524 37.499 133.958 36.9837 133.532C36.4695 133.095 35.7825 132.835 34.9227 132.749L34.668 132.723C33.8188 132.639 33.0945 132.755 32.4952 133.071C31.8959 133.387 31.4242 133.876 31.0799 134.538C30.7369 135.191 30.5191 135.984 30.4267 136.918L30.2238 138.972L30.1576 139.641L30 141.233ZM32.1503 139.162L36.2104 139.564L36.4372 137.271C36.4783 136.857 36.4285 136.493 36.2879 136.179C36.1485 135.854 35.9333 135.592 35.6422 135.392C35.3512 135.191 35.0093 135.072 34.6166 135.033C34.2132 134.993 33.8493 135.043 33.5246 135.182C33.2 135.322 32.9374 135.537 32.7372 135.828C32.5379 136.108 32.4179 136.455 32.3771 136.869L32.1503 139.162ZM41.9117 159.911L39.3578 160.087L39.1858 157.597L41.7397 157.42L41.9117 159.911ZM295.799 160.849L284.112 159.541L283.86 161.798L287.739 162.233L287.51 164.282L287.505 164.333L283.318 166.632L283.023 169.272L287.629 166.655L287.635 166.677C287.641 166.7 287.647 166.723 287.653 166.745C287.853 167.455 288.207 168.026 288.717 168.458C289.226 168.902 289.909 169.171 290.768 169.268L291.022 169.298C291.87 169.393 292.596 169.286 293.199 168.978C293.803 168.67 294.281 168.187 294.633 167.529C294.985 166.881 295.213 166.091 295.317 165.158L295.547 163.107L295.622 162.439L295.799 160.849ZM293.623 162.891L289.568 162.438L289.312 164.727C289.265 165.141 289.31 165.505 289.447 165.821C289.582 166.148 289.794 166.413 290.082 166.617C290.371 166.821 290.711 166.945 291.103 166.989C291.506 167.034 291.871 166.989 292.197 166.853C292.524 166.718 292.789 166.506 292.993 166.218C293.196 165.94 293.32 165.595 293.367 165.181L293.623 162.891ZM293.544 176.185L282.951 169.853L282.478 172.075L285.299 173.729L284.237 178.708L280.98 179.101L280.492 181.386L292.77 179.815L293.544 176.185ZM286.252 178.464L291.239 177.862L291.362 177.285L287.044 174.753L286.252 178.464ZM279.942 183.034L291.097 186.496L290.533 188.314L290.438 188.62L289.001 193.25L287.167 192.681L288.604 188.051L285.869 187.202L284.517 191.557L282.683 190.988L284.035 186.633L281.116 185.727L279.641 190.48L277.808 189.911L279.283 185.158L279.377 184.853L279.942 183.034ZM275.275 209.28L268.446 210.456L267.134 212.893L275.386 211.465L277.897 217.542L279.133 215.245L276.435 208.741L281.241 211.329L282.318 209.328L272.033 203.792L270.956 205.793L275.761 208.379L275.275 209.28ZM266.31 213.972L276.186 220.209L274.972 222.13L265.097 215.893L266.31 213.972ZM272.942 225.382L263.586 218.391L262.322 220.082L270.166 225.944L270.032 226.123L259.247 224.197L257.006 227.196L266.363 234.187L267.646 232.47L259.802 226.609L259.927 226.442L270.711 228.368L272.942 225.382ZM251.316 233.034C252.037 232.262 252.792 231.727 253.581 231.428C254.371 231.129 255.148 231.008 255.912 231.064C256.669 231.129 257.381 231.319 258.049 231.636C258.716 231.952 259.288 232.333 259.764 232.777L260.021 233.017C260.551 233.512 260.997 234.081 261.359 234.725C261.714 235.377 261.938 236.075 262.031 236.819C262.125 237.563 262.045 238.32 261.793 239.091C261.541 239.877 261.069 240.641 260.377 241.382C259.657 242.154 258.891 242.693 258.079 243C257.267 243.323 256.448 243.419 255.621 243.289C254.801 243.166 254.024 242.827 253.288 242.271L254.849 240.599C255.297 240.9 255.755 241.065 256.224 241.094C256.694 241.139 257.148 241.059 257.586 240.855C258.032 240.659 258.448 240.354 258.834 239.941C259.227 239.519 259.502 239.076 259.659 238.61C259.825 238.152 259.877 237.69 259.815 237.224C259.754 236.758 259.599 236.299 259.349 235.847C259.092 235.403 258.745 234.978 258.309 234.57C257.888 234.177 257.447 233.868 256.986 233.642C256.518 233.424 256.042 233.301 255.558 233.272C255.082 233.252 254.617 233.336 254.163 233.524C253.702 233.721 253.268 234.038 252.86 234.475C252.264 235.114 251.917 235.798 251.822 236.526C251.727 237.268 251.92 237.952 252.402 238.577L250.841 240.25C250.305 239.604 249.941 238.877 249.747 238.069C249.553 237.26 249.577 236.422 249.818 235.553C250.06 234.685 250.56 233.845 251.317 233.034L251.316 233.034ZM243.687 247.325L240.508 243.665L238.793 245.155L246.451 253.973L248.166 252.484L244.998 248.835L249.069 245.3L252.238 248.948L253.953 247.458L246.295 238.64L244.579 240.129L247.758 243.79L243.687 247.325ZM236.484 246.886L243.303 256.368L241.757 257.48L241.497 257.667L237.561 260.497L236.44 258.939L240.376 256.108L238.704 253.783L235.002 256.445L233.881 254.886L237.583 252.224L235.799 249.743L231.759 252.648L230.638 251.089L234.678 248.184L234.938 247.997L236.484 246.886ZM234.592 262.524L228.716 252.43L226.891 253.493L231.817 261.955L231.623 262.068L222.452 256.077L219.216 257.96L225.092 268.055L226.945 266.976L222.019 258.513L222.199 258.409L231.37 264.4L234.592 262.524ZM205.423 263.984L206.294 266.392L203.947 267.24L203.076 264.833L205.423 263.984ZM202.149 267.854L201.365 265.417L198.989 266.181L199.773 268.618L202.149 267.854ZM197.257 266.704L197.954 269.168L195.552 269.847L194.856 267.383L197.257 266.704ZM177.4 270.976C176.603 270.722 175.706 270.644 174.708 270.742L174.708 270.742C173.593 270.852 172.626 271.156 171.807 271.654C170.989 272.163 170.367 272.819 169.942 273.622L170.151 275.755L169.181 275.85L169.346 277.538L175.684 276.916L175.518 275.228L172.237 275.55L172.11 274.252C172.319 273.964 172.589 273.705 172.918 273.474C173.471 273.098 174.134 272.873 174.909 272.796C175.493 272.739 176.027 272.778 176.512 272.912C176.998 273.058 177.423 273.289 177.786 273.607C178.151 273.936 178.448 274.346 178.679 274.838C178.909 275.33 179.056 275.9 179.12 276.547C179.178 277.142 179.152 277.691 179.04 278.195C178.919 278.7 178.721 279.143 178.447 279.523C178.174 279.904 177.829 280.211 177.412 280.445C176.985 280.679 176.501 280.823 175.96 280.877C175.418 280.93 174.915 280.883 174.451 280.735C173.975 280.589 173.571 280.35 173.239 280.018C172.907 279.697 172.68 279.291 172.556 278.799L170.279 279.022C170.452 279.906 170.81 280.658 171.353 281.28C171.897 281.913 172.581 282.376 173.403 282.671C174.226 282.976 175.147 283.078 176.166 282.978C177.111 282.886 177.933 282.634 178.632 282.222C179.321 281.822 179.888 281.316 180.332 280.705C180.765 280.094 181.074 279.426 181.26 278.7C181.446 277.975 181.503 277.246 181.432 276.513L181.398 276.163C181.322 275.388 181.121 274.652 180.795 273.955C180.46 273.27 180.009 272.666 179.444 272.142C178.868 271.631 178.187 271.242 177.4 270.976ZM166.883 271.621L166.845 283.381L165.242 283.376L162.506 283.369C161.567 283.366 160.757 283.225 160.075 282.945C159.383 282.665 158.851 282.242 158.479 281.676C158.108 281.109 157.924 280.399 157.926 279.546L157.927 279.29C157.93 278.426 158.124 277.717 158.51 277.164C158.885 276.61 159.415 276.196 160.098 275.921C160.128 275.909 160.159 275.897 160.189 275.885L157.091 271.591L159.747 271.599L162.485 275.513L162.531 275.513L164.599 275.519L164.611 271.614L166.883 271.621ZM162.274 281.429L164.579 281.438L164.593 277.358L162.287 277.349C161.871 277.348 161.513 277.432 161.214 277.602C160.904 277.771 160.663 278.01 160.492 278.319C160.32 278.628 160.234 278.98 160.232 279.375C160.231 279.78 160.315 280.137 160.485 280.447C160.654 280.757 160.894 280.998 161.202 281.17C161.501 281.341 161.858 281.428 162.274 281.429ZM151.37 282.804L156.506 271.582L154.245 271.355L152.91 274.339L147.845 273.829L147.098 270.634L144.774 270.399L147.677 282.431L151.37 282.804ZM148.307 275.805L149.451 280.697L150.038 280.756L152.083 276.186L148.307 275.805ZM140.843 269.608L140.149 273.124L138.423 272.783C137.46 272.594 136.612 272.59 135.881 272.772C135.137 272.962 134.53 273.31 134.06 273.815C133.589 274.331 133.275 274.986 133.118 275.781L133.068 276.033C132.911 276.828 132.954 277.548 133.196 278.194C133.436 278.85 133.865 279.403 134.484 279.851C135.091 280.297 135.877 280.615 136.839 280.805L138.566 281.146L138.88 281.208L140.795 281.586L143.072 270.048L140.843 269.608ZM137.032 278.837L138.947 279.215L139.768 275.055L137.853 274.677C137.403 274.589 137.008 274.603 136.67 274.721C136.321 274.837 136.037 275.036 135.818 275.319C135.588 275.6 135.434 275.945 135.353 276.353C135.272 276.761 135.285 277.139 135.391 277.486C135.486 277.831 135.674 278.118 135.955 278.347C136.223 278.585 136.582 278.748 137.032 278.837ZM124.019 270.366L125.413 265.723L123.237 265.069L119.879 276.256L122.055 276.909L123.444 272.281L128.608 273.832L127.219 278.46L129.395 279.113L132.753 267.926L130.577 267.273L129.183 271.916L124.019 270.366ZM120.525 263.992L116.34 274.897L114.219 274.083L118.404 263.178L120.525 263.992ZM113.259 261.31C112.733 260.649 111.993 260.093 111.038 259.642L111.038 259.642C110.035 259.169 109.083 258.949 108.182 258.984C107.281 259.019 106.475 259.252 105.764 259.683C105.053 260.114 104.472 260.683 104.021 261.39L106.09 262.367C106.538 261.717 107.13 261.325 107.867 261.188C108.589 261.057 109.345 261.179 110.136 261.552C110.677 261.807 111.111 262.124 111.439 262.503C111.758 262.878 111.98 263.295 112.105 263.755C112.225 264.224 112.253 264.715 112.188 265.227C112.114 265.735 111.954 266.249 111.708 266.77C111.453 267.31 111.153 267.77 110.808 268.15C110.454 268.525 110.065 268.813 109.64 269.014C109.215 269.215 108.759 269.306 108.272 269.288C107.78 269.28 107.274 269.154 106.753 268.908C106.242 268.666 105.825 268.363 105.502 267.998C105.174 267.643 104.959 267.235 104.858 266.775C104.743 266.319 104.761 265.832 104.911 265.313L102.842 264.337C102.537 265.207 102.451 266.051 102.584 266.869C102.713 267.697 103.054 268.448 103.609 269.122C104.149 269.802 104.897 270.367 105.852 270.818C106.768 271.25 107.639 271.467 108.464 271.467C109.276 271.472 110.021 271.317 110.701 271.001C111.381 270.685 111.977 270.259 112.49 269.722C112.993 269.181 113.4 268.583 113.709 267.927L113.86 267.609C114.137 267.02 114.325 266.36 114.423 265.628C114.521 264.896 114.485 264.159 114.316 263.419C114.137 262.674 113.784 261.971 113.259 261.31ZM93.4375 249.786L91.8835 248.605L91.6287 248.411L90.0751 247.23C89.2344 246.591 88.3999 246.165 87.5714 245.95C86.7429 245.736 85.9527 245.691 85.201 245.816C84.4492 245.942 83.7649 246.198 83.148 246.587C82.5226 246.969 81.9968 247.44 81.5708 248.001L81.3577 248.281C80.9123 248.867 80.5891 249.512 80.3883 250.217C80.1724 250.924 80.1111 251.648 80.2046 252.389C80.2915 253.138 80.5556 253.875 80.9967 254.599C81.438 255.323 82.0788 256.004 82.9195 256.643L84.4734 257.825L84.7283 258.018L86.2822 259.199L93.4375 249.786ZM90.3507 250.093L88.6821 248.824C88.1981 248.456 87.7144 248.203 87.231 248.063C86.7327 247.925 86.2485 247.892 85.7787 247.964C85.3089 248.036 84.8673 248.202 84.4539 248.464C84.0255 248.728 83.6403 249.085 83.2982 249.535C82.9431 250.002 82.6991 250.473 82.5659 250.948C82.4177 251.425 82.3752 251.895 82.4384 252.358C82.5017 252.822 82.6727 253.267 82.9515 253.693C83.2218 254.113 83.5989 254.507 84.083 254.875L85.7516 256.143L90.3507 250.093ZM75.6455 250.703L83.522 242.078L82.1161 240.794L81.8798 240.578L78.2055 237.223L76.9108 238.64L80.5851 241.996L78.5242 244.253L75.1571 241.178L73.8623 242.595L77.2294 245.67L75.298 247.785L71.7183 244.516L70.4235 245.934L74.0032 249.203L74.2396 249.419L75.6455 250.703ZM74.1249 232.516C74.8286 233.274 75.3022 234.028 75.5459 234.777C75.7822 235.518 75.8163 236.221 75.648 236.886C75.4718 237.559 75.114 238.146 74.5743 238.646L73.0618 237.016C73.2885 236.805 73.4533 236.536 73.5562 236.208C73.6512 235.887 73.6383 235.528 73.5174 235.131C73.3891 234.726 73.1146 234.297 72.6938 233.843C72.3166 233.437 71.9424 233.151 71.5712 232.986C71.2 232.821 70.8589 232.759 70.5479 232.8C70.2291 232.849 69.9484 232.986 69.706 233.21C69.401 233.493 69.2783 233.847 69.3378 234.272C69.3895 234.704 69.6422 235.212 70.096 235.795L70.7338 236.6C71.4252 237.487 71.7803 238.379 71.7994 239.278C71.8045 240.176 71.443 240.963 70.7148 241.638C70.1674 242.145 69.5785 242.452 68.9481 242.556C68.3099 242.668 67.6712 242.592 67.032 242.326C66.3778 242.06 65.7606 241.614 65.1802 240.989C64.578 240.34 64.1727 239.675 63.9641 238.996C63.7558 238.316 63.739 237.655 63.9139 237.013C64.0812 236.377 64.4424 235.802 64.9975 235.287L66.5101 236.918C66.2755 237.135 66.1149 237.393 66.0282 237.692C65.9264 237.99 65.9227 238.307 66.0169 238.643C66.095 238.978 66.2936 239.317 66.6128 239.661C66.9174 239.99 67.2261 240.212 67.5387 240.33C67.8513 240.447 68.1521 240.474 68.4414 240.409C68.7306 240.344 68.9847 240.21 69.2037 240.007C69.4696 239.761 69.6135 239.445 69.6354 239.061C69.6505 238.684 69.4774 238.27 69.1159 237.819L68.4898 237.003C67.9709 236.349 67.603 235.694 67.3861 235.037C67.1692 234.38 67.1246 233.759 67.2523 233.175C67.3725 232.583 67.6868 232.052 68.1952 231.58C68.7348 231.079 69.3424 230.778 70.018 230.675C70.6858 230.579 71.376 230.688 72.0888 231.001C72.7944 231.307 73.4737 231.812 74.1266 232.516L74.1249 232.516ZM60.331 234.955L69.3952 227.588L67.9623 225.825L58.8981 233.192L60.331 234.955ZM63.237 218.945C63.8084 219.769 64.177 220.591 64.343 221.411C64.4942 222.227 64.4867 223.012 64.3204 223.763C64.139 224.512 63.8306 225.2 63.3952 225.826C62.9451 226.45 62.4001 226.984 61.7602 227.428L61.4711 227.628C60.8663 228.048 60.2018 228.353 59.4774 228.544C58.753 228.735 58.0188 228.79 57.2746 228.709C56.5243 228.619 55.8066 228.37 55.1215 227.963C54.4216 227.552 53.8012 226.957 53.2601 226.177C52.6765 225.336 52.3176 224.481 52.1833 223.614C52.0402 222.753 52.1124 221.93 52.3999 221.147C52.6785 220.369 53.1615 219.69 53.8492 219.109L55.1531 220.989C54.7837 221.336 54.5396 221.733 54.4206 222.179C54.2928 222.631 54.2802 223.1 54.3827 223.587C54.4802 224.064 54.684 224.527 54.994 224.974C55.3041 225.421 55.6656 225.773 56.0787 226.032C56.4857 226.282 56.9221 226.434 57.3876 226.487C57.8532 226.541 58.3361 226.498 58.8366 226.358C59.3309 226.21 59.8235 225.966 60.3143 225.626C60.849 225.255 61.275 224.849 61.5924 224.408C61.9098 223.967 62.1232 223.508 62.2328 223.029C62.3336 222.557 62.3286 222.073 62.2177 221.578C62.0993 221.089 61.8728 220.604 61.5384 220.122C61.0947 219.482 60.5741 219.012 59.9768 218.712C59.6148 218.537 59.2572 218.428 58.9039 218.386L57.8335 219.128L59.7128 221.838L58.3192 222.804L54.69 217.571L56.0837 216.605L56.639 217.406L58.3992 216.185C59.3072 216.165 60.1826 216.388 61.0256 216.856C61.8598 217.328 62.5961 218.025 63.2344 218.945L63.237 218.945ZM48.3354 218.105L58.6164 212.562L57.614 210.703L48.9949 215.35L48.8887 215.153L55.1768 206.183L53.3999 202.887L43.1189 208.43L44.1364 210.317L52.7556 205.67L52.8542 205.853L46.5661 214.824L48.3354 218.105ZM52.2489 200.238L41.4804 204.762L40.743 203.006L40.6191 202.711L38.7417 198.241L40.5119 197.498L42.3893 201.967L45.0299 200.858L43.2639 196.654L45.0341 195.911L46.8 200.115L49.6176 198.931L47.6905 194.344L49.4607 193.6L51.3877 198.188L51.5117 198.483L52.2489 200.238ZM37.4329 195.003L48.6311 191.412L47.9372 189.249L44.2197 190.441L43.5893 188.475L43.574 188.428L46.452 184.617L45.6409 182.088L42.511 186.361C42.491 186.336 42.4709 186.311 42.4505 186.287C41.978 185.721 41.4206 185.346 40.7784 185.159C40.133 184.963 39.3989 184.997 38.5762 185.261L38.3325 185.339C37.5199 185.6 36.9014 185.994 36.4771 186.522C36.0528 187.05 35.8145 187.687 35.7621 188.432C35.7065 189.166 35.822 189.981 36.1087 190.874L36.739 192.84L36.9442 193.48L37.4329 195.003ZM38.5825 192.249L42.4677 191.003L41.7641 188.809C41.6371 188.413 41.4467 188.098 41.193 187.866C40.936 187.624 40.6342 187.469 40.2875 187.4C39.9408 187.332 39.5796 187.359 39.2038 187.479C38.8178 187.603 38.5035 187.793 38.2611 188.05C38.0187 188.307 37.8634 188.609 37.7953 188.956C37.724 189.292 37.752 189.659 37.8789 190.055L38.5825 192.249ZM42.8944 168.46L40.3593 168.817L40.012 166.345L42.547 165.989L42.8944 168.46ZM39.7812 164.461L42.3273 164.194L42.0678 161.712L39.5216 161.978L39.7812 164.461ZM118.128 34.5395L119.03 36.9354L121.366 36.056L120.464 33.6602L118.128 34.5395ZM167.844 28.7051L172.835 17.4185L176.533 17.7431L179.591 29.7366L177.264 29.5321L176.476 26.3472L171.405 25.9019L170.108 28.9036L167.844 28.7051ZM175.988 24.377L172.207 24.0449L174.194 19.4489L174.781 19.5004L175.988 24.377ZM184.18 26.9507L183.532 30.476L181.297 30.0651L183.424 18.499L185.344 18.8519L185.658 18.9099L187.39 19.2279C188.355 19.4053 189.144 19.7131 189.758 20.1514C190.382 20.5914 190.818 21.138 191.067 21.7911C191.318 22.4337 191.37 23.1536 191.223 23.9509L191.177 24.2026C191.03 24.9999 190.725 25.6595 190.26 26.1814C189.797 26.6928 189.195 27.0485 188.453 27.2483C187.724 27.4395 186.877 27.4459 185.912 27.2672L184.18 26.9507ZM184.536 25.0155L186.456 25.3685C186.907 25.4514 187.301 25.4316 187.638 25.3092C187.986 25.1887 188.267 24.9856 188.482 24.6998C188.708 24.4159 188.858 24.0694 188.934 23.6602C189.009 23.2511 188.992 22.8737 188.881 22.5282C188.782 22.1845 188.59 21.8998 188.306 21.6741C188.035 21.4398 187.674 21.2812 187.223 21.1983L185.303 20.8452L184.536 25.0155ZM199.01 34.1595L200.343 29.4983L195.159 28.0157L193.826 32.6768L191.642 32.052L194.853 20.8223L197.038 21.447L195.709 26.0928L200.893 27.5755L202.222 22.9297L204.406 23.5545L201.195 34.7842L199.01 34.1595ZM207.963 24.8682L203.92 35.8264L206.052 36.6127L210.094 25.6545L207.963 24.8682ZM213.464 40.0523C212.503 39.6141 211.756 39.068 211.221 38.414C210.687 37.76 210.326 37.0617 210.137 36.319C209.958 35.5808 209.913 34.8449 210.001 34.1114C210.089 33.378 210.269 32.7152 210.539 32.1233L210.685 31.8031C210.986 31.1432 211.384 30.5395 211.88 29.992C212.386 29.4489 212.977 29.0149 213.652 28.6901C214.328 28.3652 215.072 28.2003 215.883 28.1952C216.708 28.1851 217.582 28.3902 218.504 28.8105C219.465 29.2487 220.22 29.8041 220.769 30.4767C221.332 31.1439 221.683 31.8904 221.822 32.716C221.966 33.5318 221.891 34.377 221.598 35.2515L219.516 34.3018C219.66 33.7812 219.671 33.2939 219.55 32.84C219.443 32.3808 219.223 31.9758 218.891 31.6249C218.563 31.2643 218.142 30.9666 217.628 30.732C217.104 30.4929 216.596 30.3726 216.104 30.371C215.617 30.361 215.162 30.4584 214.74 30.6632C214.317 30.8693 213.932 31.1623 213.582 31.5422C213.243 31.9267 212.949 32.3906 212.701 32.9341C212.462 33.4581 212.309 33.9743 212.241 34.4827C212.183 34.9955 212.217 35.486 212.344 35.954C212.475 36.4123 212.702 36.8267 213.026 37.197C213.359 37.5718 213.797 37.8831 214.34 38.131C215.136 38.494 215.894 38.6054 216.615 38.4651C217.35 38.3195 217.937 37.9191 218.376 37.2638L220.458 38.2134C220.016 38.9261 219.442 39.5027 218.737 39.9431C218.032 40.3835 217.229 40.627 216.329 40.6735C215.428 40.7198 214.473 40.5128 213.464 40.0525L213.464 40.0523ZM232.76 50.8397L231.191 49.6786L238.224 40.1738L239.793 41.3348L240.051 41.5252L241.62 42.6863C242.469 43.3144 243.118 43.9875 243.569 44.7057C244.019 45.4239 244.293 46.1571 244.389 46.9052C244.492 47.6449 244.44 48.3695 244.234 49.0792C244.042 49.7865 243.727 50.436 243.289 51.0276L243.08 51.3107C242.661 51.8767 242.142 52.3547 241.521 52.7448C240.909 53.1413 240.228 53.407 239.478 53.542C238.728 53.6771 237.938 53.6426 237.106 53.4388C236.275 53.2352 235.435 52.8193 234.586 52.1911L233.017 51.0301L232.76 50.8397ZM234.274 49.3323L235.959 50.5791C236.447 50.9407 236.934 51.1882 237.419 51.3216C237.919 51.4529 238.404 51.4797 238.873 51.4018C239.342 51.3242 239.781 51.1517 240.191 50.8844C240.616 50.615 240.997 50.2531 241.333 49.7987C241.682 49.3271 241.92 48.853 242.047 48.3764C242.189 47.8976 242.225 47.427 242.156 46.9645C242.087 46.502 241.91 46.0594 241.626 45.6367C241.35 45.2203 240.968 44.8313 240.479 44.4697L238.794 43.2229L234.274 49.3323ZM241.205 57.2585L248.97 48.5332L250.392 49.7989L250.631 50.0117L254.253 53.2345L252.977 54.6689L249.355 51.446L247.451 53.5855L250.857 56.6169L249.581 58.0512L246.175 55.0198L244.143 57.3027L247.86 60.6106L246.584 62.045L242.867 58.737L242.628 58.5243L241.205 57.2585ZM249.274 64.4567C249.528 65.2023 250.011 65.9497 250.725 66.6991L250.725 66.6988C251.387 67.3942 252.072 67.8902 252.782 68.1868C253.498 68.4911 254.19 68.5911 254.857 68.4868C255.531 68.3751 256.135 68.0655 256.668 67.558C257.17 67.08 257.477 66.5444 257.59 65.9511C257.71 65.3656 257.657 64.7456 257.432 64.0912C257.207 63.4368 256.83 62.7862 256.303 62.1395L255.666 61.3316C255.299 60.885 255.121 60.4732 255.131 60.0962C255.148 59.7117 255.288 59.3946 255.55 59.1446C255.767 58.9386 256.019 58.8015 256.307 58.7332C256.596 58.6649 256.897 58.6874 257.211 58.8008C257.525 58.9142 257.837 59.1331 258.146 59.4576C258.469 59.7975 258.672 60.1344 258.755 60.4684C258.852 60.8028 258.852 61.1197 258.754 61.4191C258.671 61.7187 258.514 61.979 258.282 62.1997L259.815 63.8105C260.364 63.2883 260.718 62.7085 260.877 62.0711C261.043 61.4264 261.018 60.7655 260.801 60.0887C260.584 59.4119 260.17 58.7528 259.559 58.1116C258.971 57.4936 258.348 57.0557 257.691 56.7981C257.048 56.5409 256.408 56.4724 255.772 56.5926C255.143 56.7054 254.558 57.0192 254.017 57.534C253.299 58.218 252.948 59.0091 252.963 59.9073C252.993 60.8058 253.36 61.6938 254.063 62.5712L254.711 63.3681C255.172 63.9453 255.432 64.4496 255.489 64.8811C255.554 65.3051 255.435 65.6607 255.134 65.9475C254.895 66.1756 254.616 66.3159 254.298 66.3683C253.987 66.4134 253.645 66.356 253.272 66.196C252.899 66.0359 252.521 65.7549 252.138 65.3532C251.712 64.9051 251.432 64.4795 251.298 64.0763C251.172 63.6809 251.155 63.3221 251.246 62.9999C251.344 62.6705 251.505 62.3992 251.729 62.1857L250.196 60.5749C249.663 61.0824 249.313 61.6736 249.145 62.3485C248.985 63.0161 249.029 63.7188 249.274 64.4567ZM255.518 71.5645L264.486 64.082L265.942 65.8266L256.973 73.309L255.518 71.5645ZM260.649 77.6773C260.826 78.4946 261.205 79.3114 261.787 80.1279H261.785C262.436 81.0399 263.181 81.7269 264.021 82.1889C264.87 82.6449 265.748 82.8571 266.656 82.8256L268.403 81.5804L268.97 82.3758L270.351 81.3913L266.654 76.206L265.273 77.1906L267.186 79.8737L266.123 80.6316C265.769 80.5937 265.41 80.4893 265.046 80.3187C264.445 80.0267 263.918 79.5637 263.466 78.9297C263.125 78.452 262.893 77.9694 262.768 77.4819C262.653 76.9883 262.643 76.5048 262.738 76.0312C262.841 75.5514 263.049 75.089 263.36 74.6442C263.672 74.1993 264.093 73.7881 264.622 73.4104C265.109 73.0636 265.598 72.8129 266.091 72.6584C266.589 72.5126 267.072 72.4634 267.538 72.511C268.004 72.5586 268.442 72.7047 268.852 72.9493C269.269 73.2027 269.635 73.5509 269.951 73.9939C270.266 74.4368 270.476 74.8964 270.58 75.3727C270.689 75.8576 270.683 76.3268 270.561 76.7805C270.448 77.2281 270.209 77.6278 269.844 77.9796L271.172 79.8426C271.852 79.2531 272.326 78.5679 272.595 77.7869C272.872 76.9998 272.934 76.1764 272.779 75.317C272.634 74.4513 272.264 73.6016 271.669 72.7678C271.118 71.9948 270.49 71.4077 269.785 71.0065C269.095 70.6079 268.374 70.3686 267.623 70.2885C266.878 70.217 266.144 70.2813 265.422 70.4816C264.7 70.6818 264.04 70.9956 263.44 71.4228L263.154 71.6273C262.52 72.0793 261.982 72.6201 261.54 73.2496C261.113 73.8816 260.813 74.5732 260.641 75.3245C260.485 76.0782 260.487 76.8625 260.649 77.6773ZM266.489 86.4503L276.697 80.7744L278.509 84.0326L272.338 93.0841L272.439 93.2657L280.997 88.5073L282.039 90.3811L271.831 96.057L270.012 92.7849L276.183 83.7334L276.074 83.5377L267.516 88.2962L266.489 86.4503ZM283.725 94.0269L273.016 98.6901L273.777 100.436L273.904 100.729L275.891 105.291L277.651 104.525L275.665 99.9627L278.466 98.7425L280.287 102.923L282.047 102.157L280.227 97.976L282.853 96.8325L284.788 101.277L286.549 100.511L284.613 96.0659L284.485 95.7726L283.725 94.0269ZM276.75 107.47L287.9 103.732L288.409 105.249L288.622 105.887L289.278 107.843C289.576 108.733 289.703 109.546 289.657 110.282C289.614 111.027 289.384 111.667 288.966 112.2C288.549 112.734 287.936 113.136 287.127 113.408L286.884 113.489C286.065 113.763 285.331 113.807 284.683 113.619C284.039 113.441 283.477 113.073 282.997 112.514C282.985 112.5 282.973 112.486 282.962 112.472L282.935 112.441L279.861 116.754L279.018 114.236L281.845 110.387L281.829 110.34L281.173 108.383L277.472 109.624L276.75 107.47ZM286.787 106.502L282.918 107.798L283.65 109.983C283.782 110.377 283.977 110.689 284.233 110.918C284.494 111.157 284.798 111.308 285.145 111.372C285.493 111.435 285.853 111.404 286.228 111.279C286.612 111.15 286.924 110.956 287.163 110.696C287.402 110.435 287.553 110.132 287.617 109.784C287.684 109.447 287.651 109.081 287.519 108.686L286.787 106.502ZM285.315 129.955L282.785 130.344L283.164 132.811L285.695 132.422L285.315 129.955ZM283.408 134.603L285.95 134.303L286.242 136.782L283.699 137.082L283.408 134.603ZM286.43 138.671L283.878 138.88L284.082 141.368L286.634 141.158L286.43 138.671Z" fill="#12151F"/>
<path fill-rule="evenodd" clip-rule="evenodd" d="M108.332 131.186H98.798C97.9962 131.186 97.227 131.505 96.66 132.072C96.093 132.639 95.7747 133.408 95.7747 134.209V193.137C95.7747 193.938 96.093 194.707 96.66 195.274C97.227 195.841 97.9962 196.16 98.798 196.16H112.475C113.277 196.16 114.046 195.841 114.613 195.274C115.18 194.707 115.499 193.938 115.499 193.137V175.655C115.499 174.853 115.817 174.084 116.384 173.517C116.951 172.95 117.72 172.632 118.522 172.632H124.154C125.083 172.632 125.998 172.862 126.816 173.302C127.635 173.742 128.332 174.379 128.844 175.154L141.055 193.637C141.568 194.413 142.264 195.049 143.083 195.489C143.901 195.93 144.816 196.16 145.745 196.16H165.867C165.936 196.165 166.004 196.167 166.073 196.167H182.896C183.698 196.167 184.467 195.848 185.034 195.281C185.601 194.714 185.919 193.945 185.919 193.144V161.921C185.919 161.521 186.078 161.136 186.362 160.853C186.645 160.569 187.03 160.41 187.431 160.41H188.473C188.94 160.41 189.399 160.523 189.813 160.739C190.226 160.955 190.582 161.268 190.848 161.651L213.129 193.685C213.662 194.451 214.372 195.077 215.199 195.509C216.027 195.941 216.946 196.167 217.879 196.167H239.421C239.709 196.167 239.992 196.088 240.239 195.938C240.486 195.789 240.687 195.575 240.821 195.319C240.954 195.063 241.015 194.775 240.997 194.488C240.979 194.2 240.882 193.922 240.717 193.685L212.68 153.387C212.178 152.666 211.918 151.804 211.936 150.926C211.954 150.047 212.25 149.197 212.781 148.497L235.425 118.645C235.594 118.423 235.697 118.157 235.723 117.879C235.749 117.601 235.698 117.321 235.573 117.07C235.449 116.82 235.257 116.609 235.02 116.462C234.782 116.315 234.508 116.237 234.229 116.237H213.617C212.677 116.237 211.75 116.454 210.909 116.872C210.067 117.29 209.334 117.897 208.766 118.646L187.746 146.361C187.618 146.531 187.439 146.656 187.235 146.718C187.032 146.781 186.814 146.778 186.612 146.71C186.41 146.642 186.235 146.513 186.11 146.34C185.986 146.167 185.919 145.96 185.919 145.747V119.26C185.919 118.458 185.601 117.689 185.034 117.122C184.467 116.555 183.698 116.237 182.896 116.237H166.073C165.271 116.237 164.502 116.555 163.935 117.122C163.368 117.689 163.05 118.458 163.05 119.26V142.139C163.033 141.842 163.013 141.561 162.991 141.306C162.152 131.431 157.965 124.412 149.841 120.051C148.37 119.261 145.867 118.213 144.279 117.699C140.667 116.53 136.663 115.844 132.272 115.631C130.655 115.553 128.059 115.566 126.381 115.574L126.226 115.575C120.668 115.602 116.781 115.609 114.378 115.611C112.708 115.611 111.355 116.962 111.355 118.632V128.163C111.355 128.965 111.036 129.734 110.469 130.301C109.902 130.868 109.133 131.186 108.332 131.186ZM163.05 147.556V187.236L151.317 170.465C150.359 169.096 150.794 167.372 152.186 166.451C159.268 161.767 162.469 155.071 163.05 147.556ZM127.375 154.294H118.522C117.72 154.294 116.951 153.976 116.384 153.409C115.817 152.842 115.499 152.073 115.499 151.271V138.352C115.499 137.55 115.817 136.781 116.384 136.214C116.951 135.647 117.72 135.329 118.522 135.329H127.634C127.755 135.329 127.881 135.329 128.012 135.328C129.695 135.325 132.167 135.32 133.629 135.813C136.563 136.801 138.77 139.188 139.64 141.893C140.149 143.474 140.005 146.25 139.54 147.85C138.591 151.114 136.403 153.138 133.391 153.922C131.922 154.305 129.52 154.299 127.842 154.295C127.738 154.295 127.637 154.294 127.539 154.294C127.483 154.294 127.429 154.294 127.375 154.294Z" fill="#12151F"/>
<path d="M88.2118 125.139C86.5421 125.139 85.1885 123.786 85.1885 122.116V108.016C85.1885 106.346 86.5421 104.992 88.2118 104.992H102.312C103.982 104.992 105.336 106.346 105.336 108.016V122.116C105.336 123.786 103.982 125.139 102.312 125.139H88.2118Z" fill="#12151F"/>
</svg>
