<svg width="1597" height="1074" viewBox="0 0 1597 1074" fill="none" xmlns="http://www.w3.org/2000/svg">
<path fill-rule="evenodd" clip-rule="evenodd" d="M426.213 330.137H765.353V568.344H663.961V635.079H765.353V771.636H629.05V669.99H562.52V771.636H426.213V669.99H324.801V533.433H426.213V330.137ZM629.05 635.079V568.344H527.619V431.784H663.961V533.433H730.442V365.048H461.124V568.344H359.712V635.079H461.124V736.725H527.619V635.079H629.05ZM629.05 533.433V466.695H562.52V533.433H629.05ZM663.961 669.99V736.725H730.442V669.99H663.961ZM831.833 330.137H968.185V533.433H1034.67V330.137H1170.97V568.344H1069.58V635.079H1272.36V771.636H1034.67V669.99H968.185V771.636H831.833V330.137ZM1034.67 635.079V568.344H933.274V365.048H866.744V736.725H933.274V635.079H1034.67ZM1069.58 669.99V736.725H1237.45V669.99H1069.58ZM1069.58 533.433H1136.06V365.048H1069.58V533.433Z" fill="#161616"/>
<path d="M135.155 741.987L0.62793 719.883L4.89683 693.895L139.424 715.998L135.155 741.987ZM148.566 660.355L83.6261 691.79L88.4088 662.689L153.553 629.973L148.566 660.355ZM93.5008 716.347L72.4547 712.886L78.0453 678.848C78.8332 674.085 78.5291 669.841 77.1327 666.1C75.7662 662.24 73.4722 659.048 70.2554 656.515C67.0336 653.981 63.1682 652.34 58.6547 651.597C54.0165 650.839 49.7674 651.144 45.9122 652.515C42.0521 653.887 38.8554 656.181 36.3218 659.398C33.8082 662.495 32.1623 666.42 31.3793 671.177L25.7838 705.221L3.64027 701.585L8.78188 670.285C10.5424 659.547 13.6547 650.535 18.1084 643.249C22.587 635.838 28.4069 630.526 35.5736 627.319C42.7453 624.112 51.2089 623.31 60.9691 624.915L63.8965 625.394C73.7813 627.02 81.5365 630.546 87.1572 635.982C92.8028 641.294 96.5681 648.116 98.4583 656.445C100.348 664.779 100.408 674.309 98.6379 685.047L93.5008 716.347Z" fill="#161616"/>
<path d="M150.62 639.313L38.9351 549.916L53.5429 509.439L197.022 510.731L187.83 536.206L63.7269 534.211L70.7789 526.7L62.909 548.51L62.3455 538.051L159.563 614.541L150.62 639.313ZM127.729 596.747L109.625 581.341L128.262 529.698L151.967 529.573L127.729 596.747Z" fill="#161616"/>
<path d="M200.713 508.647L82.7534 442.168L95.4113 419.708L213.37 486.187L200.713 508.647ZM211.545 489.418L192.159 478.49L222.303 425.006L241.693 435.934L211.545 489.418ZM161.298 461.097L141.903 450.169L169.682 400.886L189.072 411.814L161.298 461.097ZM112.981 433.868L93.5907 422.94L123.006 370.748L142.396 381.676L112.981 433.868Z" fill="#161616"/>
<path d="M366.24 295.424L286.748 283.871L272.928 297.063L265.637 204.275L287.501 183.398L293.96 266.984L284.459 258.105L389.451 273.267L366.24 295.424ZM302.782 356.004L209.291 258.066L228.337 239.879L321.833 337.817L302.782 356.004Z" fill="#161616"/>
<path d="M390.753 276.607L309.844 168.042L330.96 152.303L411.869 260.868L390.753 276.607Z" fill="#161616"/>
<path d="M424.277 248.656L359.527 129.742L397.486 109.075L501.775 181.538L507.151 178.611L505.49 183.317L449.608 80.6918L471.437 68.8066L536.187 187.721L498.069 208.476L393.78 136.013L388.239 139.029L389.9 134.323L445.777 236.948L424.277 248.656Z" fill="#161616"/>
<path d="M611.595 167.791C599.875 171.277 589.152 172.196 579.527 170.548C569.851 168.899 561.373 165.548 554.092 160.495C546.91 155.407 540.895 149.32 536.082 142.237C531.27 135.153 527.789 127.996 525.639 120.766L524.477 116.854C522.083 108.794 520.966 100.482 521.131 91.9198C521.41 83.3222 523.27 75.0303 526.706 67.0452C530.138 59.0596 535.379 51.9557 542.421 45.7328C549.553 39.3563 558.78 34.4954 570.051 31.1502C581.771 27.6641 592.594 26.7693 602.518 28.4659C612.493 30.0088 621.27 33.8579 628.751 40.0131C636.232 46.0498 642.017 54.0064 646.107 63.8838L620.672 71.437C617.979 65.7919 614.388 61.4475 609.849 58.4032C605.411 55.2054 600.423 53.3381 594.838 52.802C589.252 52.1477 583.267 52.7531 576.983 54.6199C570.6 56.521 565.263 59.3373 560.924 63.0683C556.585 66.6811 553.343 70.9956 551.249 76.0113C549.104 81.0275 547.957 86.526 547.808 92.5068C547.808 98.4521 548.755 104.744 550.7 111.382C552.595 117.782 555.189 123.462 558.48 128.422C561.872 133.347 565.911 137.372 570.599 140.5C575.238 143.509 580.375 145.4 586.01 146.173C591.796 146.911 597.98 146.294 604.613 144.322C614.338 141.434 621.819 136.634 627.056 129.921C632.342 123.054 634.437 115.083 633.29 106.007L658.725 98.4541C660.271 108.052 659.622 117.46 656.829 126.679C654.037 135.898 648.85 144.139 641.369 151.403C633.838 158.666 623.914 164.129 611.595 167.791V167.791Z" fill="#161616"/>
<path d="M767.248 138.161L755.428 3.28034L781.661 0.976562L793.481 135.857L767.248 138.161ZM678.774 145.932L666.904 11.0515L693.136 8.74775L705.006 143.628L678.774 145.932ZM695.281 88.0655L693.236 64.9694L765.103 58.6585L767.148 81.7546L695.281 88.0655Z" fill="#161616"/>
<path d="M810.238 137.478L821.46 2.54102L847.144 4.67108L835.972 139.608L810.238 137.478ZM832.232 139.301L834.077 117.12L895.271 122.192L893.426 144.374L832.232 139.301ZM837.02 81.8144L838.865 59.6334L895.221 64.307L893.376 86.4885L837.02 81.8144ZM841.608 26.546L843.453 4.36459L903.151 9.3143L901.306 31.4957L841.608 26.546Z" fill="#161616"/>
<path d="M904.099 144.46L939.309 13.7148L981.003 24.9482L1006.49 149.361L1012.42 150.952L1007.98 153.211L1038.36 40.376L1062.34 46.8364L1027.14 177.582L985.242 166.3L959.757 41.8879L953.673 40.2488L958.111 37.9891L927.738 150.824L904.099 144.46Z" fill="#161616"/>
<path d="M1141.89 237.643L1155.91 217.558L1178.9 233.574C1184.68 237.605 1190.42 240.313 1196.05 241.7C1201.89 243.056 1207.53 243.207 1212.91 242.154C1218.35 241.1 1223.38 238.957 1228.02 235.727C1232.86 232.466 1237.15 228.147 1240.89 222.771C1244.78 217.192 1247.42 211.62 1248.72 206.056C1250.22 200.461 1250.47 194.996 1249.52 189.659C1248.57 184.323 1246.38 179.251 1242.93 174.447C1239.59 169.712 1235.05 165.33 1229.27 161.299L1206.28 145.283L1220.29 125.198L1241.89 140.26C1251.96 147.26 1259.69 154.848 1265.13 163.022C1270.61 171.197 1274.01 179.603 1275.35 188.241C1276.8 196.778 1276.45 205.192 1274.3 213.482C1272.31 221.742 1268.87 229.372 1263.98 236.371L1261.64 239.718C1257 246.413 1251.11 252.123 1244.03 256.847C1237.1 261.642 1229.27 264.944 1220.64 266.754C1212.01 268.564 1202.84 268.425 1193.11 266.337C1183.44 264.249 1173.56 259.705 1163.49 252.704L1141.89 237.643ZM1123.34 224.702L1201.74 112.258L1223.33 127.319L1144.93 239.764L1123.34 224.702Z" fill="#161616"/>
<path d="M1227.72 300.135L1322.58 203.51L1340.98 221.57L1246.13 318.195L1227.72 300.135ZM1243.48 315.597L1259.09 299.713L1302.88 342.721L1287.32 358.604L1243.48 315.597ZM1283.88 274.432L1299.49 258.548L1339.89 298.178L1324.28 314.061L1283.88 274.432ZM1322.73 234.855L1338.34 218.972L1381.08 260.94L1365.52 276.823L1322.73 234.855Z" fill="#161616"/>
<path d="M1318.34 404.637C1311.16 395.042 1306.57 385.782 1304.68 376.854C1302.83 368.025 1303.33 359.877 1306.07 352.408C1308.92 344.864 1313.75 338.533 1320.54 333.413L1336.05 354.036C1333.15 356.188 1330.96 359.094 1329.36 362.754C1327.87 366.34 1327.57 370.495 1328.52 375.219C1329.51 380.041 1332.16 385.32 1336.45 391.057C1340.29 396.201 1344.28 399.946 1348.37 402.295C1352.46 404.644 1356.3 405.769 1359.94 405.669C1363.68 405.496 1367.07 404.259 1370.11 401.958C1374 399.064 1375.85 395.132 1375.65 390.161C1375.55 385.116 1373.25 378.958 1368.76 371.689L1362.38 361.636C1355.45 350.583 1352.46 339.863 1353.3 329.476C1354.35 319.114 1359.49 310.482 1368.66 303.581C1375.6 298.386 1382.73 295.566 1390.16 295.12C1397.64 294.599 1404.92 296.255 1411.95 300.087C1419.19 303.944 1425.77 309.829 1431.7 317.742C1437.84 325.952 1441.73 334.1 1443.32 342.186C1444.87 350.273 1444.27 357.915 1441.48 365.112C1438.79 372.235 1433.95 378.43 1426.92 383.699L1411.46 363.076C1414.4 360.85 1416.59 358.067 1417.94 354.728C1419.48 351.414 1419.88 347.767 1419.24 343.785C1418.74 339.828 1416.84 335.674 1413.6 331.321C1410.46 327.168 1407.17 324.225 1403.73 322.494C1400.23 320.764 1396.79 320.097 1393.4 320.493C1390.01 320.889 1386.92 322.126 1384.12 324.204C1380.78 326.727 1378.74 330.189 1377.99 334.591C1377.39 338.919 1378.89 343.902 1382.48 349.54L1388.71 359.704C1393.95 367.864 1397.39 375.864 1399.09 383.703C1400.78 391.542 1400.58 398.752 1398.39 405.33C1396.29 412.008 1392.01 417.758 1385.57 422.581C1378.79 427.702 1371.41 430.448 1363.48 430.82C1355.65 431.118 1347.87 429.029 1339.99 424.554C1332.26 420.178 1325.03 413.539 1318.34 404.637V404.637Z" fill="#161616"/>
<path d="M1356.3 454.036L1473.15 385.651L1486.41 408.383L1369.56 476.768L1356.3 454.036Z" fill="#161616"/>
<path d="M1400.93 550.176C1396.49 539.439 1394.3 529.225 1394.45 519.529C1394.75 509.909 1396.79 501.042 1400.48 492.936C1404.42 484.897 1409.61 477.864 1416.04 471.838C1422.68 465.879 1430.16 461.172 1438.54 457.718L1442.28 456.156C1450.16 452.892 1458.44 451.069 1467.11 450.688C1475.79 450.306 1484.27 451.49 1492.5 454.237C1500.78 457.099 1508.26 461.68 1515.04 467.982C1521.97 474.351 1527.51 482.619 1531.75 492.786C1536.29 503.755 1538.23 514.318 1537.63 524.472C1537.13 534.581 1534.29 543.723 1529.11 551.892C1524.07 560.011 1516.89 566.52 1507.71 571.407L1497.54 546.9C1502.57 543.877 1506.31 539.987 1508.76 535.224C1511.3 530.417 1512.6 525.135 1512.65 519.37C1512.75 513.719 1511.55 507.979 1509.11 502.154C1506.71 496.329 1503.47 491.442 1499.43 487.496C1495.44 483.663 1490.85 480.871 1485.72 479.12C1480.58 477.368 1474.99 476.667 1469.01 477.015C1463.02 477.479 1456.84 479.035 1450.46 481.684C1443.47 484.571 1437.64 488.12 1433 492.334C1428.31 496.547 1424.77 501.231 1422.33 506.378C1420.03 511.48 1418.89 516.971 1418.94 522.851C1419.04 528.681 1420.43 534.741 1423.03 541.025C1426.47 549.363 1431.2 555.961 1437.24 560.829C1443.42 565.642 1449.86 568.32 1456.64 568.859L1435.14 572.739L1467.36 559.393L1476.69 581.84L1448.91 593.341C1438.59 591.331 1429.21 586.643 1420.83 579.282C1412.5 571.876 1405.87 562.176 1400.93 550.176V550.176ZM1447.96 526.078L1466.12 518.557L1494.39 586.758L1476.19 594.284L1447.96 526.078Z" fill="#161616"/>
<path d="M1431.45 618.487L1564.66 594.318L1572.39 636.845L1470.85 713.13L1471.95 719.155L1468.01 716.103L1582.97 695.241L1587.41 719.699L1454.2 743.867L1446.47 701.161L1547.96 624.87L1546.86 618.666L1550.8 621.723L1435.84 642.58L1431.45 618.487Z" fill="#161616"/>
<path d="M188.464 940.102V860.256H203.994V940.102H188.464ZM201.805 906.852V893.726L233.744 893.616V906.742L201.805 906.852ZM201.805 873.382V860.256H235.274V873.382H201.805Z" fill="#161616"/>
<path d="M249.712 940.102V859.712H265.243V940.102H249.712ZM298.493 940.102L273.996 905.321H291.386L316.652 940.102H298.493ZM260.649 913.415V900.837H280.993C283.836 900.837 286.279 900.254 288.324 899.087C290.439 897.92 292.079 896.279 293.246 894.164C294.408 892.049 294.992 889.646 294.992 886.947C294.992 884.175 294.408 881.731 293.246 879.616C292.079 877.502 290.439 875.861 288.324 874.694C286.279 873.527 283.836 872.948 280.993 872.948H260.649V859.712H279.352C285.77 859.712 291.312 860.66 295.98 862.555C300.718 864.45 304.363 867.333 306.917 871.198C309.47 875.063 310.742 879.91 310.742 885.741V887.491C310.742 893.401 309.43 898.249 306.807 902.039C304.253 905.829 300.648 908.677 295.98 910.572C291.312 912.467 285.77 913.415 279.352 913.415H260.649Z" fill="#161616"/>
<path d="M328.461 940.102V860.256H343.668V940.102H328.461ZM341.478 940.102V926.976H377.681V940.102H341.478ZM341.478 906.089V892.962H374.838V906.089H341.478ZM341.478 873.382V860.256H376.808V873.382H341.478Z" fill="#161616"/>
<path d="M393.655 940.102V860.256H408.857V940.102H393.655ZM406.667 940.102V926.976H442.87V940.102H406.667ZM406.667 906.089V892.962H440.027V906.089H406.667ZM406.667 873.382V860.256H441.997V873.382H406.667Z" fill="#161616"/>
<path d="M458.839 940.102V860.256H474.37V940.102H458.839ZM472.185 940.102V926.432H506.637V940.102H472.185Z" fill="#161616"/>
<path d="M512.328 940.102L539.558 860.256H564.914L592.942 940.102H576.983L553.243 870.869L558.829 873.273H545.164L550.849 870.869L527.858 940.102H512.328ZM531.359 918.886L536.282 905.76H568.654L573.492 918.886H531.359Z" fill="#161616"/>
<path d="M604.762 940.102V860.256H630.247L663.812 927.195H667.403L665.258 929.165V860.256H679.871V940.102H654.286L620.722 873.163H616.981L619.176 871.198V940.102H604.762Z" fill="#161616"/>
<path d="M735.579 942.181C728.347 942.181 722.163 940.904 716.976 938.351C711.789 935.802 707.551 932.481 704.259 928.401C701.067 924.317 698.723 919.868 697.177 915.055C695.631 910.243 694.883 905.614 694.883 901.166V898.757C694.883 893.8 695.631 888.917 697.177 884.104C698.773 879.292 701.216 874.913 704.508 870.978C707.8 867.038 711.939 863.906 716.976 861.572C722.063 859.163 728.098 857.961 735.03 857.961C742.212 857.961 748.496 859.273 753.832 861.901C759.218 864.449 763.507 868.095 766.749 872.838C769.941 877.501 771.886 882.972 772.535 889.241H756.874C756.326 885.595 754.98 882.533 752.935 880.055C750.99 877.501 748.496 875.606 745.404 874.369C742.362 873.057 738.87 872.399 735.03 872.399C731.09 872.399 727.599 873.092 724.507 874.479C721.465 875.79 718.921 877.686 716.876 880.164C714.832 882.643 713.236 885.561 712.139 888.917C711.141 892.268 710.642 895.989 710.642 900.069C710.642 904.008 711.141 907.654 712.139 911.011C713.236 914.362 714.832 917.315 716.976 919.868C719.071 922.347 721.664 924.282 724.757 925.663C727.849 927.05 731.489 927.743 735.579 927.743C741.563 927.743 746.551 926.287 750.64 923.369C754.83 920.377 757.323 916.222 758.221 910.901H773.831C773.133 916.586 771.188 921.798 768.046 926.541C764.904 931.279 760.615 935.069 755.129 937.917C749.693 940.76 743.159 942.181 735.579 942.181V942.181Z" fill="#161616"/>
<path d="M786.948 940.102V860.256H802.159V940.102H786.948ZM799.964 940.102V926.976H836.172V940.102H799.964ZM799.964 906.089V892.962H833.33V906.089H799.964ZM799.964 873.382V860.256H835.324V873.382H799.964Z" fill="#161616"/>
<path d="M912.976 942.181C906.144 942.181 900.059 941.049 894.823 938.79C889.636 936.456 885.247 933.359 881.706 929.494C878.215 925.554 875.522 921.145 873.726 916.257C871.981 911.3 871.083 906.158 871.083 900.837V898.428C871.083 893.401 871.981 888.478 873.726 883.665C875.472 878.853 878.016 874.514 881.357 870.649C884.798 866.783 888.987 863.721 893.925 861.462C898.962 859.128 904.747 857.961 911.231 857.961C918.213 857.961 924.447 859.273 929.833 861.901C935.22 864.449 939.558 868.06 942.85 872.728C946.092 877.322 948.037 882.678 948.635 888.807H932.975C932.477 885.376 931.18 882.463 929.185 880.055C927.14 877.576 924.547 875.681 921.405 874.369C918.312 873.057 914.921 872.399 911.231 872.399C907.49 872.399 904.099 873.057 901.057 874.369C898.064 875.681 895.521 877.541 893.376 879.945C891.281 882.354 889.636 885.231 888.489 888.588C887.391 891.939 886.843 895.66 886.843 899.744C886.843 904.193 887.441 908.163 888.688 911.664C889.935 915.165 891.68 918.152 893.925 920.636C896.219 923.04 898.912 924.9 902.154 926.212C905.346 927.454 908.986 928.072 912.976 928.072C918.313 928.072 922.951 926.98 926.99 924.79C930.98 922.531 933.923 919.614 935.718 916.038L932.975 928.621V908.053H947.339V925.773C943.898 930.95 939.209 934.999 933.324 937.917C927.389 940.76 920.607 942.181 912.976 942.181V942.181ZM910.483 911.12V899.525H953.972V911.12H910.483Z" fill="#161616"/>
<path d="M966.79 940.102V859.712H982.3V940.102H966.79ZM1015.56 940.102L991.078 905.321H1008.48L1033.72 940.102H1015.56ZM977.711 913.415V900.837H998.059C1000.9 900.837 1003.35 900.254 1005.39 899.087C1007.54 897.92 1009.13 896.279 1010.33 894.164C1011.48 892.049 1012.07 889.646 1012.07 886.947C1012.07 884.175 1011.48 881.731 1010.33 879.616C1009.13 877.502 1007.54 875.861 1005.39 874.694C1003.35 873.527 1000.9 872.948 998.059 872.948H977.711V859.712H996.414C1002.85 859.712 1008.38 860.66 1013.07 862.555C1017.81 864.45 1021.45 867.333 1023.99 871.198C1026.54 875.063 1027.83 879.91 1027.83 885.741V887.491C1027.83 893.401 1026.49 898.249 1023.89 902.039C1021.35 905.829 1017.71 908.677 1013.07 910.572C1008.38 912.467 1002.85 913.415 996.414 913.415H977.711Z" fill="#161616"/>
<path d="M1037.66 940.102L1064.89 860.256H1090.27L1118.25 940.102H1102.29L1078.55 870.869L1084.14 873.273H1070.47L1076.16 870.869L1053.22 940.102H1037.66ZM1056.71 918.886L1061.6 905.76H1094.01L1098.8 918.886H1056.71Z" fill="#161616"/>
<path d="M1143.44 915.604V902.149H1158.95C1162.09 902.149 1164.73 901.53 1166.83 900.288C1169.02 899.052 1170.67 897.336 1171.77 895.152C1172.91 892.962 1173.51 890.449 1173.51 887.601C1173.51 884.758 1172.91 882.245 1171.77 880.055C1170.67 877.866 1169.02 876.19 1166.83 875.023C1164.73 873.786 1162.09 873.163 1158.95 873.163H1143.44V859.712H1157.65C1164.33 859.712 1170.02 860.804 1174.71 862.994C1179.45 865.178 1183.04 868.315 1185.53 872.4C1188.02 876.409 1189.27 881.187 1189.27 886.728V888.479C1189.27 894.019 1188.02 898.832 1185.53 902.917C1183.04 906.927 1179.45 910.063 1174.71 912.323C1170.02 914.507 1164.33 915.604 1157.65 915.604H1143.44ZM1130.07 940.102V859.712H1145.63V940.102H1130.07Z" fill="#161616"/>
<path d="M1254.46 940.102V860.256H1269.97V940.102H1254.46ZM1202.04 940.102V860.256H1217.6V940.102H1202.04ZM1214.76 906.962V893.292H1257.3V906.962H1214.76Z" fill="#161616"/>
<path d="M1289.86 940.102V860.256H1305.43V940.102H1289.86Z" fill="#161616"/>
<path d="M1361.33 942.181C1354.1 942.181 1347.92 940.904 1342.73 938.351C1337.54 935.802 1333.3 932.481 1330.01 928.401C1326.82 924.317 1324.43 919.868 1322.93 915.055C1321.38 910.243 1320.64 905.614 1320.64 901.166V898.757C1320.64 893.8 1321.38 888.917 1322.93 884.104C1324.53 879.292 1326.97 874.913 1330.26 870.978C1333.5 867.038 1337.69 863.906 1342.73 861.572C1347.82 859.163 1353.85 857.961 1360.78 857.961C1367.97 857.961 1374.25 859.273 1379.59 861.901C1384.97 864.449 1389.26 868.095 1392.5 872.838C1395.7 877.501 1397.64 882.972 1398.29 889.241H1382.63C1382.08 885.595 1380.73 882.533 1378.69 880.055C1376.74 877.501 1374.2 875.606 1371.16 874.369C1368.12 873.057 1364.62 872.399 1360.78 872.399C1356.84 872.399 1353.3 873.092 1350.26 874.479C1347.22 875.79 1344.63 877.686 1342.63 880.164C1340.59 882.643 1338.99 885.561 1337.89 888.917C1336.9 892.268 1336.4 895.989 1336.4 900.069C1336.4 904.008 1336.9 907.654 1337.89 911.011C1338.99 914.362 1340.59 917.315 1342.73 919.868C1344.82 922.347 1347.42 924.282 1350.46 925.663C1353.6 927.05 1357.24 927.743 1361.33 927.743C1367.27 927.743 1372.3 926.287 1376.39 923.369C1380.58 920.377 1383.08 916.222 1383.97 910.901H1399.59C1398.89 916.586 1396.94 921.798 1393.8 926.541C1390.66 931.279 1386.37 935.069 1380.88 937.917C1375.4 940.76 1368.91 942.181 1361.33 942.181V942.181Z" fill="#161616"/>
<path d="M300.683 1071.79V1057.36H317.201C321.355 1057.36 325.036 1056.73 328.243 1055.5C331.524 1054.19 334.297 1052.36 336.556 1050.03C338.821 1047.69 340.531 1044.96 341.698 1041.82C342.94 1038.62 343.559 1035.08 343.559 1031.21C343.559 1027.2 342.94 1023.63 341.698 1020.5C340.531 1017.28 338.821 1014.55 336.556 1012.29C334.297 1010.03 331.524 1008.32 328.243 1007.15C325.036 1005.98 321.355 1005.4 317.201 1005.4H300.683V990.962H316.213C323.435 990.962 329.739 992.019 335.135 994.134C340.531 996.248 345.02 999.166 348.591 1002.89C352.162 1006.53 354.825 1010.73 356.575 1015.46C358.396 1020.13 359.309 1024.98 359.309 1030.01V1032.42C359.309 1037.23 358.396 1041.97 356.575 1046.63C354.825 1051.3 352.162 1055.53 348.591 1059.32C345.02 1063.12 340.531 1066.14 335.135 1068.4C329.739 1070.66 323.435 1071.79 316.213 1071.79H300.683ZM287.337 1071.79V990.962H302.872V1071.79H287.337Z" fill="#161616"/>
<path d="M373.198 1071.36V991.511H388.404V1071.36H373.198ZM386.214 1071.36V1058.23H422.417V1071.36H386.214ZM386.214 1037.34V1024.21H419.575V1037.34H386.214ZM386.214 1004.64V991.511H421.544V1004.64H386.214Z" fill="#161616"/>
<path d="M464.964 1073.43C457.892 1073.43 451.917 1072.3 447.03 1070.05C442.217 1067.78 438.531 1064.68 435.983 1060.74C433.429 1056.73 432.152 1052.22 432.152 1047.18H447.359C447.359 1049.3 447.942 1051.38 449.109 1053.42C450.276 1055.39 452.131 1056.99 454.685 1058.23C457.308 1059.47 460.735 1060.09 464.964 1060.09C468.759 1060.09 471.931 1059.54 474.479 1058.45C477.033 1057.36 478.933 1055.93 480.17 1054.19C481.412 1052.36 482.03 1050.32 482.03 1048.06C482.03 1045.21 480.823 1042.95 478.42 1041.28C476.011 1039.53 472.295 1038.43 467.263 1038L460.266 1037.45C452.605 1036.8 446.481 1034.42 441.888 1030.34C437.369 1026.18 435.105 1020.72 435.105 1013.93C435.105 1008.83 436.312 1004.45 438.716 1000.81C441.125 997.092 444.476 994.244 448.78 992.279C453.154 990.234 458.256 989.212 464.091 989.212C470.145 989.212 475.357 990.269 479.731 992.384C484.11 994.498 487.501 997.491 489.905 1001.36C492.309 1005.15 493.511 1009.63 493.511 1014.81H478.31C478.31 1012.62 477.761 1010.62 476.669 1008.79C475.647 1006.9 474.081 1005.4 471.966 1004.31C469.926 1003.14 467.298 1002.56 464.091 1002.56C461.029 1002.56 458.475 1003.07 456.436 1004.09C454.396 1005.11 452.865 1006.5 451.842 1008.25C450.82 1009.99 450.311 1011.89 450.311 1013.93C450.311 1016.41 451.224 1018.6 453.044 1020.5C454.87 1022.32 457.747 1023.37 461.687 1023.67L468.684 1024.32C474.375 1024.76 479.367 1025.96 483.671 1027.93C487.975 1029.9 491.292 1032.57 493.621 1035.92C496.03 1039.27 497.236 1043.32 497.236 1048.06C497.236 1053.09 495.92 1057.54 493.296 1061.4C490.668 1065.19 486.913 1068.15 482.03 1070.26C477.218 1072.37 471.527 1073.43 464.964 1073.43V1073.43Z" fill="#161616"/>
<path d="M511.67 1071.36V991.511H527.2V1071.36H511.67Z" fill="#161616"/>
<path d="M584.314 1073.43C577.432 1073.43 571.397 1072.3 566.16 1070.05C560.974 1067.71 556.585 1064.61 552.994 1060.74C549.503 1056.81 546.86 1052.4 545.014 1047.51C543.269 1042.55 542.421 1037.41 542.421 1032.09V1029.68C542.421 1024.65 543.269 1019.73 545.014 1014.92C546.76 1010.1 549.354 1005.76 552.695 1001.9C556.136 998.039 560.325 994.972 565.263 992.713C570.3 990.379 576.035 989.212 582.569 989.212C589.551 989.212 595.735 990.529 601.121 993.152C606.557 995.705 610.896 999.311 614.138 1003.98C617.43 1008.57 619.375 1013.93 619.973 1020.06H604.313C603.815 1016.63 602.518 1013.71 600.473 1011.31C598.428 1008.83 595.835 1006.93 592.743 1005.62C589.651 1004.31 586.259 1003.65 582.569 1003.65C578.828 1003.65 575.437 1004.31 572.395 1005.62C569.402 1006.93 566.809 1008.79 564.714 1011.2C562.62 1013.6 560.974 1016.49 559.777 1019.84C558.68 1023.2 558.131 1026.91 558.131 1031C558.131 1035.44 558.779 1039.42 560.026 1042.92C561.273 1046.42 563.018 1049.41 565.263 1051.89C567.507 1054.29 570.25 1056.15 573.492 1057.46C576.684 1058.7 580.274 1059.32 584.314 1059.32C589.601 1059.32 594.289 1058.23 598.279 1056.04C602.318 1053.78 605.211 1050.86 607.056 1047.29L604.313 1059.87V1039.31H618.627V1057.03C615.235 1062.21 610.547 1066.25 604.662 1069.17C598.728 1072.01 591.945 1073.43 584.314 1073.43V1073.43ZM581.771 1042.37V1030.78H625.31V1042.37H581.771Z" fill="#161616"/>
<path d="M638.127 1071.36V991.511H663.612L697.177 1058.45H700.767L698.573 1060.42V991.511H713.235V1071.36H687.651L654.086 1004.42H650.346L652.54 1002.45V1071.36H638.127Z" fill="#161616"/>
<path d="M783.806 1073.43C776.724 1073.43 770.739 1072.3 765.852 1070.05C761.064 1067.78 757.374 1064.68 754.83 1060.74C752.287 1056.73 750.99 1052.22 750.99 1047.18H766.201C766.201 1049.3 766.749 1051.38 767.946 1053.42C769.093 1055.39 770.989 1056.99 773.532 1058.23C776.126 1059.47 779.567 1060.09 783.806 1060.09C787.596 1060.09 790.788 1059.54 793.332 1058.45C795.875 1057.36 797.77 1055.93 799.017 1054.19C800.264 1052.36 800.863 1050.32 800.863 1048.06C800.863 1045.21 799.665 1042.95 797.271 1041.28C794.827 1039.53 791.137 1038.43 786.1 1038L779.118 1037.45C771.438 1036.8 765.303 1034.42 760.715 1030.34C756.176 1026.18 753.932 1020.72 753.932 1013.93C753.932 1008.83 755.129 1004.45 757.573 1000.81C759.967 997.092 763.308 994.244 767.597 992.279C771.986 990.234 777.073 989.212 782.908 989.212C788.992 989.212 794.179 990.269 798.568 992.384C802.957 994.498 806.348 997.491 808.742 1001.36C811.136 1005.15 812.333 1009.63 812.333 1014.81H797.122C797.122 1012.62 796.573 1010.62 795.526 1008.79C794.479 1006.9 792.933 1005.4 790.788 1004.31C788.743 1003.14 786.15 1002.56 782.908 1002.56C779.866 1002.56 777.323 1003.07 775.278 1004.09C773.233 1005.11 771.687 1006.5 770.689 1008.25C769.642 1009.99 769.144 1011.89 769.144 1013.93C769.144 1016.41 770.041 1018.6 771.886 1020.5C773.682 1022.32 776.574 1023.37 780.514 1023.67L787.496 1024.32C793.232 1024.76 798.219 1025.96 802.508 1027.93C806.797 1029.9 810.139 1032.57 812.433 1035.92C814.877 1039.27 816.073 1043.32 816.073 1048.06C816.073 1053.09 814.777 1057.54 812.134 1061.4C809.491 1065.19 805.75 1068.15 800.863 1070.26C796.075 1072.37 790.339 1073.43 783.806 1073.43V1073.43Z" fill="#161616"/>
<path d="M830.287 1071.36V991.511H845.498V1071.36H830.287ZM843.304 1071.36V1058.23H879.512V1071.36H843.304ZM843.304 1037.34V1024.21H876.669V1037.34H843.304ZM843.304 1004.64V991.511H878.614V1004.64H843.304Z" fill="#161616"/>
<path d="M895.471 1071.36V990.962H910.981V1071.36H895.471ZM944.246 1071.36L919.759 1036.58H937.164L962.4 1071.36H944.246ZM906.393 1044.67V1032.09H926.741C929.584 1032.09 932.027 1031.51 934.072 1030.34C936.217 1029.17 937.863 1027.53 939.01 1025.42C940.157 1023.3 940.755 1020.9 940.755 1018.2C940.755 1015.43 940.157 1012.99 939.01 1010.87C937.863 1008.76 936.217 1007.12 934.072 1005.95C932.027 1004.78 929.584 1004.2 926.741 1004.2H906.393V990.962H925.095C931.528 990.962 937.065 991.909 941.753 993.81C946.491 995.705 950.131 998.582 952.675 1002.45C955.218 1006.31 956.515 1011.16 956.515 1017V1018.75C956.515 1024.65 955.218 1029.5 952.575 1033.29C950.031 1037.08 946.391 1039.93 941.753 1041.82C937.065 1043.72 931.528 1044.67 925.095 1044.67H906.393Z" fill="#161616"/>
<path d="M990.728 1071.36L965.243 991.511H981.352L1002.45 1060.63L997.86 1058.45H1009.68L1004.94 1060.63L1024.44 991.511H1039.95L1016.31 1071.36H990.728Z" fill="#161616"/>
<path d="M1052.77 1071.36V991.511H1068.28V1071.36H1052.77Z" fill="#161616"/>
<path d="M1124.19 1073.43C1116.96 1073.43 1110.77 1072.16 1105.59 1069.61C1100.4 1067.05 1096.16 1063.74 1092.92 1059.65C1089.68 1055.57 1087.33 1051.12 1085.79 1046.31C1084.24 1041.49 1083.49 1036.87 1083.49 1032.42V1030.01C1083.49 1025.06 1084.24 1020.17 1085.79 1015.36C1087.38 1010.54 1089.83 1006.17 1093.12 1002.23C1096.41 998.294 1100.55 995.157 1105.59 992.823C1110.67 990.419 1116.71 989.212 1123.64 989.212C1130.87 989.212 1137.1 990.529 1142.44 993.152C1147.83 995.705 1152.17 999.351 1155.36 1004.09C1158.55 1008.76 1160.5 1014.22 1161.14 1020.5H1145.48C1144.93 1016.85 1143.64 1013.79 1141.59 1011.31C1139.6 1008.76 1137.1 1006.86 1134.01 1005.62C1130.97 1004.31 1127.48 1003.65 1123.64 1003.65C1119.7 1003.65 1116.21 1004.34 1113.12 1005.73C1110.07 1007.04 1107.53 1008.94 1105.49 1011.42C1103.44 1013.9 1101.84 1016.81 1100.8 1020.17C1099.75 1023.52 1099.25 1027.24 1099.25 1031.32C1099.25 1035.26 1099.75 1038.91 1100.8 1042.26C1101.84 1045.62 1103.49 1048.57 1105.59 1051.12C1107.68 1053.6 1110.27 1055.53 1113.36 1056.92C1116.51 1058.31 1120.1 1058.99 1124.19 1058.99C1130.17 1058.99 1135.21 1057.54 1139.25 1054.62C1143.44 1051.63 1145.93 1047.47 1146.83 1042.15H1162.44C1161.74 1047.84 1159.8 1053.05 1156.65 1057.79C1153.51 1062.53 1149.22 1066.33 1143.74 1069.17C1138.3 1072.01 1131.77 1073.43 1124.19 1073.43V1073.43Z" fill="#161616"/>
<path d="M1175.61 1071.36V991.511H1190.77V1071.36H1175.61ZM1188.62 1071.36V1058.23H1224.83V1071.36H1188.62ZM1188.62 1037.34V1024.21H1221.99V1037.34H1188.62ZM1188.62 1004.64V991.511H1223.93V1004.64H1188.62Z" fill="#161616"/>
<path d="M1267.37 1073.43C1260.29 1073.43 1254.31 1072.3 1249.42 1070.05C1244.58 1067.78 1240.94 1064.68 1238.35 1060.74C1235.8 1056.73 1234.56 1052.22 1234.56 1047.18H1249.77C1249.77 1049.3 1250.32 1051.38 1251.51 1053.42C1252.66 1055.39 1254.51 1056.99 1257.05 1058.23C1259.69 1059.47 1263.13 1060.09 1267.37 1060.09C1271.16 1060.09 1274.3 1059.54 1276.85 1058.45C1279.44 1057.36 1281.34 1055.93 1282.58 1054.19C1283.78 1052.36 1284.43 1050.32 1284.43 1048.06C1284.43 1045.21 1283.23 1042.95 1280.79 1041.28C1278.39 1039.53 1274.7 1038.43 1269.67 1038L1262.63 1037.45C1255 1036.8 1248.87 1034.42 1244.28 1030.34C1239.74 1026.18 1237.5 1020.72 1237.5 1013.93C1237.5 1008.83 1238.7 1004.45 1241.09 1000.81C1243.53 997.092 1246.87 994.244 1251.16 992.279C1255.55 990.234 1260.64 989.212 1266.47 989.212C1272.51 989.212 1277.75 990.269 1282.14 992.384C1286.47 994.498 1289.86 997.491 1292.31 1001.36C1294.7 1005.15 1295.9 1009.63 1295.9 1014.81H1280.69C1280.69 1012.62 1280.14 1010.62 1279.04 1008.79C1278.05 1006.9 1276.45 1005.4 1274.35 1004.31C1272.31 1003.14 1269.67 1002.56 1266.47 1002.56C1263.43 1002.56 1260.89 1003.07 1258.84 1004.09C1256.8 1005.11 1255.25 1006.5 1254.21 1008.25C1253.21 1009.99 1252.71 1011.89 1252.71 1013.93C1252.71 1016.41 1253.61 1018.6 1255.45 1020.5C1257.25 1022.32 1260.14 1023.37 1264.08 1023.67L1271.06 1024.32C1276.75 1024.76 1281.74 1025.96 1286.07 1027.93C1290.36 1029.9 1293.66 1032.57 1296 1035.92C1298.39 1039.27 1299.64 1043.32 1299.64 1048.06C1299.64 1053.09 1298.29 1057.54 1295.7 1061.4C1293.06 1065.19 1289.32 1068.15 1284.43 1070.26C1279.59 1072.37 1273.91 1073.43 1267.37 1073.43V1073.43Z" fill="#161616"/>
<path d="M0.632812 922.771V877.496H9.25097V922.771H0.632812ZM8.01389 922.771V915.325H28.5417V922.771H8.01389ZM8.01389 903.48V896.039H26.9256V903.48H8.01389ZM8.01389 884.937V877.496H28.0428V884.937H8.01389Z" fill="#161616"/>
<path d="M52.665 923.948C48.6552 923.948 45.2638 923.304 42.4959 922.022C39.7678 920.741 37.6783 918.985 36.232 916.751C34.7856 914.482 34.0625 911.918 34.0625 909.061H42.6807C42.6807 910.262 43.0097 911.439 43.673 912.596C44.3413 913.714 45.3937 914.626 46.84 915.325C48.3262 916.028 50.2713 916.382 52.6701 916.382C54.8197 916.382 56.6149 916.073 58.0662 915.449C59.5125 914.831 60.5848 914.023 61.288 913.03C61.9912 911.998 62.3403 910.841 62.3403 909.559C62.3403 907.948 61.6572 906.667 60.2957 905.714C58.9291 904.722 56.8196 904.103 53.9669 903.854L49.9969 903.545C45.658 903.171 42.1869 901.829 39.5785 899.51C37.0151 897.156 35.7382 894.054 35.7382 890.209C35.7382 887.316 36.4164 884.832 37.7829 882.768C39.1444 880.658 41.0498 879.047 43.4885 877.93C45.9672 876.773 48.8597 876.194 52.1712 876.194C55.6025 876.194 58.56 876.793 61.0387 877.99C63.5174 879.192 65.4425 880.887 66.804 883.077C68.1705 885.226 68.8538 887.77 68.8538 890.707H60.2308C60.2308 889.465 59.9216 888.328 59.3082 887.296C58.7247 886.219 57.8368 885.371 56.6398 884.752C55.4828 884.089 53.9918 883.76 52.1764 883.76C50.4358 883.76 48.9894 884.049 47.8323 884.628C46.6753 885.206 45.8076 885.994 45.2291 886.982C44.6506 887.974 44.3564 889.052 44.3564 890.209C44.3564 891.615 44.8749 892.857 45.9073 893.929C46.9446 894.966 48.5753 895.565 50.8096 895.729L54.7796 896.099C58.0064 896.348 60.8342 897.031 63.273 898.148C65.7168 899.265 67.5971 900.772 68.9187 902.677C70.2852 904.577 70.9633 906.871 70.9633 909.559C70.9633 912.412 70.2202 914.936 68.729 917.125C67.2428 919.274 65.1134 920.95 62.3455 922.147C59.6174 923.349 56.3907 923.948 52.6701 923.948H52.665Z" fill="#161616"/>
<path d="M86.7132 922.771V884.009H95.5207V922.771H86.7132ZM73.6265 885.246V877.496H108.602V885.246H73.6265Z" fill="#161616"/>
<path d="M108.727 922.771V912.847H118.402V922.771H108.727Z" fill="#161616"/>
<path d="M1455.94 922.771V914.088C1455.94 912.183 1456.24 910.532 1456.84 909.125C1457.44 907.719 1458.44 906.477 1459.83 905.405C1461.23 904.288 1463.07 903.235 1465.32 902.243L1473 898.832C1474.94 897.964 1476.39 896.906 1477.34 895.665C1478.38 894.383 1478.93 892.752 1478.93 890.767C1478.93 888.578 1478.23 886.837 1476.94 885.555C1475.64 884.234 1473.8 883.575 1471.4 883.575C1469.01 883.575 1467.16 884.234 1465.82 885.555C1464.52 886.882 1463.92 888.722 1463.92 891.076H1455.39C1455.39 888.269 1455.99 885.745 1457.19 883.511C1458.39 881.236 1460.18 879.461 1462.52 878.179C1464.92 876.853 1467.86 876.194 1471.4 876.194C1474.94 876.194 1477.94 876.833 1480.28 878.114C1482.62 879.396 1484.42 881.112 1485.62 883.261C1486.81 885.371 1487.41 887.73 1487.41 890.333V891.141C1487.41 894.528 1486.46 897.36 1484.57 899.635C1482.67 901.869 1479.88 903.814 1476.19 905.465L1468.51 908.876C1467.06 909.499 1466.02 910.158 1465.47 910.861C1464.87 911.524 1464.57 912.432 1464.57 913.589V917.559L1462.47 915.265H1487.61V922.771H1455.94Z" fill="#161616"/>
<path d="M1514.34 923.948C1510.75 923.948 1507.76 923.369 1505.27 922.212C1502.77 921.01 1500.78 919.399 1499.18 917.374C1497.64 915.305 1496.44 912.951 1495.74 910.302C1494.99 907.614 1494.64 904.806 1494.64 901.869V898.398C1494.64 894.218 1495.39 890.458 1496.79 887.106C1498.18 883.76 1500.33 881.112 1503.22 879.172C1506.11 877.187 1509.8 876.194 1514.34 876.194C1518.78 876.194 1522.47 877.187 1525.36 879.172C1528.26 881.112 1530.4 883.76 1531.75 887.106C1533.14 890.458 1533.84 894.218 1533.84 898.398V901.869C1533.84 904.806 1533.49 907.614 1532.75 910.302C1532.05 912.951 1530.9 915.305 1529.3 917.374C1527.81 919.399 1525.81 921.01 1523.32 922.212C1520.83 923.369 1517.83 923.948 1514.34 923.948ZM1514.34 915.883C1517.98 915.883 1520.73 914.626 1522.47 912.103C1524.17 909.539 1525.07 905.569 1525.07 900.193C1525.07 894.488 1524.17 890.418 1522.37 887.974C1520.63 885.496 1517.93 884.254 1514.34 884.254C1510.7 884.254 1507.96 885.496 1506.11 887.974C1504.37 890.418 1503.47 894.448 1503.47 900.068C1503.47 905.485 1504.37 909.474 1506.11 912.038C1507.91 914.601 1510.65 915.883 1514.34 915.883V915.883Z" fill="#161616"/>
<path d="M1541.72 922.771V914.088C1541.72 912.183 1542.02 910.532 1542.62 909.125C1543.22 907.719 1544.22 906.477 1545.56 905.405C1547.01 904.288 1548.8 903.235 1551.1 902.243L1558.78 898.832C1560.67 897.964 1562.12 896.906 1563.12 895.665C1564.17 894.383 1564.66 892.752 1564.66 890.767C1564.66 888.578 1564.02 886.837 1562.72 885.555C1561.42 884.234 1559.58 883.575 1557.18 883.575C1554.79 883.575 1552.89 884.234 1551.6 885.555C1550.3 886.882 1549.65 888.722 1549.65 891.076H1541.17C1541.17 888.269 1541.77 885.745 1542.97 883.511C1544.17 881.236 1545.96 879.461 1548.31 878.179C1550.65 876.853 1553.64 876.194 1557.18 876.194C1560.72 876.194 1563.67 876.833 1566.06 878.114C1568.4 879.396 1570.2 881.112 1571.4 883.261C1572.59 885.371 1573.19 887.73 1573.19 890.333V891.141C1573.19 894.528 1572.24 897.36 1570.35 899.635C1568.4 901.869 1565.61 903.814 1561.97 905.465L1554.24 908.876C1552.79 909.499 1551.8 910.158 1551.2 910.861C1550.65 911.524 1550.35 912.432 1550.35 913.589V917.559L1548.26 915.265H1573.34V922.771H1541.72Z" fill="#161616"/>
<path d="M1588.05 922.771V882.952L1590.8 885.062H1578.83V877.496H1596.83V922.771H1588.05Z" fill="#161616"/>
<path d="M0.632324 943.563V953.558H115.34V943.563H0.632324Z" fill="#161616"/>
<path d="M1456.94 943.563V953.558H1596.58V943.563H1456.94Z" fill="#161616"/>
</svg>
