<svg width="60" height="57" viewBox="0 0 60 57" fill="none" xmlns="http://www.w3.org/2000/svg">
<path d="M46.7684 10.2396L31.3832 25.6266C31.2011 25.8087 30.9849 25.9532 30.747 26.0518C30.509 26.1504 30.2539 26.2011 29.9964 26.2011C29.7388 26.2011 29.4838 26.1504 29.2458 26.0518C29.0078 25.9533 28.7916 25.8088 28.6095 25.6267L13.2219 10.2395C13.0398 10.0573 12.8953 9.84114 12.7968 9.60318C12.6982 9.36521 12.6475 9.11012 12.6475 8.85255C12.6475 8.59498 12.6982 8.33994 12.7968 8.10198C12.8953 7.86402 13.0398 7.64782 13.2219 7.4657L14.9885 5.69911C15.3563 5.33127 15.8552 5.12461 16.3754 5.1246C16.8956 5.12458 17.3945 5.33124 17.7623 5.69906L25.3993 13.3354C25.5129 13.449 25.6576 13.5263 25.8152 13.5577C25.9728 13.589 26.1361 13.5729 26.2846 13.5114C26.433 13.4499 26.5598 13.3458 26.6491 13.2122C26.7383 13.0786 26.786 12.9215 26.7859 12.7608L26.7837 1.96137C26.7837 1.70381 26.8344 1.44881 26.9329 1.21085C27.0315 0.972889 27.1759 0.756647 27.358 0.574513C27.5402 0.39238 27.7563 0.247919 27.9943 0.149348C28.2322 0.0507768 28.4873 -9.2443e-07 28.7448 0H31.2434C31.7635 0 32.2624 0.206685 32.6303 0.574513C32.9981 0.942342 33.2047 1.44118 33.2047 1.96137V12.7561C33.2047 12.9168 33.2524 13.074 33.3417 13.2076C33.4309 13.3412 33.5578 13.4454 33.7063 13.5069C33.8548 13.5684 34.0182 13.5845 34.1758 13.5532C34.3334 13.5218 34.4782 13.4444 34.5918 13.3308L42.2259 5.6989C42.5938 5.33109 43.0928 5.12449 43.613 5.12449C44.1333 5.12449 44.6322 5.33109 45.0001 5.6989L46.7676 7.46586C46.9497 7.64797 47.0942 7.86419 47.1928 8.10214C47.2914 8.3401 47.3421 8.59515 47.3421 8.85271C47.3421 9.11027 47.2914 9.36533 47.1928 9.60328C47.0942 9.84124 46.9497 10.0575 46.7676 10.2396H46.7684Z" fill="#F0A2FD"/>
<path d="M46.7684 46.5202L31.3832 31.1332C31.2011 30.951 30.9849 30.8065 30.747 30.7079C30.509 30.6094 30.2539 30.5586 29.9964 30.5586C29.7388 30.5586 29.4838 30.6093 29.2458 30.7079C29.0078 30.8064 28.7916 30.9509 28.6095 31.133L13.2219 46.5203C13.0398 46.7024 12.8953 46.9186 12.7968 47.1565C12.6982 47.3945 12.6475 47.6495 12.6475 47.9071C12.6475 48.1647 12.6982 48.4198 12.7968 48.6577C12.8953 48.8957 13.0398 49.1119 13.2219 49.294L14.9885 51.0606C15.3563 51.4284 15.8552 51.635 16.3754 51.6351C16.8956 51.6351 17.3945 51.4285 17.7623 51.0607L25.3993 43.4243C25.5129 43.3107 25.6576 43.2334 25.8152 43.202C25.9728 43.1707 26.1361 43.1868 26.2846 43.2483C26.433 43.3098 26.5598 43.4139 26.6491 43.5475C26.7383 43.6811 26.786 43.8382 26.7859 43.9988L26.7837 54.7983C26.7837 55.0559 26.8344 55.3109 26.9329 55.5489C27.0315 55.7868 27.1759 56.0031 27.358 56.1852C27.5402 56.3673 27.7563 56.5118 27.9943 56.6104C28.2322 56.7089 28.4873 56.7597 28.7448 56.7597H31.2434C31.7635 56.7597 32.2624 56.553 32.6303 56.1852C32.9981 55.8174 33.2047 55.3185 33.2047 54.7983V44.0035C33.2047 43.8428 33.2524 43.6858 33.3417 43.5521C33.4309 43.4185 33.5578 43.3144 33.7063 43.2529C33.8548 43.1913 34.0182 43.1752 34.1758 43.2066C34.3334 43.2379 34.4782 43.3153 34.5918 43.4289L42.2259 51.0608C42.5938 51.4286 43.0928 51.6352 43.613 51.6352C44.1333 51.6352 44.6322 51.4286 45.0001 51.0608L46.7676 49.2939C46.9497 49.1117 47.0942 48.8955 47.1928 48.6576C47.2914 48.4196 47.3421 48.1646 47.3421 47.907C47.3421 47.6494 47.2914 47.3944 47.1928 47.1564C47.0942 46.9185 46.9497 46.7023 46.7676 46.5202H46.7684Z" fill="#F0A2FD"/>
<path d="M10.2395 11.6166L25.6265 27.0018C25.8087 27.1839 25.9531 27.4001 26.0517 27.6381C26.1503 27.8761 26.2011 28.1311 26.2011 28.3887C26.2011 28.6462 26.1504 28.9013 26.0518 29.1392C25.9532 29.3772 25.8088 29.5934 25.6267 29.7755L10.2394 45.1631C10.0573 45.3452 9.84108 45.4897 9.60312 45.5883C9.36516 45.6868 9.11012 45.7376 8.85255 45.7376C8.59498 45.7376 8.33994 45.6868 8.10198 45.5883C7.86402 45.4897 7.6478 45.3452 7.46567 45.1631L5.69911 43.3966C5.33127 43.0287 5.12461 42.5299 5.1246 42.0097C5.12458 41.4895 5.33119 40.9906 5.69901 40.6228L13.3354 32.9858C13.449 32.8722 13.5263 32.7274 13.5577 32.5698C13.589 32.4122 13.5729 32.2489 13.5114 32.1005C13.4499 31.9521 13.3458 31.8252 13.2122 31.7359C13.0786 31.6467 12.9215 31.5991 12.7608 31.5991L1.96137 31.6013C1.70381 31.6014 1.44876 31.5506 1.2108 31.4521C0.972836 31.3535 0.756621 31.2091 0.574487 31.027C0.392353 30.8449 0.247866 30.6287 0.149295 30.3907C0.0507236 30.1528 -9.2443e-07 29.8978 0 29.6402V27.1417C0 26.6215 0.206632 26.1226 0.57446 25.7548C0.942288 25.387 1.44118 25.1803 1.96137 25.1803H12.7561C12.9168 25.1803 13.0739 25.1326 13.2076 25.0434C13.3412 24.9541 13.4453 24.8272 13.5068 24.6788C13.5683 24.5303 13.5845 24.3669 13.5531 24.2093C13.5218 24.0516 13.4444 23.9069 13.3308 23.7932L5.6989 16.1591C5.33109 15.7912 5.12444 15.2923 5.12444 14.772C5.12444 14.2518 5.33109 13.7528 5.6989 13.3849L7.46583 11.6174C7.64795 11.4353 7.86416 11.2908 8.10211 11.1923C8.34007 11.0937 8.59512 11.043 8.85268 11.043C9.11025 11.043 9.3653 11.0937 9.60326 11.1923C9.84121 11.2908 10.0574 11.4353 10.2395 11.6174V11.6166Z" fill="#0CBF00"/>
<path d="M49.7604 11.6049L34.3734 26.9901C34.1912 27.1723 34.0468 27.3884 33.9482 27.6264C33.8496 27.8643 33.7988 28.1194 33.7988 28.3769C33.7988 28.6345 33.8495 28.8896 33.9481 29.1275C34.0467 29.3655 34.1911 29.5817 34.3732 29.7639L49.7605 45.1514C49.9426 45.3336 50.1588 45.478 50.3968 45.5766C50.6347 45.6752 50.8898 45.7259 51.1473 45.7259C51.4049 45.7259 51.66 45.6752 51.8979 45.5766C52.1359 45.478 52.3521 45.3336 52.5342 45.1514L54.3008 43.3849C54.6686 43.0171 54.8753 42.5182 54.8753 41.998C54.8753 41.4778 54.6687 40.9789 54.3009 40.611L46.6645 32.9741C46.5509 32.8605 46.4736 32.7157 46.4422 32.5582C46.4109 32.4006 46.427 32.2372 46.4885 32.0888C46.55 31.9403 46.6541 31.8135 46.7877 31.7243C46.9213 31.635 47.0784 31.5874 47.2391 31.5874L58.0385 31.5896C58.2961 31.5896 58.5511 31.539 58.7891 31.4404C59.0271 31.3419 59.2433 31.1974 59.4254 31.0153C59.6075 30.8332 59.752 30.617 59.8506 30.3791C59.9492 30.1411 59.9999 29.8861 59.9999 29.6285V27.13C59.9999 26.6098 59.7933 26.1109 59.4254 25.7431C59.0576 25.3753 58.5587 25.1686 58.0385 25.1686H47.2438C47.0831 25.1686 46.926 25.121 46.7923 25.0317C46.6587 24.9424 46.5546 24.8155 46.4931 24.667C46.4316 24.5186 46.4155 24.3552 46.4468 24.1976C46.4781 24.04 46.5555 23.8952 46.6691 23.7815L54.301 16.1474C54.6688 15.7795 54.8755 15.2806 54.8755 14.7603C54.8755 14.2401 54.6688 13.7412 54.301 13.3733L52.5341 11.6058C52.352 11.4236 52.1357 11.2791 51.8978 11.1805C51.6598 11.082 51.4048 11.0312 51.1472 11.0312C50.8897 11.0312 50.6346 11.082 50.3967 11.1805C50.1587 11.2791 49.9425 11.4236 49.7604 11.6058V11.6049Z" fill="#0CBF00"/>
</svg>
