<svg width="60" height="60" viewBox="0 0 60 60" fill="none" xmlns="http://www.w3.org/2000/svg">
<path d="M2.21597 59.9663L12.7821 59.9632C14.2017 59.9629 15.5633 59.3995 16.5679 58.3964L27.9386 47.0432C28.1445 46.8375 28.3078 46.5932 28.4192 46.3243C28.5307 46.0554 28.588 45.7672 28.588 45.4761C28.588 45.1851 28.5307 44.8969 28.4192 44.6281C28.3078 44.3592 28.1445 44.1148 27.9386 43.9091L16.0825 32.0536C15.6666 31.6378 15.1026 31.4042 14.5145 31.4042C13.9264 31.4042 13.3623 31.6378 12.9464 32.0536L1.58111 43.4077C0.576794 44.411 0.0118555 45.772 0.0104397 47.1916L1.08322e-06 57.7491C-0.000286684 58.0401 0.056764 58.3283 0.167948 58.5972C0.279131 58.8662 0.442229 59.1106 0.647933 59.3165C0.853636 59.5224 1.09791 59.6857 1.36677 59.7971C1.63563 59.9085 1.92383 59.9658 2.21485 59.9657L2.21597 59.9663ZM0.00123826 2.21787L0.0123342 12.7753C0.013804 14.1949 0.578754 15.5559 1.58304 16.5593L12.9477 27.9133C13.3637 28.329 13.9277 28.5626 14.5158 28.5626C15.1039 28.5626 15.6679 28.329 16.0838 27.9133L27.94 16.0572C28.1459 15.8514 28.3092 15.6071 28.4206 15.3382C28.532 15.0693 28.5894 14.781 28.5894 14.4899C28.5894 14.1988 28.532 13.9106 28.4206 13.6416C28.3092 13.3727 28.1459 13.1284 27.94 12.9226L16.5747 1.56851C15.5704 0.565165 14.2088 0.00162055 12.7892 0.00162379H2.2169C1.92587 0.00176735 1.63773 0.0592321 1.36893 0.170807C1.10014 0.282383 0.855953 0.445838 0.650368 0.651836C0.444784 0.857835 0.281803 1.10239 0.17077 1.37141C0.0597364 1.64043 0.00284436 1.92869 0.00328733 2.21972L0.00123826 2.21787ZM32.0606 47.0451L43.426 58.3998C44.4302 59.4032 45.7918 59.9667 47.2114 59.9667H57.7843C58.0753 59.9666 58.3635 59.9091 58.6323 59.7975C58.9011 59.6859 59.1452 59.5225 59.3508 59.3165C59.5564 59.1105 59.7194 58.8659 59.8304 58.5969C59.9415 58.3279 59.9984 58.0396 59.9979 57.7486L59.9868 47.1912C59.9854 45.7716 59.4204 44.4106 58.4161 43.4073L47.0503 32.0531C46.6343 31.6374 46.0703 31.4038 45.4822 31.4038C44.8941 31.4038 44.3301 31.6374 43.9141 32.0531L32.0586 43.9086C31.8528 44.1144 31.6895 44.3588 31.578 44.6277C31.4666 44.8966 31.4092 45.1848 31.4092 45.4759C31.4092 45.767 31.4666 46.0552 31.578 46.3242C31.6895 46.5931 31.8528 46.8374 32.0586 47.0432L32.0606 47.0451ZM32.0606 16.0571L43.9156 27.9126C44.3316 28.3283 44.8956 28.5618 45.4837 28.5618C46.0718 28.5618 46.6358 28.3283 47.0518 27.9126L58.4181 16.5583C59.4225 15.555 59.9874 14.1941 59.9889 12.7744L60 2.21702C60.0003 1.92598 59.9433 1.63775 59.8321 1.36878C59.7209 1.09981 59.5578 0.855416 59.3521 0.649517C59.1465 0.443617 58.9022 0.28024 58.6333 0.168797C58.3645 0.0573541 58.0763 -1.92905e-06 57.7853 0H47.2124C45.7928 -2.33646e-06 44.4312 0.563621 43.427 1.56696L32.0615 12.9217C31.8556 13.1275 31.6923 13.3718 31.5809 13.6407C31.4695 13.9096 31.4121 14.1978 31.4121 14.4889C31.4121 14.78 31.4695 15.0683 31.5809 15.3372C31.6923 15.6061 31.8556 15.8504 32.0615 16.0562L32.0606 16.0571Z" fill="#0CBF00"/>
<path d="M14.7073 31.4146C14.4495 31.3922 14.1897 31.415 13.9397 31.4821C13.5637 31.5827 13.2209 31.7805 12.9456 32.0555L5.98122 39.0133C5.85272 39.1417 5.76517 39.3053 5.72965 39.4834C5.69412 39.6615 5.71222 39.8462 5.78165 40.0141C5.85107 40.1819 5.96869 40.3254 6.11967 40.4264C6.27064 40.5274 6.44817 40.5813 6.62981 40.5814L17.1786 40.5871C17.7667 40.5874 18.3307 40.8213 18.7465 41.2373C19.1624 41.6532 19.396 42.2172 19.3962 42.8054L19.3994 53.3529C19.3994 53.5347 19.4534 53.7125 19.5544 53.8636C19.6554 54.0148 19.799 54.1326 19.9669 54.2022C20.1349 54.2719 20.3197 54.2901 20.498 54.2547C20.6764 54.2194 20.8402 54.1319 20.9689 54.0034L27.9377 47.0452C28.8035 46.18 28.8035 44.7766 27.9377 43.9114L16.0819 32.0556C15.7133 31.6871 15.2267 31.4602 14.7074 31.4147L14.7073 31.4146Z" fill="#F0A2FD"/>
<path d="M45.6755 31.4147C45.4178 31.3922 45.1582 31.4147 44.9084 31.4821V31.4789C44.5325 31.5796 44.1897 31.7773 43.9143 32.0524L32.0585 43.9082C31.1927 44.7737 31.1927 46.1771 32.0585 47.0426L32.0617 47.0458L39.0341 54.0116C39.1626 54.14 39.3263 54.2274 39.5045 54.2627C39.6826 54.2981 39.8673 54.2799 40.0351 54.2103C40.2029 54.1407 40.3463 54.023 40.4472 53.8719C40.5481 53.7208 40.6018 53.5432 40.6018 53.3615L40.5983 42.7941C40.5982 42.5031 40.6555 42.2149 40.7668 41.946C40.8782 41.6771 41.0414 41.4327 41.2472 41.2269C41.453 41.0211 41.6974 40.8579 41.9664 40.7465C42.2353 40.6352 42.5235 40.5779 42.8146 40.5781L53.372 40.5825C53.5535 40.5826 53.7309 40.5288 53.8817 40.428C54.0326 40.3273 54.1502 40.1839 54.2197 40.0163C54.2891 39.8486 54.3073 39.6642 54.2718 39.4862C54.2364 39.3083 54.1489 39.1448 54.0205 39.0166L47.0513 32.0544C46.6825 31.6858 46.1956 31.4588 45.6761 31.4134L45.6755 31.4147Z" fill="#F0A2FD"/>
<path d="M19.401 6.61026L19.4045 17.1708C19.4046 17.4619 19.3474 17.7501 19.236 18.019C19.1247 18.288 18.9614 18.5323 18.7556 18.7381C18.5497 18.9439 18.3054 19.1072 18.0365 19.2185C17.7675 19.3299 17.4793 19.3871 17.1882 19.387L6.6246 19.3835C6.44312 19.3835 6.26571 19.4373 6.1148 19.5381C5.96389 19.6389 5.84626 19.7822 5.77682 19.9499C5.70739 20.1175 5.68925 20.3021 5.72471 20.4801C5.76016 20.6581 5.84762 20.8215 5.97601 20.9498L12.9472 27.9144C13.8133 28.7802 15.2173 28.7802 16.0834 27.9144L27.9393 16.0586C28.8054 15.193 28.8054 13.7891 27.9393 12.9236L20.9687 5.96012C20.8402 5.83173 20.6765 5.74433 20.4984 5.70897C20.3202 5.67361 20.1355 5.69189 19.9677 5.76148C19.7999 5.83107 19.6565 5.94884 19.5556 6.09992C19.4548 6.25101 19.401 6.42859 19.401 6.61026V6.61026Z" fill="#F0A2FD"/>
<path d="M39.0332 5.95641L32.0614 12.9217C31.1957 13.7872 31.1957 15.1906 32.0614 16.0561L43.916 27.9119C44.7822 28.7777 46.1861 28.7777 47.0522 27.9119L54.024 20.9478C54.1524 20.8195 54.24 20.6559 54.2755 20.4778C54.311 20.2997 54.2929 20.1151 54.2235 19.9473C54.1541 19.7795 54.0364 19.6361 53.8855 19.5352C53.7345 19.4342 53.557 19.3803 53.3754 19.3802L42.8242 19.3767C42.2361 19.3765 41.6721 19.1429 41.2562 18.727C40.8403 18.3111 40.6066 17.7471 40.6064 17.159L40.6025 6.60662C40.6025 6.42485 40.5485 6.24711 40.4475 6.09598C40.3465 5.94485 40.203 5.82711 40.035 5.75754C39.8671 5.68796 39.6823 5.66969 39.504 5.70511C39.3257 5.74053 39.1619 5.82801 39.0333 5.95649L39.0332 5.95641Z" fill="#F0A2FD"/>
</svg>
