<svg width="60" height="40" viewBox="0 0 60 40" fill="none" xmlns="http://www.w3.org/2000/svg">
<path d="M41.6785 7.13131L30.9635 17.8475C30.8367 17.9744 30.6861 18.075 30.5204 18.1437C30.3546 18.2123 30.177 18.2476 29.9977 18.2477C29.8183 18.2477 29.6406 18.2124 29.4749 18.1437C29.3092 18.0751 29.1586 17.9744 29.0317 17.8476L18.3151 7.13124C18.1883 7.0044 18.0877 6.85383 18.019 6.6881C17.9504 6.52237 17.915 6.34471 17.915 6.16533C17.915 5.98595 17.9504 5.80833 18.019 5.6426C18.0877 5.47687 18.1883 5.3263 18.3151 5.19946L19.5454 3.96913C19.8016 3.71295 20.1491 3.56902 20.5113 3.56901C20.8736 3.569 21.2211 3.71293 21.4773 3.96909L26.796 9.28739C26.8751 9.36651 26.9759 9.42038 27.0857 9.4422C27.1954 9.46402 27.3092 9.45283 27.4126 9.41C27.5159 9.36717 27.6043 9.29462 27.6664 9.20157C27.7286 9.10852 27.7618 8.99913 27.7617 8.88723L27.7602 1.36599C27.7602 1.18661 27.7955 1.00902 27.8641 0.843294C27.9327 0.677565 28.0334 0.526965 28.1602 0.400118C28.287 0.273272 28.4376 0.172663 28.6033 0.104013C28.769 0.0353633 28.9466 -6.43816e-07 29.126 0H30.8661C31.2284 0 31.5758 0.143945 31.832 0.400118C32.0882 0.656291 32.2321 1.00371 32.2321 1.36599V8.88397C32.2321 8.99589 32.2653 9.10532 32.3275 9.19838C32.3896 9.29144 32.478 9.36398 32.5814 9.40681C32.6848 9.44965 32.7986 9.46088 32.9084 9.43905C33.0181 9.41723 33.119 9.36333 33.1981 9.2842L38.5149 3.96898C38.7711 3.71282 39.1186 3.56894 39.4809 3.56894C39.8432 3.56894 40.1907 3.71282 40.447 3.96898L41.6779 5.19957C41.8047 5.32641 41.9054 5.47699 41.974 5.64271C42.0427 5.80843 42.078 5.98606 42.078 6.16544C42.078 6.34482 42.0427 6.52245 41.974 6.68818C41.9054 6.8539 41.8047 7.00448 41.6779 7.13131H41.6785Z" fill="#F0A2FD"/>
<path d="M41.6785 32.3976L30.9635 21.6814C30.8367 21.5546 30.6861 21.4539 30.5204 21.3853C30.3546 21.3166 30.177 21.2813 29.9977 21.2813C29.8183 21.2812 29.6406 21.3166 29.4749 21.3852C29.3092 21.4539 29.1586 21.5545 29.0317 21.6813L18.3151 32.3977C18.1883 32.5245 18.0877 32.6751 18.019 32.8408C17.9504 33.0066 17.915 33.1842 17.915 33.3636C17.915 33.543 17.9504 33.7206 18.019 33.8863C18.0877 34.0521 18.1883 34.2026 18.3151 34.3295L19.5454 35.5598C19.8016 35.816 20.1491 35.9599 20.5113 35.9599C20.8736 35.9599 21.2211 35.816 21.4773 35.5598L26.796 30.2416C26.8751 30.1624 26.9759 30.1086 27.0857 30.0867C27.1954 30.0649 27.3092 30.0761 27.4126 30.1189C27.5159 30.1618 27.6043 30.2343 27.6664 30.3273C27.7286 30.4204 27.7618 30.5298 27.7617 30.6417L27.7602 38.1629C27.7602 38.3423 27.7955 38.5199 27.8641 38.6856C27.9327 38.8514 28.0334 39.002 28.1602 39.1288C28.287 39.2557 28.4376 39.3563 28.6033 39.4249C28.769 39.4936 28.9466 39.5289 29.126 39.5289H30.8661C31.2284 39.5289 31.5758 39.385 31.832 39.1288C32.0882 38.8727 32.2321 38.5252 32.2321 38.1629V30.6449C32.2321 30.533 32.2653 30.4236 32.3275 30.3306C32.3896 30.2375 32.478 30.165 32.5814 30.1221C32.6848 30.0793 32.7986 30.0681 32.9084 30.0899C33.0181 30.1117 33.119 30.1656 33.1981 30.2447L38.5149 35.56C38.7711 35.8161 39.1186 35.96 39.4809 35.96C39.8432 35.96 40.1907 35.8161 40.447 35.56L41.6779 34.3294C41.8047 34.2025 41.9054 34.052 41.974 33.8862C42.0427 33.7205 42.078 33.5429 42.078 33.3635C42.078 33.1841 42.0427 33.0065 41.974 32.8408C41.9054 32.675 41.8047 32.5245 41.6779 32.3976H41.6785Z" fill="#F0A2FD"/>
<path d="M16.2379 8.09091L26.9541 18.8059C27.4876 19.3393 27.4876 20.2042 26.9542 20.7377L16.2378 31.4543C15.7044 31.9877 14.8395 31.9877 14.306 31.4543L13.0757 30.224C12.5423 29.6905 12.5422 28.8257 13.0757 28.2922L18.394 22.9734C18.7504 22.617 18.4979 22.0076 17.9938 22.0077L1.96137 22.0092C0.878184 22.0093 0 21.3978 0 20.6434V18.9033C0 18.0025 0.878138 17.5373 1.96137 17.5373H17.9906C18.4947 17.5373 18.7472 16.9278 18.3908 16.5713L13.0756 11.2545C12.5422 10.721 12.5422 9.85604 13.0756 9.32247L14.3062 8.0915C14.8396 7.55804 15.7045 7.55804 16.2379 8.0915V8.09091Z" fill="#0CBF00"/>
<path d="M43.7619 8.0831L33.0456 18.7981C32.5122 19.3315 32.5121 20.1964 33.0456 20.7298L43.7619 31.4465C44.2954 31.9799 45.1603 31.9799 45.6937 31.4465L46.9241 30.2162C47.4575 29.6827 47.4575 28.8178 46.9241 28.2843L41.6058 22.9656C41.2494 22.6092 41.5019 21.9998 42.0059 21.9999L58.0384 22.0014C59.1216 22.0015 59.9998 21.5364 59.9998 20.6356V18.8955C59.9998 18.1411 59.1216 17.5295 58.0384 17.5295H42.0092C41.5051 17.5295 41.2526 16.92 41.609 16.5635L46.9242 11.2467C47.4576 10.7132 47.4576 9.84822 46.9242 9.31465L45.6936 8.08369C45.1602 7.55023 44.2953 7.55023 43.7619 8.08369V8.0831Z" fill="#0CBF00"/>
</svg>
