<svg width="60" height="40" viewBox="0 0 60 40" fill="none" xmlns="http://www.w3.org/2000/svg">
<path d="M49.9373 7.84028e-09C49.3461 -4.95351e-05 48.7791 0.234701 48.361 0.652671L35.2021 13.8101L39.5328 18.1408C40.4033 19.0114 40.4033 20.4227 39.5328 21.2933L35.2021 25.6245L48.3615 38.7843C49.2321 39.6547 50.6435 39.6547 51.5141 38.7843L53.5219 36.776C54.3924 35.9055 54.3926 34.4942 53.5219 33.6234L44.8417 24.9428C44.2599 24.361 44.6721 23.3662 45.4949 23.3665L57.7703 23.369C59.0015 23.3691 59.9997 22.3712 59.9998 21.14V18.3C59.9998 17.0687 59.0016 16.0706 57.7703 16.0706H45.5002C44.6773 16.0706 44.2652 15.0757 44.8471 14.4938L53.5219 5.81604C54.3923 4.94522 54.3923 3.53381 53.5219 2.663L51.5136 0.653699C51.0954 0.235606 50.5282 0.000854721 49.9369 0.00102812L49.9373 7.84028e-09Z" fill="#F0A2FD"/>
<path d="M11.639 0.652066L29.129 18.14C29.336 18.347 29.5002 18.5928 29.6123 18.8633C29.7243 19.1338 29.782 19.4236 29.782 19.7164C29.7821 20.0091 29.7244 20.2991 29.6124 20.5696C29.5003 20.8401 29.3361 21.0858 29.1291 21.2928L11.6389 38.7835C11.4318 38.9905 11.1861 39.1547 10.9156 39.2668C10.6451 39.3788 10.3552 39.4365 10.0624 39.4365C9.76965 39.4365 9.47975 39.3788 9.20927 39.2668C8.93878 39.1547 8.69301 38.9905 8.48599 38.7835L6.47799 36.7755C6.05989 36.3574 5.825 35.7903 5.82499 35.199C5.82498 34.6078 6.05985 34.0407 6.47793 33.6225L15.1579 24.9419C15.2871 24.8127 15.375 24.6482 15.4106 24.469C15.4462 24.2899 15.4279 24.1042 15.358 23.9355C15.2881 23.7668 15.1698 23.6226 15.0179 23.5212C14.866 23.4197 14.6875 23.3656 14.5049 23.3656L2.22943 23.3681C1.93668 23.3682 1.64677 23.3105 1.37628 23.1985C1.1058 23.0865 0.86003 22.9223 0.653004 22.7153C0.445977 22.5083 0.281773 22.2626 0.16973 21.9921C0.0576863 21.7217 -1.05077e-06 21.4317 0 21.139V18.299C0 17.7078 0.234903 17.1407 0.653004 16.7226C1.0711 16.3045 1.63815 16.0696 2.22943 16.0696H14.4996C14.6822 16.0696 14.8608 16.0154 15.0127 15.9139C15.1646 15.8125 15.2829 15.6682 15.3529 15.4994C15.4228 15.3307 15.4411 15.145 15.4055 14.9658C15.3699 14.7867 15.2819 14.6221 15.1528 14.4929L6.47778 5.81544C6.0597 5.39723 5.82484 4.83008 5.82484 4.23873C5.82484 3.64739 6.0597 3.08029 6.47778 2.66209L8.48623 0.653034C8.69324 0.446007 8.939 0.281803 9.20948 0.16976C9.47996 0.0577168 9.76984 0 10.0626 0C10.3554 0 10.6453 0.0577168 10.9158 0.16976C11.1862 0.281803 11.432 0.446007 11.639 0.653034V0.652066Z" fill="#F0A2FD"/>
</svg>
