<svg width="60" height="61" viewBox="0 0 60 61" fill="none" xmlns="http://www.w3.org/2000/svg">
<path d="M0.000367496 2.2172L0.00227267 12.7893C0.0025161 14.2098 0.566342 15.5721 1.57 16.5773L12.9296 27.9544C13.1355 28.1605 13.3799 28.3239 13.6489 28.4354C13.918 28.5469 14.2064 28.6043 14.4976 28.6043C14.7888 28.6043 15.0772 28.5469 15.3462 28.4354C15.6152 28.3239 15.8597 28.1605 16.0655 27.9544L27.9279 16.0917C28.3439 15.6756 28.5777 15.1113 28.5778 14.5228C28.578 13.9344 28.3444 13.37 27.9285 12.9537L16.5679 1.58201C15.564 0.577134 14.2022 0.0118522 12.7818 0.0104457L2.21829 1.09002e-06C1.9271 -0.000287671 1.63871 0.0567987 1.36961 0.168043C1.10051 0.279288 0.85598 0.442524 0.649994 0.648341C0.444008 0.854158 0.280609 1.09854 0.169145 1.36755C0.0576801 1.63656 0.000336156 1.92493 0.000386838 2.21612L0.000367496 2.2172ZM57.7818 0.0011616L47.2183 0.0123025C45.7979 0.0137715 44.4362 0.579005 43.4322 1.58387L32.0717 12.955C31.6558 13.3713 31.4222 13.9357 31.4223 14.5241C31.4225 15.1126 31.6563 15.6768 32.0723 16.0929L43.9352 27.9558C44.1411 28.1618 44.3856 28.3253 44.6546 28.4368C44.9237 28.5482 45.2121 28.6056 45.5034 28.6056C45.7946 28.6056 46.083 28.5482 46.3521 28.4368C46.6212 28.3253 46.8657 28.1618 47.0716 27.9558L58.4322 16.5841C59.4361 15.5792 60 14.2169 60 12.7964V2.21813C60 1.92693 59.9426 1.63857 59.8311 1.36956C59.7196 1.10055 59.5561 0.856158 59.3501 0.650353C59.1441 0.444548 58.8995 0.281362 58.6304 0.170132C58.3613 0.0589028 58.0729 0.00178841 57.7817 0.00209001L57.7818 0.0011616ZM12.929 32.0789L1.56782 43.4507C0.563908 44.4556 -2.45801e-06 45.8179 0 47.2383V57.8172C-1.93015e-06 58.1084 0.0573869 58.3968 0.168893 58.6658C0.2804 58.9348 0.443832 59.1792 0.649849 59.385C0.855866 59.5908 1.10043 59.754 1.36955 59.8652C1.63867 59.9765 1.92708 60.0336 2.21828 60.0333L12.7817 60.0221C14.2022 60.0207 15.5639 59.4554 16.5678 58.4505L27.9285 47.0782C28.3443 46.6618 28.5778 46.0975 28.5776 45.5091C28.5775 44.9206 28.3436 44.3563 27.9275 43.9403L16.0652 32.078C15.8593 31.872 15.6149 31.7086 15.3458 31.5971C15.0767 31.4856 14.7883 31.4282 14.497 31.4282C14.2058 31.4282 13.9174 31.4856 13.6483 31.5971C13.3792 31.7086 13.1347 31.872 12.9288 32.078L12.929 32.0789ZM43.9347 32.0789L32.0725 43.9407C31.6564 44.3567 31.4225 44.921 31.4223 45.5094C31.4222 46.0979 31.6557 46.6622 32.0715 47.0785L43.4323 58.4514C44.4361 59.4563 45.7978 60.0217 47.2183 60.0231L57.7817 60.0342C58.0729 60.0345 58.3613 59.9775 58.6305 59.8662C58.8996 59.755 59.1441 59.5918 59.3502 59.386C59.5562 59.1802 59.7196 58.9358 59.8311 58.6668C59.9426 58.3978 60 58.1094 60 57.8182V47.2393C60 45.8189 59.4361 44.4566 58.4322 43.4517L47.071 32.0798C46.8651 31.8738 46.6206 31.7104 46.3515 31.5989C46.0825 31.4874 45.7941 31.43 45.5028 31.43C45.2115 31.43 44.9231 31.4874 44.654 31.5989C44.385 31.7104 44.1405 31.8738 43.9346 32.0798L43.9347 32.0789Z" fill="#F0A2FD"/>
</svg>
