<svg width="60" height="60" viewBox="0 0 60 60" fill="none" xmlns="http://www.w3.org/2000/svg">
<path d="M25.7119 2.61806V14.5204C25.7119 15.2147 25.9878 15.8807 26.4787 16.3716C26.9697 16.8626 27.6356 17.1384 28.33 17.1384H31.6645C32.3589 17.1384 33.0248 16.8626 33.5158 16.3716C34.0067 15.8807 34.2826 15.2147 34.2826 14.5204V2.61806C34.2826 1.92371 34.0067 1.25782 33.5158 0.766833C33.0248 0.275851 32.3589 0 31.6645 0H28.33C27.6356 0 26.9697 0.275851 26.4787 0.766833C25.9878 1.25782 25.7119 1.92371 25.7119 2.61806V2.61806ZM50.0299 52.3871L52.3879 50.0291C52.8789 49.5381 53.1548 48.8722 53.1548 48.1779C53.1548 47.4835 52.879 46.8176 52.388 46.3265L42.2 36.1373C42.0483 35.9856 41.945 35.7923 41.9032 35.5819C41.8613 35.3715 41.8828 35.1534 41.9649 34.9552C42.047 34.757 42.186 34.5876 42.3644 34.4684C42.5427 34.3492 42.7524 34.2856 42.9669 34.2855L57.3771 34.2826C58.0715 34.2825 58.7374 34.0066 59.2284 33.5155C59.7193 33.0245 59.9951 32.3585 59.9952 31.6641V28.3296C59.9952 27.9858 59.9274 27.6454 59.7959 27.3278C59.6643 27.0102 59.4714 26.7216 59.2283 26.4785C58.9852 26.2355 58.6966 26.0426 58.379 25.9111C58.0613 25.7796 57.7209 25.7119 57.3771 25.712L42.955 25.7149C42.7406 25.7149 42.531 25.6513 42.3527 25.5322C42.1744 25.4131 42.0355 25.2438 41.9534 25.0457C41.8714 24.8476 41.8499 24.6296 41.8918 24.4194C41.9336 24.2091 42.0369 24.0159 42.1885 23.8643L52.3876 13.6691C52.6307 13.426 52.8236 13.1374 52.9552 12.8198C53.0868 12.5022 53.1545 12.1618 53.1546 11.818C53.1546 11.4743 53.0869 11.1338 52.9554 10.8162C52.8238 10.4986 52.631 10.21 52.3879 9.96692L50.0299 7.60889C49.5389 7.1179 48.8729 6.84204 48.1786 6.84202C47.4842 6.842 46.8183 7.11782 46.3272 7.60878L31.849 22.0852C31.3579 22.5762 30.692 22.852 29.9976 22.8521C29.3032 22.8521 28.6372 22.5763 28.1461 22.0854L13.6674 7.61042C13.1764 7.11944 12.5104 6.84362 11.8161 6.84362C11.1217 6.84362 10.4558 7.11944 9.96474 7.61042L7.60712 9.96823C7.36401 10.2114 7.17118 10.5 7.03962 10.8176C6.90807 11.1353 6.84036 11.4757 6.84038 11.8195C6.8404 12.1633 6.90813 12.5038 7.03971 12.8214C7.1713 13.1391 7.36416 13.4277 7.60728 13.6708L17.8018 23.8643C17.9534 24.0159 18.0567 24.2092 18.0986 24.4195C18.1404 24.6299 18.1189 24.8479 18.0369 25.0461C17.9548 25.2442 17.8158 25.4136 17.6375 25.5327C17.4592 25.6519 17.2495 25.7155 17.035 25.7155H2.61806C1.92371 25.7155 1.2578 25.9913 0.766816 26.4823C0.275833 26.9733 0 27.6392 0 28.3335V31.668C0 32.3624 0.275833 33.0283 0.766816 33.5193C1.2578 34.0103 1.92371 34.2861 2.61806 34.2861H17.0282C17.2427 34.2861 17.4524 34.3497 17.6307 34.4689C17.8091 34.5881 17.9481 34.7574 18.0302 34.9556C18.1123 35.1538 18.1337 35.3718 18.0919 35.5822C18.0501 35.7926 17.9468 35.9858 17.7951 36.1375L7.60713 46.3268C7.11616 46.8178 6.84034 47.4837 6.84034 48.1781C6.84035 48.8725 7.11618 49.5384 7.60716 50.0294L9.96479 52.3873C10.2079 52.6304 10.4965 52.8233 10.8141 52.9549C11.1317 53.0864 11.4722 53.1541 11.816 53.1541C12.1598 53.1542 12.5002 53.0864 12.8179 52.9549C13.1355 52.8233 13.4241 52.6305 13.6672 52.3874L28.1463 37.9089C28.6373 37.4179 29.3032 37.1421 29.9975 37.1421C30.6919 37.1421 31.3578 37.4179 31.8488 37.9089L46.3273 52.3868C46.8183 52.8778 47.4842 53.1537 48.1786 53.1536C48.8729 53.1536 49.5389 52.8778 50.0299 52.3868L50.0299 52.3871ZM25.7119 45.4724V57.377C25.7119 58.0713 25.9878 58.7372 26.4787 59.2282C26.9697 59.7192 27.6356 59.995 28.33 59.995H31.6645C32.3589 59.995 33.0248 59.7192 33.5158 59.2282C34.0067 58.7372 34.2826 58.0713 34.2826 57.377V45.4724C34.2826 44.778 34.0067 44.1121 33.5158 43.6211C33.0248 43.1301 32.3589 42.8543 31.6645 42.8543H28.33C27.6356 42.8543 26.9697 43.1301 26.4787 43.6211C25.9878 44.1121 25.7119 44.778 25.7119 45.4724Z" fill="#F0A2FD"/>
<path d="M46.332 7.61726L25.7933 28.1537C25.5501 28.3967 25.3573 28.6854 25.2257 29.003C25.0941 29.3206 25.0264 29.6611 25.0264 30.0049C25.0264 30.3487 25.0941 30.6891 25.2256 31.0067C25.3572 31.3244 25.55 31.6129 25.7931 31.856L46.3322 52.3956C46.5753 52.6387 46.8639 52.8316 47.1815 52.9631C47.4992 53.0947 47.8396 53.1625 48.1834 53.1625C48.5272 53.1625 48.8677 53.0947 49.1853 52.9631C49.503 52.8316 49.7916 52.6387 50.0347 52.3956L52.3927 50.0376C52.8837 49.5466 53.1595 48.8807 53.1595 48.1863C53.1596 47.492 52.8837 46.826 52.3928 46.335L42.1997 36.1412C42.0481 35.9895 41.9448 35.7963 41.903 35.5859C41.8612 35.3756 41.8826 35.1576 41.9647 34.9595C42.0468 34.7613 42.1858 34.592 42.3642 34.4728C42.5425 34.3537 42.7522 34.2901 42.9666 34.2902L57.3819 34.2931C57.7257 34.2931 58.0661 34.2255 58.3837 34.0939C58.7014 33.9624 58.99 33.7696 59.2331 33.5266C59.4762 33.2835 59.6691 32.9949 59.8006 32.6772C59.9322 32.3596 59.9999 32.0192 59.9999 31.6754V28.3404C59.9999 27.646 59.7241 26.9801 59.2331 26.4891C58.7421 25.9981 58.0762 25.7223 57.3819 25.7223H42.9729C42.7583 25.7223 42.5486 25.6587 42.3703 25.5395C42.1919 25.4204 42.0529 25.251 41.9708 25.0528C41.8887 24.8546 41.8672 24.6365 41.909 24.4261C41.9508 24.2157 42.0541 24.0225 42.2058 23.8708L52.3929 13.6807C52.8839 13.1896 53.1597 12.5236 53.1597 11.8291C53.1597 11.1347 52.8839 10.4687 52.393 9.97763L50.0344 7.6184C49.7913 7.37528 49.5027 7.18242 49.1851 7.05084C48.8675 6.91927 48.527 6.85156 48.1832 6.85156C47.8394 6.85156 47.499 6.91927 47.1814 7.05084C46.8637 7.18242 46.5751 7.37528 46.332 7.6184V7.61726Z" fill="#0CBF00"/>
</svg>
