<svg width="60" height="60" viewBox="0 0 60 60" fill="none" xmlns="http://www.w3.org/2000/svg">
<path d="M17.1408 2.61826V5.95244C17.1408 6.64685 16.865 7.31276 16.374 7.80378C15.8829 8.29479 15.217 8.5707 14.5226 8.5707H11.189C10.4945 8.5707 9.82857 8.84654 9.33756 9.33756C8.84654 9.82857 8.57069 10.4946 8.57069 11.189V14.5237C8.57069 15.2181 8.84654 15.884 9.33756 16.375C9.82857 16.8661 10.4945 17.142 11.189 17.142H14.5237C15.2181 17.142 15.8841 16.8661 16.3751 16.375C16.8661 15.884 17.142 15.2181 17.142 14.5237V11.1895C17.142 10.4951 17.4178 9.82914 17.9088 9.33812C18.3999 8.84711 19.0658 8.57127 19.7602 8.57127H40.237C40.9314 8.57127 41.5974 8.84711 42.0884 9.33812C42.5794 9.82914 42.8552 10.4951 42.8552 11.1895V14.5237C42.8552 15.2181 43.1311 15.884 43.6221 16.375C44.1131 16.8661 44.7791 17.142 45.4735 17.142H48.8083C49.5027 17.142 50.1686 16.8661 50.6597 16.375C51.1507 15.884 51.4265 15.2181 51.4265 14.5237V11.189C51.4265 10.4946 51.1507 9.82857 50.6597 9.33756C50.1686 8.84654 49.5027 8.5707 48.8083 8.5707H45.4746C44.7802 8.5707 44.1143 8.29479 43.6232 7.80378C43.1322 7.31276 42.8564 6.64685 42.8564 5.95244V2.61826C42.8564 1.92385 42.5805 1.25787 42.0895 0.766855C41.5985 0.275836 40.9325 0 40.2381 0H19.7591C19.0647 0 18.3987 0.275836 17.9077 0.766855C17.4167 1.25787 17.1408 1.92385 17.1408 2.61826V2.61826ZM0 19.7619V40.237C0 40.9314 0.275854 41.5973 0.766872 42.0884C1.25789 42.5794 1.92385 42.8552 2.61826 42.8552H5.95244C6.64684 42.8552 7.3128 43.1311 7.80382 43.6221C8.29484 44.1132 8.57069 44.7791 8.57069 45.4735V48.8077C8.57069 49.5021 8.84654 50.168 9.33756 50.6591C9.82857 51.1501 10.4945 51.426 11.189 51.426H14.5226C15.217 51.426 15.8829 51.7018 16.374 52.1928C16.865 52.6839 17.1408 53.3498 17.1408 54.0442V57.3761C17.1408 58.0705 17.4167 58.7365 17.9077 59.2275C18.3987 59.7185 19.0647 59.9943 19.7591 59.9943H40.2381C40.9325 59.9943 41.5985 59.7185 42.0895 59.2275C42.5805 58.7365 42.8564 58.0705 42.8564 57.3761V54.0442C42.8564 53.3498 43.1322 52.6839 43.6232 52.1928C44.1143 51.7018 44.7802 51.426 45.4746 51.426H48.8083C49.5027 51.426 50.1686 51.1501 50.6597 50.6591C51.1507 50.168 51.4265 49.5021 51.4265 48.8077V45.473C51.4265 44.7786 51.1507 44.1126 50.6597 43.6216C50.1686 43.1306 49.5027 42.8547 48.8083 42.8547H45.4746C44.7802 42.8547 44.1143 42.5788 43.6232 42.0878C43.1322 41.5968 42.8564 40.9309 42.8564 40.2365V28.3281V19.7619C42.8564 19.0675 42.5805 18.4015 42.0895 17.9105C41.5985 17.4195 40.9325 17.1437 40.2381 17.1437H19.7591C19.0647 17.1437 18.3987 17.4195 17.9077 17.9105C17.4167 18.4015 17.1408 19.0675 17.1408 19.7619V23.0967C17.1408 23.7911 17.4167 24.4571 17.9077 24.9481C18.3987 25.4391 19.0647 25.7149 19.7591 25.7149H31.6663C32.3607 25.7149 33.0267 25.9908 33.5177 26.4818C34.0087 26.9728 34.2846 27.6388 34.2846 28.3332V40.237C34.2846 40.9314 34.5604 41.5973 35.0514 42.0884C35.5424 42.5794 36.2084 42.8552 36.9028 42.8552H40.237C40.9314 42.8552 41.5974 43.1311 42.0884 43.6221C42.5794 44.1132 42.8552 44.7791 42.8552 45.4735V48.8048C42.8552 49.4992 42.5794 50.1652 42.0884 50.6562C41.5974 51.1472 40.9314 51.4231 40.237 51.4231H19.7602C19.0658 51.4231 18.3999 51.1472 17.9088 50.6562C17.4178 50.1652 17.142 49.4992 17.142 48.8048V45.473C17.142 44.7786 16.8661 44.1126 16.3751 43.6216C15.8841 43.1306 15.2181 42.8547 14.5237 42.8547H11.1895C10.4951 42.8547 9.82916 42.5788 9.33814 42.0878C8.84712 41.5968 8.57127 40.9309 8.57127 40.2365V19.7619C8.57127 19.0675 8.29543 18.4015 7.80441 17.9105C7.31339 17.4195 6.64742 17.1437 5.95301 17.1437H2.61826C1.92385 17.1437 1.25789 17.4195 0.766872 17.9105C0.275854 18.4015 0 19.0675 0 19.7619V19.7619ZM51.4282 19.7619V40.2371C51.4282 40.9315 51.704 41.5975 52.1951 42.0885C52.6861 42.5795 53.352 42.8554 54.0464 42.8554H57.3817C58.0761 42.8554 58.7421 42.5795 59.2331 42.0885C59.7241 41.5975 60 40.9315 60 40.2371V19.7619C60 19.0675 59.7241 18.4015 59.2331 17.9105C58.7421 17.4195 58.0761 17.1437 57.3817 17.1437H54.0464C53.352 17.1437 52.6861 17.4195 52.1951 17.9105C51.704 18.4015 51.4282 19.0675 51.4282 19.7619Z" fill="#F0A2FD"/>
</svg>
