<svg width="60" height="30" viewBox="0 0 60 30" fill="none" xmlns="http://www.w3.org/2000/svg">
<path fill-rule="evenodd" clip-rule="evenodd" d="M33.5726 2.29154C32.1708 -0.763847 27.8292 -0.763846 26.4274 2.29154L26.3394 2.48336C25.285 4.78138 22.3666 5.50069 20.3651 3.95588L20.198 3.82693C17.5369 1.773 13.6926 3.79061 13.8713 7.14749L13.8825 7.35824C14.0168 9.88302 11.767 11.8762 9.27684 11.4385L9.06898 11.4019C5.7581 10.82 3.29183 14.393 5.01002 17.2823L5.11789 17.4637C6.41018 19.6369 5.34434 22.4473 2.93599 23.2169L2.73496 23.2812C0.467369 24.0059 -0.45684 26.3787 0.21401 28.327C0.583026 29.3987 1.78474 29.8097 2.91818 29.8097H57.0818C58.2153 29.8097 59.417 29.3987 59.786 28.327C60.4568 26.3787 59.5326 24.0059 57.265 23.2812L57.064 23.2169C54.6557 22.4473 53.5898 19.6369 54.8821 17.4637L54.99 17.2823C56.7082 14.393 54.2419 10.82 50.931 11.4019L50.7232 11.4385C48.233 11.8762 45.9832 9.88302 46.1175 7.35823L46.1287 7.14749C46.3074 3.7906 42.4631 1.773 39.802 3.82693L39.6349 3.95588C37.6333 5.50069 34.715 4.78138 33.6606 2.48336L33.5726 2.29154Z" fill="#F0A2FD"/>
</svg>
