<svg width="60" height="61" viewBox="0 0 60 61" fill="none" xmlns="http://www.w3.org/2000/svg">
<path d="M20.0021 7.62454V2.37579C20.0021 1.74569 19.7518 1.14141 19.3062 0.695867C18.8607 0.25032 18.2564 1.07117e-06 17.6263 0H2.37579C2.0638 -5.30387e-07 1.75486 0.0614083 1.46662 0.180803C1.17837 0.300197 0.916469 0.475254 0.695857 0.695867C0.475244 0.91648 0.300239 1.17831 0.180844 1.46656C0.0614497 1.7548 -5.30387e-07 2.0638 0 2.37579V7.62388V17.6235C0 18.2536 0.250309 18.8579 0.695857 19.3035C1.1414 19.749 1.74569 19.9993 2.37579 19.9993H7.62388C8.25401 19.9993 8.85834 19.749 9.30394 19.3035C9.74954 18.8579 9.99991 18.2537 10 17.6235L10.0007 12.3758C10.0008 11.7457 10.2511 11.1414 10.6967 10.6959C11.1423 10.2503 11.7467 10.0001 12.3768 10.0001L17.6262 10.0002C17.9382 10.0003 18.2472 9.93883 18.5354 9.81945C18.8237 9.70006 19.0856 9.52507 19.3062 9.30446C19.5268 9.08386 19.7018 8.82193 19.8212 8.53369C19.9406 8.24545 20.002 7.93653 20.002 7.62454H20.0021ZM40.0013 2.37579V7.62388C40.0013 8.25398 40.2516 8.85825 40.6972 9.3038C41.1427 9.74935 41.747 9.99967 42.3771 9.99967H47.6246C48.2547 9.99967 48.859 10.25 49.3045 10.6955C49.7501 11.1411 50.0004 11.7454 50.0004 12.3755V17.6235C50.0004 18.2536 50.2507 18.8579 50.6962 19.3035C51.1418 19.749 51.746 19.9993 52.3761 19.9993H57.6242C58.2543 19.9993 58.8586 19.749 59.3042 19.3035C59.7497 18.8579 60 18.2536 60 17.6235V12.3755V2.37579C60 1.74569 59.7497 1.14141 59.3042 0.695867C58.8586 0.25032 58.2543 0 57.6242 0H52.3775H42.3771C41.747 0 41.1427 0.25032 40.6972 0.695867C40.2516 1.14141 40.0013 1.74569 40.0013 2.37579V2.37579ZM20.0007 22.3731V27.6212C20.0007 28.2513 20.251 28.8556 20.6965 29.3011C21.1421 29.7467 21.7464 29.997 22.3765 29.997H27.6239C28.254 29.997 28.8583 30.2473 29.3038 30.6929C29.7494 31.1384 29.9997 31.7427 29.9997 32.3728V37.6196C29.9997 38.2497 30.25 38.8539 30.6955 39.2995C31.1411 39.745 31.7454 39.9954 32.3755 39.9954H37.6236C38.2537 39.9954 38.858 39.745 39.3035 39.2995C39.7491 38.8539 39.9994 38.2497 39.9994 37.6196V32.3715V22.3731C39.9994 21.743 39.7491 21.1387 39.3035 20.6931C38.858 20.2476 38.2537 19.9973 37.6236 19.9973H32.3761H22.3765C21.7464 19.9973 21.1421 20.2476 20.6965 20.6931C20.251 21.1387 20.0007 21.743 20.0007 22.3731ZM7.62388 39.9954H2.37579C1.74569 39.9954 1.1414 40.2457 0.695857 40.6912C0.250309 41.1368 0 41.741 0 42.3711V57.6274C0 58.2575 0.250309 58.8617 0.695857 59.3073C1.1414 59.7528 1.74569 60.0031 2.37579 60.0031H17.6263C18.2564 60.0031 18.8607 59.7528 19.3062 59.3073C19.7518 58.8617 20.0021 58.2575 20.0021 57.6274V52.3786C20.0021 51.7484 19.7518 51.1441 19.3063 50.6983C18.8607 50.2526 18.2565 50.0021 17.6263 50.0018L12.3768 49.9984C11.7466 49.9982 11.1423 49.7477 10.6967 49.302C10.2511 48.8563 10.0008 48.2519 10.0007 47.6216L10 42.3698C9.99995 41.7397 9.74957 41.1354 9.30397 40.6899C8.85837 40.2444 8.25405 39.994 7.62392 39.994L7.62388 39.9954ZM40.0013 52.3786V57.6267C40.0013 58.2568 40.2516 58.8611 40.6972 59.3066C41.1427 59.7522 41.747 60.0025 42.3771 60.0025H47.6246H57.6229C58.253 60.0025 58.8573 59.7522 59.3029 59.3066C59.7484 58.8611 59.9988 58.2568 59.9988 57.6267L59.9999 42.3708C59.9999 42.0588 59.9385 41.7499 59.8191 41.4617C59.6997 41.1734 59.5247 40.9115 59.3041 40.6909C59.0835 40.4703 58.8216 40.2953 58.5334 40.1759C58.2451 40.0565 57.9362 39.9951 57.6242 39.9951L52.3762 39.9953C51.7461 39.9953 51.1418 40.2456 50.6962 40.6911C50.2507 41.1367 50.0004 41.741 50.0004 42.3711V47.6231C50.0004 48.2533 49.7501 48.8577 49.3046 49.3034C48.859 49.7491 48.2548 49.9996 47.6246 49.9998L42.3771 50.0032C41.7469 50.0035 41.1426 50.254 40.6971 50.6997C40.2516 51.1454 40.0013 51.7497 40.0013 52.3799L40.0013 52.3786Z" fill="#F0A2FD"/>
</svg>
