<svg width="60" height="52" viewBox="0 0 60 52" fill="none" xmlns="http://www.w3.org/2000/svg">
<path d="M8.57135 2.03644V6.53377C8.57135 7.07387 8.3568 7.59183 7.97489 7.97374C7.59299 8.35565 7.075 8.57021 6.53491 8.57021H2.03644C1.49634 8.57021 0.978378 8.78477 0.596471 9.16668C0.214565 9.54859 0 10.0666 0 10.6067V15.1051V23.6759C0 24.216 0.214565 24.734 0.596471 25.1159C0.978378 25.4978 1.49634 25.7123 2.03644 25.7123H6.53491C7.075 25.7123 7.59299 25.9269 7.97489 26.3088C8.3568 26.6907 8.57135 27.2087 8.57135 27.7488V32.2461C8.57135 32.7862 8.78591 33.3042 9.16782 33.6861C9.54973 34.068 10.0677 34.2825 10.6078 34.2825H15.1063C15.6464 34.2825 16.1643 34.4971 16.5462 34.879C16.9281 35.2609 17.1427 35.7789 17.1427 36.319V40.8169C17.1427 41.3571 17.3572 41.8751 17.7391 42.2571C18.121 42.6392 18.639 42.854 19.1791 42.8542L23.6776 42.8571C24.2178 42.8573 24.7358 43.072 25.1176 43.4541C25.4995 43.8361 25.714 44.3542 25.714 44.8944V49.3974C25.714 49.9375 25.9286 50.4555 26.3105 50.8374C26.6924 51.2193 27.2104 51.4338 27.7505 51.4338H32.2495C32.7896 51.4338 33.3076 51.2193 33.6895 50.8374C34.0714 50.4555 34.286 49.9375 34.286 49.3974V44.8944C34.286 44.3542 34.5005 43.8361 34.8824 43.4541C35.2643 43.072 35.7822 42.8573 36.3224 42.8571L40.8209 42.8542C41.361 42.854 41.879 42.6392 42.2609 42.2571C42.6428 41.8751 42.8573 41.3571 42.8573 40.8169V36.319C42.8573 35.7789 43.0719 35.2609 43.4538 34.879C43.8357 34.4971 44.3536 34.2825 44.8937 34.2825H49.3922C49.9323 34.2825 50.4503 34.068 50.8322 33.6861C51.2141 33.3042 51.4287 32.7862 51.4287 32.2461V27.7488C51.4287 27.2087 51.6432 26.6907 52.0251 26.3088C52.407 25.9269 52.925 25.7123 53.4651 25.7123H57.9636C58.5037 25.7123 59.0216 25.4978 59.4035 25.1159C59.7855 24.734 60 24.216 60 23.6759V19.1774V10.6067C60 10.0666 59.7855 9.54859 59.4035 9.16668C59.0216 8.78477 58.5037 8.57021 57.9636 8.57021H53.4651C52.925 8.57021 52.407 8.35565 52.0251 7.97374C51.6432 7.59183 51.4287 7.07387 51.4287 6.53377V2.03644C51.4287 1.49634 51.2141 0.978378 50.8322 0.596471C50.4503 0.214565 49.9323 0 49.3922 0H44.8937H36.3224C35.7823 0 35.2643 0.214565 34.8824 0.596471C34.5005 0.978378 34.286 1.49634 34.286 2.03644V6.53377C34.286 7.07387 34.0714 7.59183 33.6895 7.97374C33.3076 8.35565 32.7896 8.57021 32.2495 8.57021H27.7505C27.2104 8.57021 26.6924 8.35565 26.3105 7.97374C25.9286 7.59183 25.714 7.07387 25.714 6.53377V2.03644C25.714 1.49634 25.4995 0.978378 25.1176 0.596471C24.7357 0.214565 24.2177 0 23.6776 0H19.1791H10.6078C10.0677 0 9.54973 0.214565 9.16782 0.596471C8.78591 0.978378 8.57135 1.49634 8.57135 2.03644V2.03644ZM19.1791 17.1416H23.6776C24.2177 17.1416 24.7357 17.3561 25.1176 17.738C25.4995 18.1199 25.714 18.6379 25.714 19.178V23.4782C25.714 24.0183 25.9286 24.5362 26.3105 24.9181C26.6924 25.3 27.2104 25.5146 27.7505 25.5146H32.2495C32.7896 25.5146 33.3076 25.3 33.6895 24.9181C34.0714 24.5362 34.286 24.0183 34.286 23.4782V19.178C34.286 18.6379 34.5005 18.1199 34.8824 17.738C35.2643 17.3561 35.7823 17.1416 36.3224 17.1416H40.8209C41.361 17.1416 41.8789 17.3561 42.2609 17.738C42.6428 18.1199 42.8573 18.6379 42.8573 19.178V23.6748C42.8573 24.2149 42.6428 24.7328 42.2609 25.1147C41.8789 25.4966 41.361 25.7112 40.8209 25.7112H36.3224C35.7823 25.7112 35.2643 25.9258 34.8824 26.3077C34.5005 26.6896 34.286 27.2075 34.286 27.7476V32.2444C34.286 32.7845 34.0714 33.3025 33.6895 33.6844C33.3076 34.0663 32.7896 34.2808 32.2495 34.2808H27.7505C27.2104 34.2808 26.6924 34.0663 26.3105 33.6844C25.9286 33.3025 25.714 32.7845 25.714 32.2444V27.7476C25.714 27.2075 25.4995 26.6896 25.1176 26.3077C24.7357 25.9258 24.2177 25.7112 23.6776 25.7112H19.1791C18.639 25.7112 18.1211 25.4966 17.7392 25.1147C17.3573 24.7328 17.1427 24.2149 17.1427 23.6748V19.178C17.1427 18.6379 17.3573 18.1199 17.7392 17.738C18.1211 17.3561 18.639 17.1416 19.1791 17.1416V17.1416Z" fill="#F0A2FD"/>
</svg>
