<svg width="60" height="52" viewBox="0 0 60 52" fill="none" xmlns="http://www.w3.org/2000/svg">
<path d="M8.57159 2.61836V5.9521C8.57159 6.64653 8.29573 7.31253 7.80469 7.80357C7.31365 8.29461 6.64767 8.57045 5.95324 8.57045H2.61836C1.92392 8.57045 1.25794 8.84637 0.766901 9.33741C0.275864 9.82845 0 10.4944 0 11.1888V14.5237V23.0947C0 23.7891 0.275864 24.4551 0.766901 24.9462C1.25794 25.4372 1.92392 25.7131 2.61836 25.7131H5.95324C6.64767 25.7131 7.31365 25.9889 7.80469 26.48C8.29573 26.971 8.57159 27.637 8.57159 28.3314V31.6652C8.57159 32.3596 8.84745 33.0256 9.33849 33.5166C9.82953 34.0077 10.4955 34.2835 11.1899 34.2835H14.5248C15.2193 34.2835 15.8852 34.5594 16.3763 35.0504C16.8673 35.5414 17.1432 36.2074 17.1432 36.9019V40.2362C17.1432 40.9306 17.419 41.5966 17.9101 42.0877C18.4011 42.5787 19.0671 42.8545 19.7615 42.8545H23.0964C23.7908 42.8545 24.4568 42.5787 24.9479 42.0877C25.4389 41.5966 25.7148 40.9306 25.7148 40.2362V36.9013C25.7148 36.2069 25.4389 35.5409 24.9479 35.0499C24.4568 34.5589 23.7908 34.283 23.0964 34.283H19.7615C19.0671 34.283 18.4011 34.0071 17.9101 33.5161C17.419 33.025 17.1432 32.359 17.1432 31.6646V28.3303C17.1432 27.6359 16.8673 26.9699 16.3763 26.4788C15.8852 25.9878 15.2193 25.7119 14.5248 25.7119H11.1899C10.4955 25.7119 9.82953 25.4361 9.33849 24.945C8.84745 24.454 8.57159 23.788 8.57159 23.0936V19.7599V11.1899C8.57159 10.4955 8.84745 9.82951 9.33849 9.33847C9.82953 8.84744 10.4955 8.57159 11.1899 8.57159H14.5248H23.0964C23.7908 8.57159 24.4568 8.84744 24.9479 9.33847C25.4389 9.82951 25.7148 10.4955 25.7148 11.1899V14.5237C25.7148 15.2181 25.9906 15.8841 26.4817 16.3752C26.9727 16.8662 27.6387 17.142 28.3331 17.142H31.668C32.3624 17.142 33.0284 16.8662 33.5195 16.3752C34.0105 15.8841 34.2863 15.2181 34.2863 14.5237V11.1899C34.2863 10.4955 34.5622 9.82951 35.0532 9.33847C35.5443 8.84744 36.2103 8.57159 36.9047 8.57159H40.2396H48.8101C49.5045 8.57159 50.1705 8.84744 50.6615 9.33847C51.1525 9.82951 51.4284 10.4955 51.4284 11.1899V14.5237V23.0936C51.4284 23.788 51.1525 24.454 50.6615 24.945C50.1705 25.4361 49.5045 25.7119 48.8101 25.7119H45.4763C44.7819 25.7119 44.1159 25.9878 43.6248 26.4788C43.1338 26.9699 42.858 27.6359 42.858 28.3303V31.6646C42.858 32.359 42.5821 33.025 42.0911 33.5161C41.6 34.0071 40.934 34.283 40.2396 34.283H36.9047C36.2103 34.283 35.5443 34.5589 35.0532 35.0499C34.5622 35.5409 34.2863 36.2069 34.2863 36.9013V40.2362C34.2863 40.9306 34.5622 41.5966 35.0532 42.0877C35.5443 42.5787 36.2103 42.8545 36.9047 42.8545H40.2396C40.934 42.8545 41.6 42.5787 42.0911 42.0877C42.5821 41.5966 42.858 40.9306 42.858 40.2362V36.9019C42.858 36.2074 43.1338 35.5414 43.6248 35.0504C44.1159 34.5594 44.7819 34.2835 45.4763 34.2835H48.8112C49.5056 34.2835 50.1716 34.0077 50.6626 33.5166C51.1537 33.0256 51.4295 32.3596 51.4295 31.6652V28.3314C51.4295 27.637 51.7054 26.971 52.1964 26.48C52.6875 25.9889 53.3535 25.7131 54.0479 25.7131H57.3816C58.0761 25.7131 58.7421 25.4372 59.2331 24.9462C59.7241 24.4551 60 23.7891 60 23.0947V19.7599V11.1888C60 10.4944 59.7241 9.82845 59.2331 9.33741C58.7421 8.84637 58.0761 8.57045 57.3816 8.57045H54.0479C53.3535 8.57045 52.6875 8.29461 52.1964 7.80357C51.7054 7.31253 51.4295 6.64653 51.4295 5.9521V2.61836C51.4295 1.92392 51.1537 1.25792 50.6626 0.766883C50.1716 0.275846 49.5056 0 48.8112 0H45.4763H36.9047C36.2103 0 35.5443 0.275846 35.0532 0.766883C34.5622 1.25792 34.2863 1.92392 34.2863 2.61836V5.9521C34.2863 6.64653 34.0105 7.31253 33.5195 7.80357C33.0284 8.29461 32.3624 8.57045 31.668 8.57045H28.3331C27.6387 8.57045 26.9727 8.29461 26.4817 7.80357C25.9906 7.31253 25.7148 6.64653 25.7148 5.9521V2.61836C25.7148 1.92392 25.4389 1.25792 24.9479 0.766883C24.4568 0.275846 23.7908 0 23.0964 0H19.7615H11.1899C10.4955 0 9.82953 0.275846 9.33849 0.766883C8.84745 1.25792 8.57159 1.92392 8.57159 2.61836V2.61836ZM25.7148 45.4804V48.8157C25.7148 49.5102 25.9906 50.1762 26.4817 50.6672C26.9727 51.1582 27.6387 51.4341 28.3331 51.4341H31.668C32.3624 51.4341 33.0284 51.1582 33.5195 50.6672C34.0105 50.1762 34.2863 49.5102 34.2863 48.8157V45.4804C34.2863 44.7859 34.0105 44.1199 33.5195 43.6289C33.0284 43.1378 32.3624 42.862 31.668 42.862H28.3331C27.6387 42.862 26.9727 43.1378 26.4817 43.6289C25.9906 44.1199 25.7148 44.7859 25.7148 45.4804V45.4804Z" fill="#F0A2FD"/>
</svg>
