<svg width="60" height="60" viewBox="0 0 60 60" fill="none" xmlns="http://www.w3.org/2000/svg">
<path d="M29.9911 0.00134243C29.5811 0.00134243 29.1711 0.158906 28.8588 0.472252L28.8583 0.46996L23.4672 5.87267C22.7422 6.59912 22.3354 7.58371 22.3358 8.61003L22.3402 22.3388L8.60964 22.3343C7.58333 22.3343 6.59871 22.7407 5.87228 23.4657L0.470018 28.8572C-0.156321 29.4823 -0.156717 30.4972 0.469095 31.1228H0.469557L5.87182 36.5232C6.59768 37.2489 7.58193 37.6568 8.60828 37.6574L22.3331 37.6649L22.3371 51.3884C22.3373 52.4147 22.7455 53.3991 23.4712 54.1248L28.8762 59.5298C29.5022 60.1552 30.5165 60.1538 31.1413 59.527L36.5328 54.1248C37.2578 53.3983 37.6646 52.4137 37.6642 51.3874L37.6598 37.6581L51.3899 37.6634C52.4162 37.6634 53.4008 37.2569 54.1273 36.532L59.53 31.1409C60.1564 30.5158 60.1566 29.5011 59.5309 28.8754L54.1264 23.4704C53.4007 22.7447 52.4163 22.3367 51.39 22.3363L37.6678 22.3317L37.6634 8.60919C37.6632 7.58287 37.255 6.59887 36.5293 5.87317L31.1243 0.468674C30.8113 0.155947 30.4011 -0.000411334 29.9911 8.12645e-07L29.9911 0.00134243Z" fill="#F0A2FD"/>
</svg>
