<svg width="60" height="60" viewBox="0 0 60 60" fill="none" xmlns="http://www.w3.org/2000/svg">
<path d="M32.2495 0.00134948H27.7511C27.211 0.00134939 26.693 0.215915 26.3111 0.597821C25.9291 0.979726 25.7146 1.49769 25.7146 2.03779L25.7144 15.1085C25.7143 15.6486 25.4998 16.1666 25.1179 16.5485C24.736 16.9304 24.218 17.145 23.6779 17.145H19.1791C18.639 17.145 18.121 17.3595 17.7391 17.7414C17.3572 18.1233 17.1427 18.6413 17.1427 19.1814V23.6765C17.1427 23.9439 17.09 24.2086 16.9877 24.4557C16.8853 24.7027 16.7353 24.9272 16.5462 25.1163C16.3571 25.3054 16.1326 25.4553 15.8855 25.5576C15.6385 25.6599 15.3737 25.7126 15.1062 25.7125L2.03644 25.7096C1.76903 25.7096 1.50422 25.7622 1.25715 25.8645C1.01008 25.9668 0.785594 26.1168 0.596489 26.3059C0.407384 26.495 0.257376 26.7194 0.155031 26.9664C0.0526855 27.2135 4.62293e-07 27.4783 0 27.7457V32.2442C-9.33553e-07 32.7843 0.214539 33.3023 0.596436 33.6843C0.978333 34.0663 1.49631 34.2809 2.03644 34.281L15.1062 34.2839C15.6464 34.284 16.1644 34.4986 16.5463 34.8806C16.9282 35.2625 17.1427 35.7806 17.1427 36.3207V40.8186C17.1427 41.3587 17.3572 41.8766 17.7391 42.2585C18.121 42.6405 18.639 42.855 19.1791 42.855H23.6782C24.2183 42.855 24.7362 43.0695 25.1181 43.4514C25.5001 43.8333 25.7146 44.3514 25.7146 44.8915V57.9647C25.7146 58.5048 25.9291 59.0227 26.3111 59.4046C26.693 59.7866 27.2109 60.0011 27.751 60.0011H32.2495C32.7896 60.0011 33.3076 59.7866 33.6895 59.4046C34.0714 59.0227 34.2859 58.5048 34.2859 57.9647V44.8915C34.2859 44.3514 34.5005 43.8333 34.8824 43.4514C35.2643 43.0695 35.7823 42.855 36.3224 42.855H40.8209C41.3609 42.855 41.8789 42.6405 42.2608 42.2585C42.6427 41.8766 42.8573 41.3587 42.8573 40.8186V36.3195C42.8573 36.0521 42.91 35.7873 43.0123 35.5403C43.1147 35.2932 43.2647 35.0687 43.4538 34.8796C43.6429 34.6906 43.8674 34.5406 44.1144 34.4383C44.3615 34.336 44.6263 34.2834 44.8937 34.2835L57.9636 34.2864C58.231 34.2864 58.4958 34.2338 58.7428 34.1315C58.9899 34.0292 59.2144 33.8792 59.4035 33.6901C59.5926 33.501 59.7426 33.2766 59.845 33.0295C59.9473 32.7825 60 32.5177 60 32.2503V27.7518C60 27.2117 59.7855 26.6937 59.4036 26.3117C59.0217 25.9298 58.5037 25.7151 57.9636 25.715L44.8937 25.7121C44.3536 25.712 43.8356 25.4974 43.4537 25.1154C43.0718 24.7335 42.8573 24.2155 42.8573 23.6753V19.182C42.8573 18.6419 42.6428 18.1238 42.2609 17.7418C41.879 17.3598 41.361 17.1451 40.8209 17.1449L36.3224 17.142C35.7822 17.1418 35.2643 16.9271 34.8824 16.5451C34.5005 16.1631 34.286 15.645 34.286 15.1048V2.03644C34.286 1.49634 34.0714 0.978307 33.6895 0.5964C33.3076 0.214494 32.7896 0 32.2495 0V0.00134948Z" fill="#F0A2FD"/>
</svg>
