<svg width="60" height="61" viewBox="0 0 60 61" fill="none" xmlns="http://www.w3.org/2000/svg">
<path d="M32.248 0.00262786H27.7497C27.2096 0.00263703 26.6916 0.217188 26.3097 0.599082C25.9279 0.980976 25.7133 1.49893 25.7133 2.03901V2.1106C25.7133 2.11196 25.7133 2.11333 25.7133 2.11468V15.1085C25.7133 15.1095 25.7133 15.1105 25.7133 15.1114C25.7128 15.6511 25.4982 16.1686 25.1164 16.5501C24.7347 16.9316 24.2172 17.146 23.6775 17.1461H19.1786C18.6385 17.1461 18.1205 17.3607 17.7387 17.7426C17.3568 18.1245 17.1422 18.6424 17.1422 19.1825V19.2581V23.6723V23.6764C17.1422 23.9438 17.0895 24.2085 16.9871 24.4555C16.8848 24.7026 16.7348 24.927 16.5457 25.116C16.3566 25.3051 16.1321 25.455 15.885 25.5573C15.638 25.6596 15.3732 25.7122 15.1058 25.7122L2.03638 25.7092C1.76895 25.7092 1.50413 25.7619 1.25704 25.8642C1.00996 25.9665 0.785454 26.1165 0.596349 26.3056C0.407245 26.4947 0.257225 26.7192 0.154904 26.9663C0.0525819 27.2134 -4.3708e-05 27.4782 1.68333e-06 27.7456V27.8206C-5.61112e-07 27.8224 -5.61112e-07 27.8241 1.68333e-06 27.8259V32.2458C1.68333e-06 32.7859 0.21456 33.3038 0.596456 33.6857C0.978351 34.0676 1.4963 34.2822 2.03638 34.2822H9.87907H15.107C15.6471 34.2823 16.1651 34.4969 16.547 34.8789C16.9289 35.2609 17.1434 35.779 17.1433 36.3191V36.393V40.8118V40.817C17.1433 41.3571 17.3579 41.8751 17.7398 42.257C18.1217 42.6389 18.6396 42.8534 19.1797 42.8534H23.6787C24.2187 42.8534 24.7367 43.068 25.1186 43.4499C25.5005 43.8318 25.715 44.3497 25.715 44.8898V57.9627C25.715 57.9636 25.715 57.9646 25.715 57.9656V58.0383C25.715 58.5784 25.9296 59.0963 26.3115 59.4782C26.6933 59.8601 27.2113 60.0747 27.7514 60.0747H32.2503C32.7904 60.0747 33.3083 59.8601 33.6902 59.4782C34.0721 59.0963 34.2867 58.5784 34.2867 58.0383V44.9655C34.2867 44.9617 34.2867 44.9579 34.2867 44.9541V44.8905C34.2867 44.3504 34.5013 43.8324 34.8832 43.4505C35.265 43.0686 35.783 42.8541 36.3231 42.8541H40.8214C41.3615 42.8541 41.8794 42.6395 42.2613 42.2576C42.6432 41.8757 42.8578 41.3578 42.8578 40.8177V40.8131V36.3942V36.3186C42.8577 36.0512 42.9104 35.7864 43.0127 35.5393C43.1151 35.2922 43.265 35.0677 43.4541 34.8786C43.6432 34.6895 43.8678 34.5396 44.1148 34.4372C44.3619 34.3349 44.6267 34.2822 44.8942 34.2823L57.9636 34.2857C58.3217 34.2856 58.6734 34.1911 58.9832 34.0116C59.2931 33.8321 59.5501 33.5741 59.7284 33.2636C59.906 32.9551 59.9997 32.6054 60 32.2494C60 32.248 60 32.2467 60 32.2453V27.8242C60 27.8199 60 27.8155 60 27.8112V27.751C59.9999 27.2109 59.7853 26.693 59.4035 26.3111C59.0216 25.9292 58.5037 25.7147 57.9636 25.7146L44.8942 25.7111C44.3541 25.711 43.8362 25.4964 43.4544 25.1145C43.0725 24.7327 42.8579 24.2147 42.8578 23.6747V19.2565V19.1815C42.8578 18.6413 42.6432 18.1234 42.2613 17.7414C41.8795 17.3594 41.3615 17.1447 40.8214 17.1445L36.3231 17.1416C35.7829 17.1414 35.2648 16.9267 34.8829 16.5446C34.5011 16.1625 34.2866 15.6443 34.2867 15.1041V2.03638C34.2867 1.4963 34.0721 0.97835 33.6902 0.596454C33.3083 0.214558 32.7904 0 32.2503 0L32.248 0.00262786ZM6.31994 4.3657C5.77986 4.3657 5.26191 4.58026 4.88002 4.96215C4.49812 5.34405 4.28356 5.862 4.28356 6.40208V10.9005C4.28356 11.4405 4.49812 11.9585 4.88002 12.3404C5.26191 12.7223 5.77986 12.9368 6.31994 12.9368H10.8183C11.3584 12.9368 11.8763 12.7223 12.2582 12.3404C12.6401 11.9585 12.8547 11.4405 12.8547 10.9005V6.40208C12.8547 5.862 12.6401 5.34405 12.2582 4.96215C11.8763 4.58026 11.3584 4.3657 10.8183 4.3657H6.31994ZM49.1771 4.3657C48.637 4.3657 48.1191 4.58026 47.7372 4.96215C47.3553 5.34405 47.1407 5.862 47.1407 6.40208V10.9005C47.1407 11.4405 47.3553 11.9585 47.7372 12.3404C48.1191 12.7223 48.637 12.9368 49.1771 12.9368H53.6755C54.2155 12.9368 54.7335 12.7223 55.1154 12.3404C55.4973 11.9585 55.7118 11.4405 55.7118 10.9005V6.40208C55.7118 5.862 55.4973 5.34405 55.1154 4.96215C54.7335 4.58026 54.2155 4.3657 53.6755 4.3657H49.1771ZM6.32222 47.2172C5.78213 47.2172 5.26418 47.4318 4.88229 47.8137C4.50039 48.1956 4.28583 48.7135 4.28583 49.2536V53.752C4.28583 54.292 4.50039 54.81 4.88229 55.1919C5.26418 55.5738 5.78213 55.7883 6.32222 55.7883H10.8206C11.3606 55.7883 11.8786 55.5738 12.2605 55.1919C12.6424 54.81 12.8569 54.292 12.8569 53.752V49.2536C12.8569 48.7135 12.6424 48.1956 12.2605 47.8137C11.8786 47.4318 11.3606 47.2172 10.8206 47.2172H6.32222ZM49.176 47.2172C48.6359 47.2172 48.118 47.4318 47.7361 47.8137C47.3542 48.1956 47.1396 48.7135 47.1396 49.2536V53.752C47.1396 54.292 47.3542 54.81 47.7361 55.1919C48.118 55.5738 48.6359 55.7883 49.176 55.7883H53.6743C54.2144 55.7883 54.7324 55.5738 55.1143 55.1919C55.4962 54.81 55.7107 54.292 55.7107 53.752V49.2536C55.7107 48.7135 55.4962 48.1956 55.1143 47.8137C54.7324 47.4318 54.2144 47.2172 53.6743 47.2172H49.176Z" fill="#F0A2FD"/>
</svg>
