<svg width="60" height="60" viewBox="0 0 60 60" fill="none" xmlns="http://www.w3.org/2000/svg">
<path d="M25.7136 2.03636V15.0301C25.7136 15.5702 25.9282 16.0881 26.3101 16.47C26.692 16.8519 27.2099 17.0665 27.75 17.0665H32.2483C32.7884 17.0665 33.3063 16.8519 33.6882 16.47C34.0701 16.0881 34.2847 15.5702 34.2847 15.0301V2.03636C34.2847 1.49629 34.0701 0.978341 33.6882 0.596449C33.3063 0.214557 32.7884 0 32.2483 0H27.75C27.2099 0 26.692 0.214557 26.3101 0.596449C25.9282 0.978341 25.7136 1.49629 25.7136 2.03636V2.03636ZM4.28521 6.32266V10.821C4.28521 11.361 4.49975 11.879 4.88164 12.2609C5.26353 12.6428 5.7815 12.8573 6.32157 12.8573H10.8199C11.3599 12.8573 11.8779 12.6428 12.2598 12.2609C12.6417 11.879 12.8562 11.361 12.8562 10.821V6.32266C12.8562 5.78258 12.6417 5.26463 12.2598 4.88274C11.8779 4.50085 11.3599 4.28629 10.8199 4.28629H6.32157C5.7815 4.28629 5.26353 4.50085 4.88164 4.88274C4.49975 5.26463 4.28521 5.78258 4.28521 6.32266V6.32266ZM47.142 6.32266V10.821C47.142 11.361 47.3566 11.879 47.7385 12.2609C48.1203 12.6428 48.6383 12.8573 49.1784 12.8573H53.6767C54.2168 12.8573 54.7347 12.6428 55.1166 12.2609C55.4985 11.879 55.713 11.361 55.713 10.821V6.32266C55.713 5.78258 55.4985 5.26463 55.1166 4.88274C54.7347 4.50085 54.2168 4.28629 53.6767 4.28629H49.1784C48.6383 4.28629 48.1203 4.50085 47.7385 4.88274C47.3566 5.26463 47.142 5.78258 47.142 6.32266ZM17.1432 19.1795V23.5949C17.1432 24.135 17.3577 24.653 17.7396 25.035C18.1214 25.417 18.6394 25.6317 19.1795 25.6319L23.6784 25.6348C23.9458 25.6349 24.2106 25.5823 24.4576 25.48C24.7047 25.3778 24.9292 25.2279 25.1183 25.0388C25.3074 24.8498 25.4574 24.6254 25.5597 24.3783C25.6621 24.1313 25.7148 23.8665 25.7148 23.5991V19.181C25.7148 18.6409 25.5002 18.1229 25.1183 17.7411C24.7364 17.3592 24.2185 17.1446 23.6784 17.1446H19.1795C18.6395 17.1446 18.1215 17.3591 17.7396 17.741C17.3577 18.1229 17.1432 18.6408 17.1432 19.1809V19.1795ZM40.8205 17.1432H36.3222C35.7821 17.1432 35.2641 17.3577 34.8822 17.7396C34.5003 18.1215 34.2858 18.6395 34.2858 19.1795V23.5977C34.2858 24.1378 34.5003 24.6557 34.8822 25.0376C35.2641 25.4195 35.7821 25.6341 36.3222 25.6341H40.8202C41.3602 25.6341 41.8782 25.4195 42.2601 25.0376C42.642 24.6558 42.8566 24.1378 42.8566 23.5977L42.8567 19.1795C42.8568 18.9121 42.8041 18.6473 42.7018 18.4003C42.5994 18.1532 42.4494 17.9287 42.2604 17.7396C42.0713 17.5505 41.8468 17.4005 41.5997 17.2982C41.3527 17.1958 41.0879 17.1432 40.8205 17.1432V17.1432ZM0 27.7471V32.1682C0 32.7083 0.214548 33.2262 0.59644 33.6081C0.978332 33.99 1.49629 34.2045 2.03636 34.2045H15.1068C15.6469 34.2045 16.1649 33.99 16.5468 33.6081C16.9286 33.2262 17.1432 32.7083 17.1432 32.1682V27.7489C17.1432 27.2088 16.9286 26.6908 16.5468 26.3089C16.1649 25.927 15.6469 25.7125 15.1068 25.7125C14.1544 25.7125 13.2019 25.7123 12.2494 25.7122H2.03636C1.76896 25.7122 1.50416 25.7649 1.2571 25.8672C1.01004 25.9695 0.785555 26.1194 0.596458 26.3085C0.407361 26.4976 0.257357 26.7221 0.155016 26.9691C0.0526751 27.2162 2.25219e-06 27.481 0 27.7484V27.7471ZM42.8568 27.7471V32.1682C42.8568 32.7083 43.0714 33.2262 43.4532 33.6081C43.8351 33.99 44.3531 34.2045 44.8932 34.2045H57.9636C58.5037 34.2045 59.0217 33.99 59.4036 33.6081C59.7855 33.2262 60 32.7083 60 32.1682V27.7471C60 27.207 59.7855 26.6891 59.4036 26.3072C59.0217 25.9253 58.5037 25.7107 57.9636 25.7107H44.8932C44.3531 25.7107 43.8351 25.9253 43.4532 26.3072C43.0714 26.6891 42.8568 27.207 42.8568 27.7471V27.7471ZM19.179 42.7716H23.6773C24.2173 42.7716 24.7353 42.557 25.1172 42.1751C25.4991 41.7932 25.7136 41.2753 25.7136 40.7352V36.3165C25.7136 35.7764 25.4991 35.2585 25.1172 34.8766C24.7353 34.4947 24.2173 34.2801 23.6773 34.2801H19.1793C18.6392 34.2801 18.1212 34.4946 17.7393 34.8765C17.3574 35.2584 17.1428 35.7764 17.1428 36.3165L17.1427 40.7352C17.1426 41.0026 17.1953 41.2674 17.2976 41.5145C17.4 41.7616 17.55 41.986 17.7391 42.1751C17.9281 42.3642 18.1526 42.5142 18.3997 42.6165C18.6467 42.7189 18.9116 42.7716 19.179 42.7716V42.7716ZM34.2858 36.317V40.7358C34.2858 41.2759 34.5003 41.7938 34.8822 42.1757C35.2641 42.5576 35.7821 42.7722 36.3222 42.7722H40.8205C41.3605 42.7722 41.8785 42.5576 42.2604 42.1757C42.6423 41.7938 42.8568 41.2759 42.8568 40.7358V36.317C42.8568 35.777 42.6423 35.259 42.2604 34.8771C41.8785 34.4952 41.3605 34.2807 40.8205 34.2807H36.3222C35.7821 34.2807 35.2641 34.4952 34.8822 34.8771C34.5003 35.259 34.2858 35.777 34.2858 36.317ZM27.7517 59.9972H32.2505C32.7906 59.9972 33.3086 59.7826 33.6905 59.4007C34.0724 59.0188 34.2869 58.5009 34.2869 57.9608V44.8881C34.2869 43.7634 33.3752 42.8509 32.2505 42.8503C31.1789 42.8503 29.6814 42.8503 27.7517 42.8503C26.6271 42.8501 25.7153 43.7618 25.7153 44.8865V57.9621C25.7153 58.5022 25.9299 59.0202 26.3118 59.4021C26.6937 59.784 27.2116 59.9985 27.7517 59.9985V59.9972ZM4.28747 49.1739V53.6722C4.28747 54.2122 4.50202 54.7302 4.88391 55.1121C5.26581 55.494 5.78376 55.7085 6.32384 55.7085H10.8221C11.3622 55.7085 11.8802 55.494 12.2621 55.1121C12.644 54.7302 12.8585 54.2122 12.8585 53.6722V49.1739C12.8585 48.6338 12.644 48.1158 12.2621 47.7339C11.8802 47.352 11.3622 47.1375 10.8221 47.1375H6.32384C5.78376 47.1375 5.26581 47.352 4.88391 47.7339C4.50202 48.1158 4.28747 48.6338 4.28747 49.1739V49.1739ZM47.1409 49.1739V53.6722C47.1409 54.2122 47.3554 54.7302 47.7373 55.1121C48.1192 55.494 48.6372 55.7085 49.1773 55.7085H53.6755C54.2156 55.7085 54.7336 55.494 55.1155 55.1121C55.4974 54.7302 55.7119 54.2122 55.7119 53.6722V49.1739C55.7119 48.6338 55.4974 48.1158 55.1155 47.7339C54.7336 47.352 54.2156 47.1375 53.6755 47.1375H49.1773C48.6372 47.1375 48.1192 47.352 47.7373 47.7339C47.3554 48.1158 47.1409 48.6338 47.1409 49.1739Z" fill="#F0A2FD"/>
</svg>
