<svg width="60" height="60" viewBox="0 0 60 60" fill="none" xmlns="http://www.w3.org/2000/svg">
<path d="M29.9911 0.00134243C29.5811 0.00134243 29.1711 0.158906 28.8588 0.472252L28.8583 0.46996L23.4672 5.87267C22.7422 6.59912 22.3354 7.58371 22.3358 8.61003L22.3402 22.3388L8.60964 22.3343C7.58333 22.3343 6.59871 22.7407 5.87228 23.4657L0.470018 28.8572C-0.156321 29.4823 -0.156717 30.4972 0.469095 31.1228H0.469557L5.87182 36.5232C6.59768 37.2489 7.58193 37.6568 8.60828 37.6574L22.3331 37.6649L22.3371 51.3884C22.3373 52.4147 22.7455 53.3991 23.4712 54.1248L28.8762 59.5298C29.5022 60.1552 30.5165 60.1538 31.1413 59.527L36.5328 54.1248C37.2578 53.3983 37.6646 52.4137 37.6642 51.3874L37.6598 37.6581L51.3899 37.6634C52.4162 37.6634 53.4008 37.2569 54.1273 36.532L59.53 31.1409C60.1564 30.5158 60.1566 29.5011 59.5309 28.8754L54.1264 23.4704C53.4007 22.7447 52.4163 22.3367 51.39 22.3363L37.6678 22.3317L37.6634 8.60919C37.6632 7.58287 37.255 6.59887 36.5293 5.87317L31.1243 0.468674C30.8113 0.155947 30.4011 -0.000411334 29.9911 8.12645e-07L29.9911 0.00134243Z" fill="#F0A2FD"/>
<path d="M9.91357 51.6768L17.5523 51.6745C18.5787 51.6744 19.563 51.267 20.2893 50.5418L28.5097 42.3341C28.6585 42.1853 28.7766 42.0087 28.8572 41.8143C28.9377 41.62 28.9792 41.4116 28.9792 41.2012C28.9792 40.9907 28.9377 40.7824 28.8572 40.588C28.7766 40.3937 28.6585 40.217 28.5097 40.0683L19.9384 31.4973C19.6377 31.1968 19.2299 31.0279 18.8048 31.0279C18.3796 31.0279 17.9718 31.1968 17.6711 31.4973L9.45457 39.7058C8.72851 40.4311 8.3201 41.415 8.31908 42.4413L8.31152 50.0739C8.31132 50.2843 8.35259 50.4926 8.43297 50.687C8.51335 50.8815 8.63126 51.0582 8.77997 51.207C8.92869 51.3558 9.10527 51.4739 9.29964 51.5545C9.49401 51.635 9.70235 51.6764 9.91275 51.6764L9.91357 51.6768ZM8.31243 9.92762L8.32044 17.5601C8.32151 18.5864 8.72993 19.5704 9.45598 20.2957L17.6721 28.5041C17.9728 28.8047 18.3806 28.9735 18.8057 28.9735C19.2309 28.9735 19.6386 28.8047 19.9393 28.5041L28.5107 19.9328C28.6596 19.784 28.7776 19.6074 28.8582 19.4129C28.9388 19.2185 28.9802 19.0101 28.9802 18.7997C28.9802 18.5892 28.9388 18.3808 28.8582 18.1864C28.7776 17.992 28.6596 17.8154 28.5107 17.6666L20.2942 9.45817C19.5681 8.73281 18.5838 8.32534 17.5575 8.32534L9.91425 8.32539C9.70384 8.3255 9.49552 8.36704 9.30119 8.4477C9.10687 8.52837 8.93035 8.64654 8.78172 8.79546C8.63309 8.94439 8.51528 9.12119 8.43501 9.31568C8.35474 9.51017 8.31358 9.71856 8.3139 9.92897L8.31243 9.92762ZM31.4897 42.3355L39.7063 50.5443C40.4323 51.2697 41.4167 51.6771 42.443 51.6771H50.0866C50.297 51.677 50.5054 51.6355 50.6997 51.5548C50.894 51.4741 51.0706 51.356 51.2192 51.207C51.3678 51.0581 51.4856 50.8813 51.5659 50.6868C51.6462 50.4923 51.6873 50.2839 51.687 50.0735L51.679 42.441C51.6779 41.4147 51.2695 40.4308 50.5434 39.7055L42.3265 31.497C42.0258 31.1964 41.618 31.0276 41.1929 31.0276C40.7677 31.0276 40.3599 31.1964 40.0592 31.497L31.4883 40.0679C31.3395 40.2167 31.2214 40.3933 31.1408 40.5877C31.0603 40.7821 31.0188 40.9906 31.0188 41.201C31.0188 41.4114 31.0603 41.6198 31.1408 41.8142C31.2214 42.0086 31.3395 42.1853 31.4883 42.3341L31.4897 42.3355ZM31.4897 19.9327L40.0603 28.5036C40.361 28.8042 40.7688 28.973 41.1939 28.973C41.6191 28.973 42.0269 28.8042 42.3276 28.5036L50.5449 20.295C51.271 19.5697 51.6794 18.5858 51.6805 17.5595L51.6885 9.92701C51.6887 9.7166 51.6475 9.50823 51.5671 9.31378C51.4867 9.11933 51.3688 8.94259 51.2201 8.79373C51.0714 8.64488 50.8948 8.52682 50.7005 8.44625C50.5061 8.36568 50.2977 8.32422 50.0873 8.32422H42.4437C41.4174 8.32422 40.4331 8.73169 39.707 9.45705L31.4904 17.6659C31.3415 17.8147 31.2235 17.9913 31.1429 18.1858C31.0623 18.3802 31.0209 18.5885 31.0209 18.799C31.0209 19.0094 31.0623 19.2178 31.1429 19.4122C31.2235 19.6066 31.3415 19.7833 31.4904 19.932L31.4897 19.9327Z" fill="#0CBF00"/>
</svg>
