<svg width="60" height="60" viewBox="0 0 60 60" fill="none" xmlns="http://www.w3.org/2000/svg">
<path d="M29.9904 0V0.00229193C29.5804 0.00229193 29.1705 0.159855 28.8581 0.4732V0.470908L23.467 5.8731C22.8848 6.45647 22.5204 7.20865 22.3946 8.01298C22.8869 8.30445 23.3489 8.65161 23.7599 9.06307L29.9788 15.2864L36.1985 9.06262C36.6198 8.64105 37.0944 8.28629 37.6009 7.99067C37.4713 7.1948 37.1057 6.45154 36.5281 5.87399L31.1232 0.469566C30.8103 0.156954 30.4003 0.000540851 29.9904 0.000838511V0ZM37.6653 17.3113L29.9792 25.0028L22.3383 17.3569L22.3406 22.3388L17.7035 22.3365L25.1821 29.8201L17.3453 37.6614L22.3338 37.6641L22.3361 42.2793L29.9798 34.6338L37.6628 42.3227L37.6605 37.6574L42.6129 37.6597L34.7765 29.8179L42.2569 22.3331L37.6677 22.3308L37.6653 17.3113ZM51.6785 22.3648C51.4048 22.8029 51.0866 23.2155 50.7161 23.5865L44.4875 29.8183L50.7148 36.0501C51.1809 36.5165 51.5713 37.0452 51.8829 37.6145C52.7263 37.5058 53.519 37.139 54.1274 36.5318L59.5301 31.1407C60.1565 30.5156 60.1568 29.5009 59.5301 28.8752L54.1256 23.4711C53.4691 22.8146 52.5979 22.4356 51.6785 22.3657V22.3648ZM8.2799 22.3671C7.37538 22.4448 6.5197 22.8196 5.87215 23.4658L0.469905 28.8573C-0.15644 29.4825 -0.15683 30.4973 0.469905 31.1229L5.87215 36.5233C6.47187 37.1229 7.25085 37.4899 8.08135 37.6051C8.39155 37.0407 8.77879 36.5161 9.2414 36.0529L15.4701 29.8206L9.24319 23.5893C8.87251 23.2184 8.554 22.8055 8.2799 22.3671V22.3671ZM29.9783 44.3517L23.755 50.5759C23.3364 50.9945 22.8652 51.3471 22.3624 51.6416C22.4243 52.5745 22.8063 53.4598 23.4715 54.1249L28.8764 59.5298C29.5025 60.1553 30.5167 60.154 31.1415 59.5271L36.533 54.1249C37.1904 53.4661 37.5689 52.5921 37.6367 51.6702C37.1163 51.3707 36.6299 51.0085 36.1985 50.5767L29.9783 44.3517Z" fill="#F0A2FD"/>
<path d="M11.0721 10.9026C10.8138 11.1613 10.6547 11.5193 10.6553 11.9142L10.653 11.9119L10.6601 18.7217C10.6601 19.6374 11.0254 20.5155 11.6723 21.1629L20.3255 29.8219L11.6709 38.4818C11.0242 39.1293 10.6599 40.007 10.659 40.9228L10.6523 47.7328C10.6523 48.5224 11.2907 49.1629 12.0799 49.1623L18.8865 49.16C19.8011 49.1598 20.6783 48.7962 21.3254 48.149L29.978 39.4944L38.6276 48.1504C39.2744 48.7978 40.1519 49.1614 41.0664 49.1614H47.8776C48.6662 49.1614 49.3044 48.5202 49.3032 47.7305L49.2965 40.9205C49.2965 40.0048 48.9315 39.1268 48.2847 38.4795L39.6311 29.8202L48.2858 21.1609C48.9325 20.5134 49.2967 19.6357 49.2976 18.72L49.305 11.9099C49.305 11.1203 48.6666 10.4799 47.8774 10.4805H41.0665C40.152 10.4805 39.2746 10.8441 38.6277 11.4914L29.9787 20.1463L21.3294 11.4912C20.6827 10.8436 19.8054 10.4805 18.8909 10.4805H12.08C11.6857 10.4807 11.3287 10.6408 11.0706 10.8998L11.0721 10.9026Z" fill="#F0A2FD"/>
</svg>
