<svg width="60" height="60" viewBox="0 0 60 60" fill="none" xmlns="http://www.w3.org/2000/svg">
<path d="M25.7139 2.61827V15.8074C25.7139 15.968 25.6218 16.1904 25.5082 16.304C25.0537 16.7585 24.5991 17.2131 24.1446 17.6676C24.031 17.7812 23.8468 17.7812 23.7332 17.6676C20.3783 14.3101 17.0234 10.9619 13.6684 7.60708C12.6459 6.58459 10.9885 6.58424 9.96603 7.60708C9.17995 8.39315 8.39387 9.1792 7.60779 9.96526C6.58529 10.9878 6.58493 12.6459 7.60751 13.6684C10.9677 17.0282 14.3508 20.4039 17.6729 23.73C17.7864 23.8437 17.7864 24.0279 17.6728 24.1415C17.2178 24.5965 16.7629 25.0514 16.308 25.5063C16.1944 25.6199 15.972 25.712 15.8113 25.712C11.4123 25.712 7.0165 25.7091 2.61827 25.7091C1.17224 25.7089 0 26.8812 0 28.3272V31.662C0 33.1081 1.17224 34.2803 2.61827 34.2805C7.01707 34.2805 11.4135 34.2834 15.8131 34.2834C15.9737 34.2834 16.1958 34.3757 16.3094 34.4894C16.7638 34.9442 17.2258 35.4023 17.6735 35.8543C17.7866 35.9684 17.7858 36.1534 17.6723 36.2671C14.3175 39.6236 10.9626 42.9732 7.60774 46.3277C6.5852 47.3502 6.58545 49.0082 7.60795 50.0307C8.39402 50.8168 9.1801 51.6029 9.96617 52.3889C10.9887 53.4114 12.6462 53.4112 13.6687 52.3887C17.0272 49.0306 20.3934 45.6696 23.739 42.3223C23.8526 42.2087 24.0298 42.2152 24.1406 42.3316C24.5923 42.8057 25.135 43.2518 25.5393 43.7501C25.6405 43.8747 25.7141 44.1125 25.7141 44.2732C25.7142 48.6528 25.7142 53.0084 25.7141 57.382C25.7141 58.8281 26.8863 60.0003 28.3323 60.0003H31.6671C33.1132 60.0003 34.2854 58.8281 34.2854 57.382C34.2854 52.9827 34.2853 48.5906 34.2854 44.1889C34.2854 44.0283 34.3775 43.8059 34.4911 43.6923C34.945 43.2384 35.4161 42.7672 35.8553 42.3281C35.9689 42.2145 36.1531 42.2145 36.2666 42.3281C39.6216 45.6856 42.9765 49.0338 46.3314 52.3887C47.354 53.4111 49.0114 53.4115 50.0339 52.3887C50.8199 51.6026 51.606 50.8165 52.3921 50.0304C53.4146 49.0079 53.4151 47.3496 52.3926 46.3271C49.0359 42.9706 45.6725 39.6172 42.327 36.2636C42.2135 36.1498 42.2136 35.9655 42.3272 35.8519C42.7822 35.397 43.2371 34.942 43.692 34.4871C43.8056 34.3735 44.028 34.2814 44.1887 34.2814C48.5877 34.2815 52.9835 34.2843 57.3817 34.2843C58.8278 34.2845 60 33.1123 60 31.6663V28.3314C60 26.8854 58.8278 25.7132 57.3817 25.713C52.9829 25.713 48.5865 25.7101 44.1869 25.7101C44.0263 25.7101 43.804 25.6179 43.6905 25.5042C43.2371 25.0506 42.7636 24.5791 42.3272 24.1408C42.2138 24.0269 42.2142 23.8423 42.3278 23.7287C45.6827 20.3722 49.0375 17.0226 52.3924 13.668C53.4149 12.6456 53.4147 10.9875 52.3922 9.96501C51.6061 9.17895 50.82 8.39286 50.034 7.6068C49.0115 6.58431 47.3539 6.58455 46.3314 7.60701C42.9713 10.9667 39.6066 14.3262 36.2543 17.6802C36.1407 17.7938 35.9615 17.7891 35.8514 17.672C35.4225 17.2164 34.9425 16.7608 34.4896 16.3052C34.3766 16.1915 34.2861 15.968 34.2861 15.8074V2.61827C34.2861 1.92386 34.0102 1.25788 33.5192 0.766859C33.0282 0.275838 32.3622 0 31.6678 0H28.3325C27.638 0 26.9721 0.275838 26.4811 0.766859C25.99 1.25788 25.7142 1.92386 25.7142 2.61827H25.7139ZM31.8427 25.7846C32.6299 26.5717 33.4178 27.3597 34.2055 28.1474C35.228 29.1699 35.228 30.8277 34.2055 31.8502C33.4197 32.636 32.6323 33.4234 31.8513 34.2044C30.8288 35.2269 29.171 35.2269 28.1485 34.2044C27.3637 33.4196 26.579 32.6349 25.7942 31.8502C24.7717 30.8276 24.7699 29.168 25.7937 28.1468C26.5799 27.3626 27.3676 26.5783 28.1496 25.7941C29.1706 24.7702 30.8202 24.7621 31.8427 25.7845L31.8427 25.7846Z" fill="#F0A2FD"/>
</svg>
